  0
SECTION
  2
HEADER
  9
$ACADVER
  1
AC1009
  9
$FILLMODE
 70
0
  9
$EXTMIN
 10
-24.0381
 20
-17.0381
 30
0.0000
  9
$EXTMAX
 10
53.0381
 20
48.0381
 30
0.0000
  0
ENDSEC
  0
SECTION
  2
TABLES
  0
TABLE
  2
LTYPE
 70
1
  0
LTYPE
  2
CONTINUOUS
 70
64
  3
Solid line
 72
65
 73
0
 40
0
  0
ENDTAB
  0
TABLE
  2
LAYER
 70
255
  0
LAYER
  2
16
 70
64
 62
132
  6
CONTINUOUS
  0
LAYER
  2
17
 70
64
 62
122
  6
CONTINUOUS
  0
LAYER
  2
20
 70
64
 62
31
  6
CONTINUOUS
  0
ENDTAB
  0
ENDSEC
  0
SECTION
  2
BLOCKS
  0
BLOCK
  8
0
  2
RECT
 70
64
 10
0.0000
 20
0.0000
 30
0.0000
  3
RECT
  0
SOLID
  8
0
 10
-0.5000
 20
-0.5000
 30
0.0000
 11
0.5000
 21
-0.5000
 31
0.0000
 12
-0.5000
 22
0.5000
 32
0.0000
 13
0.5000
 23
0.5000
 33
0.0000
  0
ENDBLK
  8
0
  0
BLOCK
  8
0
  2
PIE
 70
64
 10
0.0000
 20
0.0000
 30
0.0000
  3
PIE
  0
CIRCLE
  8
0
 10
0.0000
 20
0.0000
 30
0.0000
 40
0.5000
  0
ENDBLK
  8
0
  0
BLOCK
  8
0
  2
OCTAGONP
 70
64
 10
0.0000
 20
0.0000
 30
0.0000
  3
OCTAGONP
  0
POLYLINE
  8
0
 66
1
 10
0.0000
 20
0.0000
 30
0.0000
 40
0.0000
 41
0.0000
 70
1
  0
VERTEX
  8
0
 10
-0.5000
 20
-0.2071
 30
0.0000
  0
VERTEX
  8
0
 10
-0.5000
 20
0.2071
 30
0.0000
  0
VERTEX
  8
0
 10
-0.2071
 20
0.5000
 30
0.0000
  0
VERTEX
  8
0
 10
0.2071
 20
0.5000
 30
0.0000
  0
VERTEX
  8
0
 10
0.5000
 20
0.2071
 30
0.0000
  0
VERTEX
  8
0
 10
0.5000
 20
-0.2071
 30
0.0000
  0
VERTEX
  8
0
 10
0.2071
 20
-0.5000
 30
0.0000
  0
VERTEX
  8
0
 10
-0.2071
 20
-0.5000
 30
0.0000
  0
SEQEND
  8
0
  0
ENDBLK
  8
0
  0
BLOCK
  8
0
  2
SQUAREP
 70
64
 10
0.0000
 20
0.0000
 30
0.0000
  3
SQUAREP
  0
SOLID
  8
0
 10
-0.5000
 20
-0.5000
 30
0.0000
 11
0.5000
 21
-0.5000
 31
0.0000
 12
-0.5000
 22
0.5000
 32
0.0000
 13
0.5000
 23
0.5000
 33
0.0000
  0
ENDBLK
  8
0
  0
BLOCK
  8
0
  2
ROUNDP
 70
64
 10
0.0000
 20
0.0000
 30
0.0000
  3
ROUNDP
  0
CIRCLE
  8
0
 10
0.0000
 20
0.0000
 30
0.0000
 40
0.5000
  0
ENDBLK
  8
0
  0
BLOCK
  8
0
  2
ANNULUSP
 70
64
 10
0.0000
 20
0.0000
 30
0.0000
  3
ANNULUSP
  0
CIRCLE
  8
0
 10
0.0000
 20
0.0000
 30
0.0000
 40
0.5000
  0
ENDBLK
  8
0
  0
BLOCK
  8
0
  2
THERMALP
 70
64
 10
0.0000
 20
0.0000
 30
0.0000
  3
THERMALP
  0
POLYLINE
  8
0
 66
1
 10
0.0000
 20
0.0000
 30
0.0000
 40
0.0000
 41
0.0000
 70
1
  0
VERTEX
  8
0
 10
-0.2379
 20
0.4000
 30
0.0000
  0
VERTEX
  8
0
 10
0.2379
 20
0.4000
 30
0.0000
 42
1.0000
  0
VERTEX
  8
0
 10
0.2379
 20
0.5000
 30
0.0000
  0
VERTEX
  8
0
 10
-0.2379
 20
0.5000
 30
0.0000
 42
1.0000
  0
SEQEND
  8
0
  0
POLYLINE
  8
0
 66
1
 10
0.0000
 20
0.0000
 30
0.0000
 40
0.0000
 41
0.0000
 70
1
  0
VERTEX
  8
0
 10
0.4000
 20
0.2379
 30
0.0000
  0
VERTEX
  8
0
 10
0.4000
 20
-0.2379
 30
0.0000
 42
1.0000
  0
VERTEX
  8
0
 10
0.5000
 20
-0.2379
 30
0.0000
  0
VERTEX
  8
0
 10
0.5000
 20
0.2379
 30
0.0000
 42
1.0000
  0
SEQEND
  8
0
  0
POLYLINE
  8
0
 66
1
 10
0.0000
 20
0.0000
 30
0.0000
 40
0.0000
 41
0.0000
 70
1
  0
VERTEX
  8
0
 10
0.2379
 20
-0.4000
 30
0.0000
  0
VERTEX
  8
0
 10
-0.2379
 20
-0.4000
 30
0.0000
 42
1.0000
  0
VERTEX
  8
0
 10
-0.2379
 20
-0.5000
 30
0.0000
  0
VERTEX
  8
0
 10
0.2379
 20
-0.5000
 30
0.0000
 42
1.0000
  0
SEQEND
  8
0
  0
POLYLINE
  8
0
 66
1
 10
0.0000
 20
0.0000
 30
0.0000
 40
0.0000
 41
0.0000
 70
1
  0
VERTEX
  8
0
 10
-0.4000
 20
-0.2379
 30
0.0000
  0
VERTEX
  8
0
 10
-0.4000
 20
0.2379
 30
0.0000
 42
1.0000
  0
VERTEX
  8
0
 10
-0.5000
 20
0.2379
 30
0.0000
  0
VERTEX
  8
0
 10
-0.5000
 20
-0.2379
 30
0.0000
 42
1.0000
  0
SEQEND
  8
0
  0
ENDBLK
  8
0
  0
BLOCK
  8
0
  2
OCTAGONV
 70
64
 10
0.0000
 20
0.0000
 30
0.0000
  3
OCTAGONV
  0
POLYLINE
  8
0
 66
1
 10
0.0000
 20
0.0000
 30
0.0000
 40
0.0000
 41
0.0000
 70
1
  0
VERTEX
  8
0
 10
-0.5000
 20
-0.2071
 30
0.0000
  0
VERTEX
  8
0
 10
-0.5000
 20
0.2071
 30
0.0000
  0
VERTEX
  8
0
 10
-0.2071
 20
0.5000
 30
0.0000
  0
VERTEX
  8
0
 10
0.2071
 20
0.5000
 30
0.0000
  0
VERTEX
  8
0
 10
0.5000
 20
0.2071
 30
0.0000
  0
VERTEX
  8
0
 10
0.5000
 20
-0.2071
 30
0.0000
  0
VERTEX
  8
0
 10
0.2071
 20
-0.5000
 30
0.0000
  0
VERTEX
  8
0
 10
-0.2071
 20
-0.5000
 30
0.0000
  0
SEQEND
  8
0
  0
ENDBLK
  8
0
  0
BLOCK
  8
0
  2
SQUAREV
 70
64
 10
0.0000
 20
0.0000
 30
0.0000
  3
SQUAREV
  0
SOLID
  8
0
 10
-0.5000
 20
-0.5000
 30
0.0000
 11
0.5000
 21
-0.5000
 31
0.0000
 12
-0.5000
 22
0.5000
 32
0.0000
 13
0.5000
 23
0.5000
 33
0.0000
  0
ENDBLK
  8
0
  0
BLOCK
  8
0
  2
ROUNDV
 70
64
 10
0.0000
 20
0.0000
 30
0.0000
  3
ROUNDV
  0
CIRCLE
  8
0
 10
0.0000
 20
0.0000
 30
0.0000
 40
0.5000
  0
ENDBLK
  8
0
  0
BLOCK
  8
0
  2
ANNULUSV
 70
64
 10
0.0000
 20
0.0000
 30
0.0000
  3
ANNULUSV
  0
CIRCLE
  8
0
 10
0.0000
 20
0.0000
 30
0.0000
 40
0.5000
  0
ENDBLK
  8
0
  0
BLOCK
  8
0
  2
THERMALV
 70
64
 10
0.0000
 20
0.0000
 30
0.0000
  3
THERMALV
  0
POLYLINE
  8
0
 66
1
 10
0.0000
 20
0.0000
 30
0.0000
 40
0.0000
 41
0.0000
 70
1
  0
VERTEX
  8
0
 10
-0.2379
 20
0.4000
 30
0.0000
  0
VERTEX
  8
0
 10
0.2379
 20
0.4000
 30
0.0000
 42
1.0000
  0
VERTEX
  8
0
 10
0.2379
 20
0.5000
 30
0.0000
  0
VERTEX
  8
0
 10
-0.2379
 20
0.5000
 30
0.0000
 42
1.0000
  0
SEQEND
  8
0
  0
POLYLINE
  8
0
 66
1
 10
0.0000
 20
0.0000
 30
0.0000
 40
0.0000
 41
0.0000
 70
1
  0
VERTEX
  8
0
 10
0.4000
 20
0.2379
 30
0.0000
  0
VERTEX
  8
0
 10
0.4000
 20
-0.2379
 30
0.0000
 42
1.0000
  0
VERTEX
  8
0
 10
0.5000
 20
-0.2379
 30
0.0000
  0
VERTEX
  8
0
 10
0.5000
 20
0.2379
 30
0.0000
 42
1.0000
  0
SEQEND
  8
0
  0
POLYLINE
  8
0
 66
1
 10
0.0000
 20
0.0000
 30
0.0000
 40
0.0000
 41
0.0000
 70
1
  0
VERTEX
  8
0
 10
0.2379
 20
-0.4000
 30
0.0000
  0
VERTEX
  8
0
 10
-0.2379
 20
-0.4000
 30
0.0000
 42
1.0000
  0
VERTEX
  8
0
 10
-0.2379
 20
-0.5000
 30
0.0000
  0
VERTEX
  8
0
 10
0.2379
 20
-0.5000
 30
0.0000
 42
1.0000
  0
SEQEND
  8
0
  0
POLYLINE
  8
0
 66
1
 10
0.0000
 20
0.0000
 30
0.0000
 40
0.0000
 41
0.0000
 70
1
  0
VERTEX
  8
0
 10
-0.4000
 20
-0.2379
 30
0.0000
  0
VERTEX
  8
0
 10
-0.4000
 20
0.2379
 30
0.0000
 42
1.0000
  0
VERTEX
  8
0
 10
-0.5000
 20
0.2379
 30
0.0000
  0
VERTEX
  8
0
 10
-0.5000
 20
-0.2379
 30
0.0000
 42
1.0000
  0
SEQEND
  8
0
  0
ENDBLK
  8
0
  0
BLOCK
  8
0
  2
LONGP100
 70
64
 10
0.0000
 20
0.0000
 30
0.0000
  3
LONGP100
  0
POLYLINE
  8
0
 66
1
 10
0.0000
 20
0.0000
 30
0.0000
 40
0.0000
 41
0.0000
 70
1
  0
VERTEX
  8
0
 10
-0.5000
 20
-0.5000
 30
0.0000
  0
VERTEX
  8
0
 10
0.5000
 20
-0.5000
 30
0.0000
 42
1.0000
  0
VERTEX
  8
0
 10
0.5000
 20
0.5000
 30
0.0000
  0
VERTEX
  8
0
 10
-0.5000
 20
0.5000
 30
0.0000
 42
1.0000
  0
SEQEND
  8
0
  0
ENDBLK
  8
0
  0
ENDSEC
  0
SECTION
  2
ENTITIES
  0
POLYLINE
  8
20
 66
1
 10
0.0000
 20
0.0000
 30
0.0000
 40
0.0000
 41
0.0000
 70
1
  0
VERTEX
  8
20
 10
10.9731
 20
48.0269
 30
0.0000
  0
VERTEX
  8
20
 10
-24.0269
 20
13.0269
 30
0.0000
 42
1.0000
  0
VERTEX
  8
20
 10
-23.9731
 20
12.9731
 30
0.0000
  0
VERTEX
  8
20
 10
11.0269
 20
47.9731
 30
0.0000
 42
1.0000
  0
SEQEND
  8
0
  0
POLYLINE
  8
20
 66
1
 10
0.0000
 20
0.0000
 30
0.0000
 40
0.0000
 41
0.0000
 70
1
  0
VERTEX
  8
20
 10
53.0269
 20
37.0269
 30
0.0000
  0
VERTEX
  8
20
 10
42.0269
 20
48.0269
 30
0.0000
 42
1.0000
  0
VERTEX
  8
20
 10
41.9731
 20
47.9731
 30
0.0000
  0
VERTEX
  8
20
 10
52.9731
 20
36.9731
 30
0.0000
 42
1.0000
  0
SEQEND
  8
0
  0
POLYLINE
  8
20
 66
1
 10
0.0000
 20
0.0000
 30
0.0000
 40
0.0000
 41
0.0000
 70
1
  0
VERTEX
  8
20
 10
42.0000
 20
48.0381
 30
0.0000
  0
VERTEX
  8
20
 10
11.0000
 20
48.0381
 30
0.0000
 42
1.0000
  0
VERTEX
  8
20
 10
11.0000
 20
47.9619
 30
0.0000
  0
VERTEX
  8
20
 10
42.0000
 20
47.9619
 30
0.0000
 42
1.0000
  0
SEQEND
  8
0
  0
POLYLINE
  8
20
 66
1
 10
0.0000
 20
0.0000
 30
0.0000
 40
0.0000
 41
0.0000
 70
1
  0
VERTEX
  8
20
 10
-24.0381
 20
13.0000
 30
0.0000
  0
VERTEX
  8
20
 10
-24.0381
 20
7.0000
 30
0.0000
 42
1.0000
  0
VERTEX
  8
20
 10
-23.9619
 20
7.0000
 30
0.0000
  0
VERTEX
  8
20
 10
-23.9619
 20
13.0000
 30
0.0000
 42
1.0000
  0
SEQEND
  8
0
  0
POLYLINE
  8
20
 66
1
 10
0.0000
 20
0.0000
 30
0.0000
 40
0.0000
 41
0.0000
 70
1
  0
VERTEX
  8
20
 10
-24.0269
 20
6.9731
 30
0.0000
  0
VERTEX
  8
20
 10
-0.0269
 20
-17.0269
 30
0.0000
 42
1.0000
  0
VERTEX
  8
20
 10
0.0269
 20
-16.9731
 30
0.0000
  0
VERTEX
  8
20
 10
-23.9731
 20
7.0269
 30
0.0000
 42
1.0000
  0
SEQEND
  8
0
  0
POLYLINE
  8
20
 66
1
 10
0.0000
 20
0.0000
 30
0.0000
 40
0.0000
 41
0.0000
 70
1
  0
VERTEX
  8
20
 10
36.0269
 20
-17.0269
 30
0.0000
  0
VERTEX
  8
20
 10
53.0269
 20
-0.0269
 30
0.0000
 42
1.0000
  0
VERTEX
  8
20
 10
52.9731
 20
0.0269
 30
0.0000
  0
VERTEX
  8
20
 10
35.9731
 20
-16.9731
 30
0.0000
 42
1.0000
  0
SEQEND
  8
0
  0
POLYLINE
  8
20
 66
1
 10
0.0000
 20
0.0000
 30
0.0000
 40
0.0000
 41
0.0000
 70
1
  0
VERTEX
  8
20
 10
53.0381
 20
0.0000
 30
0.0000
  0
VERTEX
  8
20
 10
53.0381
 20
37.0000
 30
0.0000
 42
1.0000
  0
VERTEX
  8
20
 10
52.9619
 20
37.0000
 30
0.0000
  0
VERTEX
  8
20
 10
52.9619
 20
0.0000
 30
0.0000
 42
1.0000
  0
SEQEND
  8
0
  0
POLYLINE
  8
20
 66
1
 10
0.0000
 20
0.0000
 30
0.0000
 40
0.0000
 41
0.0000
 70
1
  0
VERTEX
  8
20
 10
0.0000
 20
-17.0381
 30
0.0000
  0
VERTEX
  8
20
 10
36.0000
 20
-17.0381
 30
0.0000
 42
1.0000
  0
VERTEX
  8
20
 10
36.0000
 20
-16.9619
 30
0.0000
  0
VERTEX
  8
20
 10
0.0000
 20
-16.9619
 30
0.0000
 42
1.0000
  0
SEQEND
  8
0
  0
INSERT
  8
16
  2
RECT
 10
-15.5000
 20
10.0000
 30
0.0000
 41
11.0000
 42
6.0000
 43
1.0000
 50
0.0000
  0
INSERT
  8
16
  2
RECT
 10
-6.5000
 20
19.0000
 30
0.0000
 41
11.0000
 42
6.0000
 43
1.0000
 50
0.0000
  0
INSERT
  8
17
  2
ROUNDP
 10
24.7300
 20
28.0000
 30
0.0000
 41
1.7780
 42
1.7780
 43
1.0000
 50
0.0000
  0
INSERT
  8
17
  2
OCTAGONP
 10
27.2700
 20
28.0000
 30
0.0000
 41
1.7780
 42
1.7780
 43
1.0000
 50
0.0000
  0
INSERT
  8
17
  2
ROUNDP
 10
27.2700
 20
18.0000
 30
0.0000
 41
1.7780
 42
1.7780
 43
1.0000
 50
180.0000
  0
INSERT
  8
17
  2
OCTAGONP
 10
24.7300
 20
18.0000
 30
0.0000
 41
1.7780
 42
1.7780
 43
1.0000
 50
180.0000
  0
INSERT
  8
17
  2
OCTAGONP
 10
14.2700
 20
27.0000
 30
0.0000
 41
1.6764
 42
1.6764
 43
1.0000
 50
180.0000
  0
INSERT
  8
17
  2
SQUAREP
 10
11.7300
 20
27.0000
 30
0.0000
 41
1.6764
 42
1.6764
 43
1.0000
 50
180.0000
  0
INSERT
  8
17
  2
OCTAGONP
 10
26.9145
 20
35.4825
 30
0.0000
 41
1.4224
 42
1.4224
 43
1.0000
 50
0.0000
  0
INSERT
  8
17
  2
OCTAGONP
 10
39.6145
 20
35.4825
 30
0.0000
 41
1.4224
 42
1.4224
 43
1.0000
 50
0.0000
  0
INSERT
  8
17
  2
OCTAGONP
 10
33.9145
 20
27.4825
 30
0.0000
 41
1.4224
 42
1.4224
 43
1.0000
 50
0.0000
  0
INSERT
  8
17
  2
OCTAGONP
 10
46.6145
 20
27.4825
 30
0.0000
 41
1.4224
 42
1.4224
 43
1.0000
 50
0.0000
  0
INSERT
  8
17
  2
OCTAGONP
 10
17.2645
 20
8.8325
 30
0.0000
 41
1.4224
 42
1.4224
 43
1.0000
 50
270.0000
  0
INSERT
  8
17
  2
OCTAGONP
 10
17.2645
 20
-3.8675
 30
0.0000
 41
1.4224
 42
1.4224
 43
1.0000
 50
270.0000
  0
INSERT
  8
17
  2
OCTAGONP
 10
30.2645
 20
8.8325
 30
0.0000
 41
1.4224
 42
1.4224
 43
1.0000
 50
270.0000
  0
INSERT
  8
17
  2
OCTAGONP
 10
30.2645
 20
-3.8675
 30
0.0000
 41
1.4224
 42
1.4224
 43
1.0000
 50
270.0000
  0
INSERT
  8
17
  2
LONGP100
 10
9.0000
 20
14.7300
 30
0.0000
 41
1.3208
 42
1.3208
 43
1.0000
 50
90.0000
  0
INSERT
  8
17
  2
LONGP100
 10
11.5400
 20
14.7300
 30
0.0000
 41
1.3208
 42
1.3208
 43
1.0000
 50
90.0000
  0
INSERT
  8
17
  2
LONGP100
 10
6.4600
 20
14.7300
 30
0.0000
 41
1.3208
 42
1.3208
 43
1.0000
 50
90.0000
  0
INSERT
  8
17
  2
LONGP100
 10
44.0000
 20
15.2700
 30
0.0000
 41
1.3208
 42
1.3208
 43
1.0000
 50
270.0000
  0
INSERT
  8
17
  2
LONGP100
 10
41.4600
 20
15.2700
 30
0.0000
 41
1.3208
 42
1.3208
 43
1.0000
 50
270.0000
  0
INSERT
  8
17
  2
LONGP100
 10
46.5400
 20
15.2700
 30
0.0000
 41
1.3208
 42
1.3208
 43
1.0000
 50
270.0000
  0
POLYLINE
  8
16
 66
1
 10
0.0000
 20
0.0000
 30
0.0000
 40
0.0000
 41
0.0000
 70
1
  0
VERTEX
  8
16
 10
39.6145
 20
33.4825
 30
0.0000
  0
VERTEX
  8
16
 10
44.5175
 20
33.4825
 30
0.0000
 42
1.0000
  0
VERTEX
  8
16
 10
44.5175
 20
37.4825
 30
0.0000
  0
VERTEX
  8
16
 10
39.6145
 20
37.4825
 30
0.0000
 42
1.0000
  0
SEQEND
  8
0
  0
POLYLINE
  8
16
 66
1
 10
0.0000
 20
0.0000
 30
0.0000
 40
0.0000
 41
0.0000
 70
1
  0
VERTEX
  8
16
 10
44.6145
 20
33.3855
 30
0.0000
  0
VERTEX
  8
16
 10
44.6145
 20
27.4825
 30
0.0000
 42
1.0000
  0
VERTEX
  8
16
 10
48.6145
 20
27.4825
 30
0.0000
  0
VERTEX
  8
16
 10
48.6145
 20
33.3855
 30
0.0000
 42
1.0000
  0
SEQEND
  8
0
  0
POLYLINE
  8
16
 66
1
 10
0.0000
 20
0.0000
 30
0.0000
 40
0.0000
 41
0.0000
 70
1
  0
VERTEX
  8
16
 10
43.1033
 20
34.0683
 30
0.0000
  0
VERTEX
  8
16
 10
45.2003
 20
31.9713
 30
0.0000
 42
1.0000
  0
VERTEX
  8
16
 10
48.0287
 20
34.7997
 30
0.0000
  0
VERTEX
  8
16
 10
45.9317
 20
36.8967
 30
0.0000
 42
1.0000
  0
SEQEND
  8
0
  0
POLYLINE
  8
16
 66
1
 10
0.0000
 20
0.0000
 30
0.0000
 40
0.0000
 41
0.0000
 70
1
  0
VERTEX
  8
16
 10
37.5858
 20
39.5858
 30
0.0000
  0
VERTEX
  8
16
 10
43.1033
 20
34.0683
 30
0.0000
 42
1.0000
  0
VERTEX
  8
16
 10
45.9317
 20
36.8967
 30
0.0000
  0
VERTEX
  8
16
 10
40.4142
 20
42.4142
 30
0.0000
 42
1.0000
  0
SEQEND
  8
0
  0
POLYLINE
  8
16
 66
1
 10
0.0000
 20
0.0000
 30
0.0000
 40
0.0000
 41
0.0000
 70
1
  0
VERTEX
  8
16
 10
39.0000
 20
43.0000
 30
0.0000
  0
VERTEX
  8
16
 10
14.0000
 20
43.0000
 30
0.0000
 42
1.0000
  0
VERTEX
  8
16
 10
14.0000
 20
39.0000
 30
0.0000
  0
VERTEX
  8
16
 10
39.0000
 20
39.0000
 30
0.0000
 42
1.0000
  0
SEQEND
  8
0
  0
POLYLINE
  8
16
 66
1
 10
0.0000
 20
0.0000
 30
0.0000
 40
0.0000
 41
0.0000
 70
1
  0
VERTEX
  8
16
 10
13.2280
 20
40.3650
 30
0.0000
  0
VERTEX
  8
16
 10
14.0000
 20
40.3650
 30
0.0000
 42
1.0000
  0
VERTEX
  8
16
 10
14.0000
 20
41.6350
 30
0.0000
  0
VERTEX
  8
16
 10
13.2280
 20
41.6350
 30
0.0000
 42
1.0000
  0
SEQEND
  8
0
  0
POLYLINE
  8
16
 66
1
 10
0.0000
 20
0.0000
 30
0.0000
 40
0.0000
 41
0.0000
 70
1
  0
VERTEX
  8
16
 10
30.2645
 20
-1.8675
 30
0.0000
  0
VERTEX
  8
16
 10
17.2645
 20
-1.8675
 30
0.0000
 42
1.0000
  0
VERTEX
  8
16
 10
17.2645
 20
-5.8675
 30
0.0000
  0
VERTEX
  8
16
 10
30.2645
 20
-5.8675
 30
0.0000
 42
1.0000
  0
SEQEND
  8
0
  0
POLYLINE
  8
16
 66
1
 10
0.0000
 20
0.0000
 30
0.0000
 40
0.0000
 41
0.0000
 70
1
  0
VERTEX
  8
16
 10
4.8675
 20
-5.8675
 30
0.0000
  0
VERTEX
  8
16
 10
17.2645
 20
-5.8675
 30
0.0000
 42
1.0000
  0
VERTEX
  8
16
 10
17.2645
 20
-1.8675
 30
0.0000
  0
VERTEX
  8
16
 10
4.8675
 20
-1.8675
 30
0.0000
 42
1.0000
  0
SEQEND
  8
0
  0
POLYLINE
  8
16
 66
1
 10
0.0000
 20
0.0000
 30
0.0000
 40
0.0000
 41
0.0000
 70
1
  0
VERTEX
  8
16
 10
4.2325
 20
-3.7795
 30
0.0000
  0
VERTEX
  8
16
 10
4.2325
 20
-3.8675
 30
0.0000
 42
1.0000
  0
VERTEX
  8
16
 10
5.5025
 20
-3.8675
 30
0.0000
  0
VERTEX
  8
16
 10
5.5025
 20
-3.7795
 30
0.0000
 42
1.0000
  0
SEQEND
  8
0
  0
POLYLINE
  8
16
 66
1
 10
0.0000
 20
0.0000
 30
0.0000
 40
0.0000
 41
0.0000
 70
1
  0
VERTEX
  8
16
 10
14.0000
 20
43.0000
 30
0.0000
  0
VERTEX
  8
16
 10
13.0000
 20
43.0000
 30
0.0000
 42
1.0000
  0
VERTEX
  8
16
 10
13.0000
 20
39.0000
 30
0.0000
  0
VERTEX
  8
16
 10
14.0000
 20
39.0000
 30
0.0000
 42
1.0000
  0
SEQEND
  8
0
  0
POLYLINE
  8
16
 66
1
 10
0.0000
 20
0.0000
 30
0.0000
 40
0.0000
 41
0.0000
 70
1
  0
VERTEX
  8
16
 10
11.5858
 20
42.4142
 30
0.0000
  0
VERTEX
  8
16
 10
-5.4142
 20
25.4142
 30
0.0000
 42
1.0000
  0
VERTEX
  8
16
 10
-2.5858
 20
22.5858
 30
0.0000
  0
VERTEX
  8
16
 10
14.4142
 20
39.5858
 30
0.0000
 42
1.0000
  0
SEQEND
  8
0
  0
POLYLINE
  8
16
 66
1
 10
0.0000
 20
0.0000
 30
0.0000
 40
0.0000
 41
0.0000
 70
1
  0
VERTEX
  8
16
 10
-6.0000
 20
24.0000
 30
0.0000
  0
VERTEX
  8
16
 10
-6.0000
 20
5.0880
 30
0.0000
 42
1.0000
  0
VERTEX
  8
16
 10
-2.0000
 20
5.0880
 30
0.0000
  0
VERTEX
  8
16
 10
-2.0000
 20
24.0000
 30
0.0000
 42
1.0000
  0
SEQEND
  8
0
  0
POLYLINE
  8
16
 66
1
 10
0.0000
 20
0.0000
 30
0.0000
 40
0.0000
 41
0.0000
 70
1
  0
VERTEX
  8
16
 10
-5.4142
 20
3.6738
 30
0.0000
  0
VERTEX
  8
16
 10
3.4533
 20
-5.1937
 30
0.0000
 42
1.0000
  0
VERTEX
  8
16
 10
6.2817
 20
-2.3653
 30
0.0000
  0
VERTEX
  8
16
 10
-2.5858
 20
6.5022
 30
0.0000
 42
1.0000
  0
SEQEND
  8
0
  0
POLYLINE
  8
16
 66
1
 10
0.0000
 20
0.0000
 30
0.0000
 40
0.0000
 41
0.0000
 70
1
  0
VERTEX
  8
16
 10
45.4150
 20
15.2700
 30
0.0000
  0
VERTEX
  8
16
 10
45.4150
 20
3.0000
 30
0.0000
 42
1.0000
  0
VERTEX
  8
16
 10
47.6650
 20
3.0000
 30
0.0000
  0
VERTEX
  8
16
 10
47.6650
 20
15.2700
 30
0.0000
 42
1.0000
  0
SEQEND
  8
0
  0
POLYLINE
  8
16
 66
1
 10
0.0000
 20
0.0000
 30
0.0000
 40
0.0000
 41
0.0000
 70
1
  0
VERTEX
  8
16
 10
45.0400
 20
3.0000
 30
0.0000
  0
VERTEX
  8
16
 10
45.0400
 20
1.2700
 30
0.0000
 42
1.0000
  0
VERTEX
  8
16
 10
48.0400
 20
1.2700
 30
0.0000
  0
VERTEX
  8
16
 10
48.0400
 20
3.0000
 30
0.0000
 42
1.0000
  0
SEQEND
  8
0
  0
POLYLINE
  8
16
 66
1
 10
0.0000
 20
0.0000
 30
0.0000
 40
0.0000
 41
0.0000
 70
1
  0
VERTEX
  8
16
 10
45.1258
 20
2.6842
 30
0.0000
  0
VERTEX
  8
16
 10
33.8558
 20
-8.5858
 30
0.0000
 42
1.0000
  0
VERTEX
  8
16
 10
36.6842
 20
-11.4142
 30
0.0000
  0
VERTEX
  8
16
 10
47.9542
 20
-0.1442
 30
0.0000
 42
1.0000
  0
SEQEND
  8
0
  0
POLYLINE
  8
16
 66
1
 10
0.0000
 20
0.0000
 30
0.0000
 40
0.0000
 41
0.0000
 70
1
  0
VERTEX
  8
16
 10
35.2700
 20
-8.0000
 30
0.0000
  0
VERTEX
  8
16
 10
1.0000
 20
-8.0000
 30
0.0000
 42
1.0000
  0
VERTEX
  8
16
 10
1.0000
 20
-12.0000
 30
0.0000
  0
VERTEX
  8
16
 10
35.2700
 20
-12.0000
 30
0.0000
 42
1.0000
  0
SEQEND
  8
0
  0
POLYLINE
  8
16
 66
1
 10
0.0000
 20
0.0000
 30
0.0000
 40
0.0000
 41
0.0000
 70
1
  0
VERTEX
  8
16
 10
-14.0000
 20
7.0000
 30
0.0000
  0
VERTEX
  8
16
 10
-14.0000
 20
10.0000
 30
0.0000
 42
1.0000
  0
VERTEX
  8
16
 10
-18.0000
 20
10.0000
 30
0.0000
  0
VERTEX
  8
16
 10
-18.0000
 20
7.0000
 30
0.0000
 42
1.0000
  0
SEQEND
  8
0
  0
POLYLINE
  8
16
 66
1
 10
0.0000
 20
0.0000
 30
0.0000
 40
0.0000
 41
0.0000
 70
1
  0
VERTEX
  8
16
 10
2.4142
 20
-8.5858
 30
0.0000
  0
VERTEX
  8
16
 10
-14.5858
 20
8.4142
 30
0.0000
 42
1.0000
  0
VERTEX
  8
16
 10
-17.4142
 20
5.5858
 30
0.0000
  0
VERTEX
  8
16
 10
-0.4142
 20
-11.4142
 30
0.0000
 42
1.0000
  0
SEQEND
  8
0
  0
POLYLINE
  8
16
 66
1
 10
0.0000
 20
0.0000
 30
0.0000
 40
0.0000
 41
0.0000
 70
1
  0
VERTEX
  8
16
 10
5.6645
 20
15.5255
 30
0.0000
  0
VERTEX
  8
16
 10
2.2045
 20
12.0655
 30
0.0000
 42
1.0000
  0
VERTEX
  8
16
 10
3.7955
 20
10.4745
 30
0.0000
  0
VERTEX
  8
16
 10
7.2555
 20
13.9345
 30
0.0000
 42
1.0000
  0
SEQEND
  8
0
  0
POLYLINE
  8
16
 66
1
 10
0.0000
 20
0.0000
 30
0.0000
 40
0.0000
 41
0.0000
 70
1
  0
VERTEX
  8
16
 10
1.5858
 20
4.5858
 30
0.0000
  0
VERTEX
  8
16
 10
5.5858
 20
0.5858
 30
0.0000
 42
1.0000
  0
VERTEX
  8
16
 10
8.4142
 20
3.4142
 30
0.0000
  0
VERTEX
  8
16
 10
4.4142
 20
7.4142
 30
0.0000
 42
1.0000
  0
SEQEND
  8
0
  0
POLYLINE
  8
16
 66
1
 10
0.0000
 20
0.0000
 30
0.0000
 40
0.0000
 41
0.0000
 70
1
  0
VERTEX
  8
16
 10
7.0000
 20
0.0000
 30
0.0000
  0
VERTEX
  8
16
 10
45.5400
 20
0.0000
 30
0.0000
 42
1.0000
  0
VERTEX
  8
16
 10
45.5400
 20
4.0000
 30
0.0000
  0
VERTEX
  8
16
 10
7.0000
 20
4.0000
 30
0.0000
 42
1.0000
  0
SEQEND
  8
0
  0
POLYLINE
  8
16
 66
1
 10
0.0000
 20
0.0000
 30
0.0000
 40
0.0000
 41
0.0000
 70
1
  0
VERTEX
  8
16
 10
45.9890
 20
1.5510
 30
0.0000
  0
VERTEX
  8
16
 10
46.9890
 20
2.5510
 30
0.0000
 42
1.0000
  0
VERTEX
  8
16
 10
46.0910
 20
3.4490
 30
0.0000
  0
VERTEX
  8
16
 10
45.0910
 20
2.4490
 30
0.0000
 42
1.0000
  0
SEQEND
  8
0
  0
POLYLINE
  8
16
 66
1
 10
0.0000
 20
0.0000
 30
0.0000
 40
0.0000
 41
0.0000
 70
1
  0
VERTEX
  8
16
 10
1.6250
 20
11.2700
 30
0.0000
  0
VERTEX
  8
16
 10
1.6250
 20
6.0000
 30
0.0000
 42
1.0000
  0
VERTEX
  8
16
 10
4.3750
 20
6.0000
 30
0.0000
  0
VERTEX
  8
16
 10
4.3750
 20
11.2700
 30
0.0000
 42
1.0000
  0
SEQEND
  8
0
  0
POLYLINE
  8
16
 66
1
 10
0.0000
 20
0.0000
 30
0.0000
 40
0.0000
 41
0.0000
 70
1
  0
VERTEX
  8
16
 10
27.2700
 20
26.8750
 30
0.0000
  0
VERTEX
  8
16
 10
33.3970
 20
26.8750
 30
0.0000
 42
1.0000
  0
VERTEX
  8
16
 10
33.3970
 20
29.1250
 30
0.0000
  0
VERTEX
  8
16
 10
27.2700
 20
29.1250
 30
0.0000
 42
1.0000
  0
SEQEND
  8
0
  0
POLYLINE
  8
16
 66
1
 10
0.0000
 20
0.0000
 30
0.0000
 40
0.0000
 41
0.0000
 70
1
  0
VERTEX
  8
16
 10
32.3363
 20
26.9393
 30
0.0000
  0
VERTEX
  8
16
 10
32.8538
 20
26.4218
 30
0.0000
 42
1.0000
  0
VERTEX
  8
16
 10
34.9752
 20
28.5432
 30
0.0000
  0
VERTEX
  8
16
 10
34.4577
 20
29.0607
 30
0.0000
 42
1.0000
  0
SEQEND
  8
0
  0
POLYLINE
  8
16
 66
1
 10
0.0000
 20
0.0000
 30
0.0000
 40
0.0000
 41
0.0000
 70
1
  0
VERTEX
  8
16
 10
33.4655
 20
27.0335
 30
0.0000
  0
VERTEX
  8
16
 10
33.5510
 20
26.9480
 30
0.0000
 42
1.0000
  0
VERTEX
  8
16
 10
34.4490
 20
27.8460
 30
0.0000
  0
VERTEX
  8
16
 10
34.3635
 20
27.9315
 30
0.0000
 42
1.0000
  0
SEQEND
  8
0
  0
POLYLINE
  8
16
 66
1
 10
0.0000
 20
0.0000
 30
0.0000
 40
0.0000
 41
0.0000
 70
1
  0
VERTEX
  8
16
 10
32.0000
 20
27.3970
 30
0.0000
  0
VERTEX
  8
16
 10
32.0000
 20
23.0000
 30
0.0000
 42
1.0000
  0
VERTEX
  8
16
 10
36.0000
 20
23.0000
 30
0.0000
  0
VERTEX
  8
16
 10
36.0000
 20
27.3970
 30
0.0000
 42
1.0000
  0
SEQEND
  8
0
  0
POLYLINE
  8
16
 66
1
 10
0.0000
 20
0.0000
 30
0.0000
 40
0.0000
 41
0.0000
 70
1
  0
VERTEX
  8
16
 10
32.5858
 20
21.5858
 30
0.0000
  0
VERTEX
  8
16
 10
35.5858
 20
18.5858
 30
0.0000
 42
1.0000
  0
VERTEX
  8
16
 10
38.4142
 20
21.4142
 30
0.0000
  0
VERTEX
  8
16
 10
35.4142
 20
24.4142
 30
0.0000
 42
1.0000
  0
SEQEND
  8
0
  0
POLYLINE
  8
16
 66
1
 10
0.0000
 20
0.0000
 30
0.0000
 40
0.0000
 41
0.0000
 70
1
  0
VERTEX
  8
16
 10
37.0000
 20
18.0000
 30
0.0000
  0
VERTEX
  8
16
 10
42.0000
 20
18.0000
 30
0.0000
 42
1.0000
  0
VERTEX
  8
16
 10
42.0000
 20
22.0000
 30
0.0000
  0
VERTEX
  8
16
 10
37.0000
 20
22.0000
 30
0.0000
 42
1.0000
  0
SEQEND
  8
0
  0
POLYLINE
  8
16
 66
1
 10
0.0000
 20
0.0000
 30
0.0000
 40
0.0000
 41
0.0000
 70
1
  0
VERTEX
  8
16
 10
45.4142
 20
19.4142
 30
0.0000
  0
VERTEX
  8
16
 10
43.4142
 20
21.4142
 30
0.0000
 42
1.0000
  0
VERTEX
  8
16
 10
40.5858
 20
18.5858
 30
0.0000
  0
VERTEX
  8
16
 10
42.5858
 20
16.5858
 30
0.0000
 42
1.0000
  0
SEQEND
  8
0
  0
POLYLINE
  8
16
 66
1
 10
0.0000
 20
0.0000
 30
0.0000
 40
0.0000
 41
0.0000
 70
1
  0
VERTEX
  8
16
 10
45.1250
 20
15.2700
 30
0.0000
  0
VERTEX
  8
16
 10
45.1250
 20
18.0000
 30
0.0000
 42
1.0000
  0
VERTEX
  8
16
 10
42.8750
 20
18.0000
 30
0.0000
  0
VERTEX
  8
16
 10
42.8750
 20
15.2700
 30
0.0000
 42
1.0000
  0
SEQEND
  8
0
  0
POLYLINE
  8
16
 66
1
 10
0.0000
 20
0.0000
 30
0.0000
 40
0.0000
 41
0.0000
 70
1
  0
VERTEX
  8
16
 10
11.5400
 20
13.6050
 30
0.0000
  0
VERTEX
  8
16
 10
14.0000
 20
13.6050
 30
0.0000
 42
1.0000
  0
VERTEX
  8
16
 10
14.0000
 20
15.8550
 30
0.0000
  0
VERTEX
  8
16
 10
11.5400
 20
15.8550
 30
0.0000
 42
1.0000
  0
SEQEND
  8
0
  0
POLYLINE
  8
16
 66
1
 10
0.0000
 20
0.0000
 30
0.0000
 40
0.0000
 41
0.0000
 70
1
  0
VERTEX
  8
16
 10
14.8748
 20
14.0226
 30
0.0000
  0
VERTEX
  8
16
 10
25.6048
 20
27.2926
 30
0.0000
 42
1.0000
  0
VERTEX
  8
16
 10
23.8552
 20
28.7074
 30
0.0000
  0
VERTEX
  8
16
 10
13.1252
 20
15.4374
 30
0.0000
 42
1.0000
  0
SEQEND
  8
0
  0
POLYLINE
  8
16
 66
1
 10
0.0000
 20
0.0000
 30
0.0000
 40
0.0000
 41
0.0000
 70
1
  0
VERTEX
  8
16
 10
10.6050
 20
27.0000
 30
0.0000
  0
VERTEX
  8
16
 10
10.6050
 20
14.9200
 30
0.0000
 42
1.0000
  0
VERTEX
  8
16
 10
12.8550
 20
14.9200
 30
0.0000
  0
VERTEX
  8
16
 10
12.8550
 20
27.0000
 30
0.0000
 42
1.0000
  0
SEQEND
  8
0
  0
POLYLINE
  8
16
 66
1
 10
0.0000
 20
0.0000
 30
0.0000
 40
0.0000
 41
0.0000
 70
1
  0
VERTEX
  8
16
 10
10.9345
 20
15.7155
 30
0.0000
  0
VERTEX
  8
16
 10
10.7445
 20
15.5255
 30
0.0000
 42
1.0000
  0
VERTEX
  8
16
 10
12.3355
 20
13.9345
 30
0.0000
  0
VERTEX
  8
16
 10
12.5255
 20
14.1245
 30
0.0000
 42
1.0000
  0
SEQEND
  8
0
  0
POLYLINE
  8
16
 66
1
 10
0.0000
 20
0.0000
 30
0.0000
 40
0.0000
 41
0.0000
 70
1
  0
VERTEX
  8
16
 10
26.9145
 20
37.4825
 30
0.0000
  0
VERTEX
  8
16
 10
22.7525
 20
37.4825
 30
0.0000
 42
1.0000
  0
VERTEX
  8
16
 10
22.7525
 20
33.4825
 30
0.0000
  0
VERTEX
  8
16
 10
26.9145
 20
33.4825
 30
0.0000
 42
1.0000
  0
SEQEND
  8
0
  0
POLYLINE
  8
16
 66
1
 10
0.0000
 20
0.0000
 30
0.0000
 40
0.0000
 41
0.0000
 70
1
  0
VERTEX
  8
16
 10
21.9570
 20
36.2780
 30
0.0000
  0
VERTEX
  8
16
 10
13.4745
 20
27.7955
 30
0.0000
 42
1.0000
  0
VERTEX
  8
16
 10
15.0655
 20
26.2045
 30
0.0000
  0
VERTEX
  8
16
 10
23.5480
 20
34.6870
 30
0.0000
 42
1.0000
  0
SEQEND
  8
0
  0
POLYLINE
  8
16
 66
1
 10
0.0000
 20
0.0000
 30
0.0000
 40
0.0000
 41
0.0000
 70
1
  0
VERTEX
  8
16
 10
7.8750
 20
14.7300
 30
0.0000
  0
VERTEX
  8
16
 10
7.8750
 20
10.0000
 30
0.0000
 42
1.0000
  0
VERTEX
  8
16
 10
10.1250
 20
10.0000
 30
0.0000
  0
VERTEX
  8
16
 10
10.1250
 20
14.7300
 30
0.0000
 42
1.0000
  0
SEQEND
  8
0
  0
POLYLINE
  8
16
 66
1
 10
0.0000
 20
0.0000
 30
0.0000
 40
0.0000
 41
0.0000
 70
1
  0
VERTEX
  8
16
 10
7.5858
 20
8.5858
 30
0.0000
  0
VERTEX
  8
16
 10
8.7533
 20
7.4183
 30
0.0000
 42
1.0000
  0
VERTEX
  8
16
 10
11.5817
 20
10.2467
 30
0.0000
  0
VERTEX
  8
16
 10
10.4142
 20
11.4142
 30
0.0000
 42
1.0000
  0
SEQEND
  8
0
  0
POLYLINE
  8
16
 66
1
 10
0.0000
 20
0.0000
 30
0.0000
 40
0.0000
 41
0.0000
 70
1
  0
VERTEX
  8
16
 10
10.1675
 20
6.8325
 30
0.0000
  0
VERTEX
  8
16
 10
17.2645
 20
6.8325
 30
0.0000
 42
1.0000
  0
VERTEX
  8
16
 10
17.2645
 20
10.8325
 30
0.0000
  0
VERTEX
  8
16
 10
10.1675
 20
10.8325
 30
0.0000
 42
1.0000
  0
SEQEND
  8
0
  0
POLYLINE
  8
16
 66
1
 10
0.0000
 20
0.0000
 30
0.0000
 40
0.0000
 41
0.0000
 70
1
  0
VERTEX
  8
16
 10
23.6050
 20
18.0000
 30
0.0000
  0
VERTEX
  8
16
 10
23.6050
 20
10.7300
 30
0.0000
 42
1.0000
  0
VERTEX
  8
16
 10
25.8550
 20
10.7300
 30
0.0000
  0
VERTEX
  8
16
 10
25.8550
 20
18.0000
 30
0.0000
 42
1.0000
  0
SEQEND
  8
0
  0
POLYLINE
  8
16
 66
1
 10
0.0000
 20
0.0000
 30
0.0000
 40
0.0000
 41
0.0000
 70
1
  0
VERTEX
  8
16
 10
22.8325
 20
10.8325
 30
0.0000
  0
VERTEX
  8
16
 10
17.2645
 20
10.8325
 30
0.0000
 42
1.0000
  0
VERTEX
  8
16
 10
17.2645
 20
6.8325
 30
0.0000
  0
VERTEX
  8
16
 10
22.8325
 20
6.8325
 30
0.0000
 42
1.0000
  0
SEQEND
  8
0
  0
POLYLINE
  8
16
 66
1
 10
0.0000
 20
0.0000
 30
0.0000
 40
0.0000
 41
0.0000
 70
1
  0
VERTEX
  8
16
 10
23.3158
 20
12.1442
 30
0.0000
  0
VERTEX
  8
16
 10
21.4183
 20
10.2467
 30
0.0000
 42
1.0000
  0
VERTEX
  8
16
 10
24.2467
 20
7.4183
 30
0.0000
  0
VERTEX
  8
16
 10
26.1442
 20
9.3158
 30
0.0000
 42
1.0000
  0
SEQEND
  8
0
  0
POLYLINE
  8
16
 66
1
 10
0.0000
 20
0.0000
 30
0.0000
 40
0.0000
 41
0.0000
 70
1
  0
VERTEX
  8
16
 10
31.6787
 20
7.4183
 30
0.0000
  0
VERTEX
  8
16
 10
34.6302
 20
10.3698
 30
0.0000
 42
1.0000
  0
VERTEX
  8
16
 10
31.8018
 20
13.1982
 30
0.0000
  0
VERTEX
  8
16
 10
28.8503
 20
10.2467
 30
0.0000
 42
1.0000
  0
SEQEND
  8
0
  0
POLYLINE
  8
16
 66
1
 10
0.0000
 20
0.0000
 30
0.0000
 40
0.0000
 41
0.0000
 70
1
  0
VERTEX
  8
16
 10
34.6302
 20
10.3698
 30
0.0000
  0
VERTEX
  8
16
 10
38.1162
 20
13.8558
 30
0.0000
 42
1.0000
  0
VERTEX
  8
16
 10
35.2878
 20
16.6842
 30
0.0000
  0
VERTEX
  8
16
 10
31.8018
 20
13.1982
 30
0.0000
 42
1.0000
  0
SEQEND
  8
0
  0
POLYLINE
  8
16
 66
1
 10
0.0000
 20
0.0000
 30
0.0000
 40
0.0000
 41
0.0000
 70
1
  0
VERTEX
  8
16
 10
36.7020
 20
14.1450
 30
0.0000
  0
VERTEX
  8
16
 10
41.4600
 20
14.1450
 30
0.0000
 42
1.0000
  0
VERTEX
  8
16
 10
41.4600
 20
16.3950
 30
0.0000
  0
VERTEX
  8
16
 10
36.7020
 20
16.3950
 30
0.0000
 42
1.0000
  0
SEQEND
  8
0
  0
POLYLINE
  8
16
 66
1
 10
0.0000
 20
0.0000
 30
0.0000
 40
0.0000
 41
0.0000
 70
1
  0
VERTEX
  8
16
 10
26.4745
 20
17.2045
 30
0.0000
  0
VERTEX
  8
16
 10
32.4205
 20
11.2585
 30
0.0000
 42
1.0000
  0
VERTEX
  8
16
 10
34.0115
 20
12.8495
 30
0.0000
  0
VERTEX
  8
16
 10
28.0655
 20
18.7955
 30
0.0000
 42
1.0000
  0
SEQEND
  8
0
  0
POLYLINE
  8
16
 66
1
 10
0.0000
 20
0.0000
 30
0.0000
 40
0.0000
 41
0.0000
 70
1
  0
VERTEX
  8
16
 10
32.5810
 20
12.0540
 30
0.0000
  0
VERTEX
  8
16
 10
32.5810
 20
11.7840
 30
0.0000
 42
1.0000
  0
VERTEX
  8
16
 10
33.8510
 20
11.7840
 30
0.0000
  0
VERTEX
  8
16
 10
33.8510
 20
12.0540
 30
0.0000
 42
1.0000
  0
SEQEND
  8
0
  0
ENDSEC
  0
EOF
