  0
SECTION
  2
HEADER
  9
$ACADVER
  1
AC1009
  9
$FILLMODE
 70
0
  9
$EXTMIN
 10
-24.0381
 20
-17.0381
 30
0.0000
  9
$EXTMAX
 10
53.0381
 20
48.0381
 30
0.0000
  0
ENDSEC
  0
SECTION
  2
TABLES
  0
TABLE
  2
LTYPE
 70
1
  0
LTYPE
  2
CONTINUOUS
 70
64
  3
Solid line
 72
65
 73
0
 40
0
  0
ENDTAB
  0
TABLE
  2
LAYER
 70
255
  0
LAYER
  2
16
 70
64
 62
132
  6
CONTINUOUS
  0
LAYER
  2
17
 70
64
 62
122
  6
CONTINUOUS
  0
LAYER
  2
19
 70
64
 62
53
  6
CONTINUOUS
  0
LAYER
  2
20
 70
64
 62
31
  6
CONTINUOUS
  0
LAYER
  2
21
 70
64
 62
251
  6
CONTINUOUS
  0
LAYER
  2
22
 70
64
 62
251
  6
CONTINUOUS
  0
LAYER
  2
23
 70
64
 62
53
  6
CONTINUOUS
  0
LAYER
  2
24
 70
64
 62
53
  6
CONTINUOUS
  0
LAYER
  2
25
 70
64
 62
251
  6
CONTINUOUS
  0
LAYER
  2
26
 70
64
 62
251
  6
CONTINUOUS
  0
LAYER
  2
27
 70
64
 62
251
  6
CONTINUOUS
  0
LAYER
  2
28
 70
64
 62
251
  6
CONTINUOUS
  0
LAYER
  2
29
 70
64
 62
251
  6
CONTINUOUS
  0
LAYER
  2
30
 70
64
 62
251
  6
CONTINUOUS
  0
LAYER
  2
31
 70
64
 62
251
  6
CONTINUOUS
  0
LAYER
  2
32
 70
64
 62
251
  6
CONTINUOUS
  0
LAYER
  2
33
 70
64
 62
53
  6
CONTINUOUS
  0
LAYER
  2
34
 70
64
 62
53
  6
CONTINUOUS
  0
ENDTAB
  0
ENDSEC
  0
SECTION
  2
BLOCKS
  0
BLOCK
  8
0
  2
RECT
 70
64
 10
0.0000
 20
0.0000
 30
0.0000
  3
RECT
  0
SOLID
  8
0
 10
-0.5000
 20
-0.5000
 30
0.0000
 11
0.5000
 21
-0.5000
 31
0.0000
 12
-0.5000
 22
0.5000
 32
0.0000
 13
0.5000
 23
0.5000
 33
0.0000
  0
ENDBLK
  8
0
  0
BLOCK
  8
0
  2
PIE
 70
64
 10
0.0000
 20
0.0000
 30
0.0000
  3
PIE
  0
CIRCLE
  8
0
 10
0.0000
 20
0.0000
 30
0.0000
 40
0.5000
  0
ENDBLK
  8
0
  0
BLOCK
  8
0
  2
OCTAGONP
 70
64
 10
0.0000
 20
0.0000
 30
0.0000
  3
OCTAGONP
  0
POLYLINE
  8
0
 66
1
 10
0.0000
 20
0.0000
 30
0.0000
 40
0.0000
 41
0.0000
 70
1
  0
VERTEX
  8
0
 10
-0.5000
 20
-0.2071
 30
0.0000
  0
VERTEX
  8
0
 10
-0.5000
 20
0.2071
 30
0.0000
  0
VERTEX
  8
0
 10
-0.2071
 20
0.5000
 30
0.0000
  0
VERTEX
  8
0
 10
0.2071
 20
0.5000
 30
0.0000
  0
VERTEX
  8
0
 10
0.5000
 20
0.2071
 30
0.0000
  0
VERTEX
  8
0
 10
0.5000
 20
-0.2071
 30
0.0000
  0
VERTEX
  8
0
 10
0.2071
 20
-0.5000
 30
0.0000
  0
VERTEX
  8
0
 10
-0.2071
 20
-0.5000
 30
0.0000
  0
SEQEND
  8
0
  0
ENDBLK
  8
0
  0
BLOCK
  8
0
  2
SQUAREP
 70
64
 10
0.0000
 20
0.0000
 30
0.0000
  3
SQUAREP
  0
SOLID
  8
0
 10
-0.5000
 20
-0.5000
 30
0.0000
 11
0.5000
 21
-0.5000
 31
0.0000
 12
-0.5000
 22
0.5000
 32
0.0000
 13
0.5000
 23
0.5000
 33
0.0000
  0
ENDBLK
  8
0
  0
BLOCK
  8
0
  2
ROUNDP
 70
64
 10
0.0000
 20
0.0000
 30
0.0000
  3
ROUNDP
  0
CIRCLE
  8
0
 10
0.0000
 20
0.0000
 30
0.0000
 40
0.5000
  0
ENDBLK
  8
0
  0
BLOCK
  8
0
  2
ANNULUSP
 70
64
 10
0.0000
 20
0.0000
 30
0.0000
  3
ANNULUSP
  0
CIRCLE
  8
0
 10
0.0000
 20
0.0000
 30
0.0000
 40
0.5000
  0
ENDBLK
  8
0
  0
BLOCK
  8
0
  2
THERMALP
 70
64
 10
0.0000
 20
0.0000
 30
0.0000
  3
THERMALP
  0
POLYLINE
  8
0
 66
1
 10
0.0000
 20
0.0000
 30
0.0000
 40
0.0000
 41
0.0000
 70
1
  0
VERTEX
  8
0
 10
-0.2379
 20
0.4000
 30
0.0000
  0
VERTEX
  8
0
 10
0.2379
 20
0.4000
 30
0.0000
 42
1.0000
  0
VERTEX
  8
0
 10
0.2379
 20
0.5000
 30
0.0000
  0
VERTEX
  8
0
 10
-0.2379
 20
0.5000
 30
0.0000
 42
1.0000
  0
SEQEND
  8
0
  0
POLYLINE
  8
0
 66
1
 10
0.0000
 20
0.0000
 30
0.0000
 40
0.0000
 41
0.0000
 70
1
  0
VERTEX
  8
0
 10
0.4000
 20
0.2379
 30
0.0000
  0
VERTEX
  8
0
 10
0.4000
 20
-0.2379
 30
0.0000
 42
1.0000
  0
VERTEX
  8
0
 10
0.5000
 20
-0.2379
 30
0.0000
  0
VERTEX
  8
0
 10
0.5000
 20
0.2379
 30
0.0000
 42
1.0000
  0
SEQEND
  8
0
  0
POLYLINE
  8
0
 66
1
 10
0.0000
 20
0.0000
 30
0.0000
 40
0.0000
 41
0.0000
 70
1
  0
VERTEX
  8
0
 10
0.2379
 20
-0.4000
 30
0.0000
  0
VERTEX
  8
0
 10
-0.2379
 20
-0.4000
 30
0.0000
 42
1.0000
  0
VERTEX
  8
0
 10
-0.2379
 20
-0.5000
 30
0.0000
  0
VERTEX
  8
0
 10
0.2379
 20
-0.5000
 30
0.0000
 42
1.0000
  0
SEQEND
  8
0
  0
POLYLINE
  8
0
 66
1
 10
0.0000
 20
0.0000
 30
0.0000
 40
0.0000
 41
0.0000
 70
1
  0
VERTEX
  8
0
 10
-0.4000
 20
-0.2379
 30
0.0000
  0
VERTEX
  8
0
 10
-0.4000
 20
0.2379
 30
0.0000
 42
1.0000
  0
VERTEX
  8
0
 10
-0.5000
 20
0.2379
 30
0.0000
  0
VERTEX
  8
0
 10
-0.5000
 20
-0.2379
 30
0.0000
 42
1.0000
  0
SEQEND
  8
0
  0
ENDBLK
  8
0
  0
BLOCK
  8
0
  2
OCTAGONV
 70
64
 10
0.0000
 20
0.0000
 30
0.0000
  3
OCTAGONV
  0
POLYLINE
  8
0
 66
1
 10
0.0000
 20
0.0000
 30
0.0000
 40
0.0000
 41
0.0000
 70
1
  0
VERTEX
  8
0
 10
-0.5000
 20
-0.2071
 30
0.0000
  0
VERTEX
  8
0
 10
-0.5000
 20
0.2071
 30
0.0000
  0
VERTEX
  8
0
 10
-0.2071
 20
0.5000
 30
0.0000
  0
VERTEX
  8
0
 10
0.2071
 20
0.5000
 30
0.0000
  0
VERTEX
  8
0
 10
0.5000
 20
0.2071
 30
0.0000
  0
VERTEX
  8
0
 10
0.5000
 20
-0.2071
 30
0.0000
  0
VERTEX
  8
0
 10
0.2071
 20
-0.5000
 30
0.0000
  0
VERTEX
  8
0
 10
-0.2071
 20
-0.5000
 30
0.0000
  0
SEQEND
  8
0
  0
ENDBLK
  8
0
  0
BLOCK
  8
0
  2
SQUAREV
 70
64
 10
0.0000
 20
0.0000
 30
0.0000
  3
SQUAREV
  0
SOLID
  8
0
 10
-0.5000
 20
-0.5000
 30
0.0000
 11
0.5000
 21
-0.5000
 31
0.0000
 12
-0.5000
 22
0.5000
 32
0.0000
 13
0.5000
 23
0.5000
 33
0.0000
  0
ENDBLK
  8
0
  0
BLOCK
  8
0
  2
ROUNDV
 70
64
 10
0.0000
 20
0.0000
 30
0.0000
  3
ROUNDV
  0
CIRCLE
  8
0
 10
0.0000
 20
0.0000
 30
0.0000
 40
0.5000
  0
ENDBLK
  8
0
  0
BLOCK
  8
0
  2
ANNULUSV
 70
64
 10
0.0000
 20
0.0000
 30
0.0000
  3
ANNULUSV
  0
CIRCLE
  8
0
 10
0.0000
 20
0.0000
 30
0.0000
 40
0.5000
  0
ENDBLK
  8
0
  0
BLOCK
  8
0
  2
THERMALV
 70
64
 10
0.0000
 20
0.0000
 30
0.0000
  3
THERMALV
  0
POLYLINE
  8
0
 66
1
 10
0.0000
 20
0.0000
 30
0.0000
 40
0.0000
 41
0.0000
 70
1
  0
VERTEX
  8
0
 10
-0.2379
 20
0.4000
 30
0.0000
  0
VERTEX
  8
0
 10
0.2379
 20
0.4000
 30
0.0000
 42
1.0000
  0
VERTEX
  8
0
 10
0.2379
 20
0.5000
 30
0.0000
  0
VERTEX
  8
0
 10
-0.2379
 20
0.5000
 30
0.0000
 42
1.0000
  0
SEQEND
  8
0
  0
POLYLINE
  8
0
 66
1
 10
0.0000
 20
0.0000
 30
0.0000
 40
0.0000
 41
0.0000
 70
1
  0
VERTEX
  8
0
 10
0.4000
 20
0.2379
 30
0.0000
  0
VERTEX
  8
0
 10
0.4000
 20
-0.2379
 30
0.0000
 42
1.0000
  0
VERTEX
  8
0
 10
0.5000
 20
-0.2379
 30
0.0000
  0
VERTEX
  8
0
 10
0.5000
 20
0.2379
 30
0.0000
 42
1.0000
  0
SEQEND
  8
0
  0
POLYLINE
  8
0
 66
1
 10
0.0000
 20
0.0000
 30
0.0000
 40
0.0000
 41
0.0000
 70
1
  0
VERTEX
  8
0
 10
0.2379
 20
-0.4000
 30
0.0000
  0
VERTEX
  8
0
 10
-0.2379
 20
-0.4000
 30
0.0000
 42
1.0000
  0
VERTEX
  8
0
 10
-0.2379
 20
-0.5000
 30
0.0000
  0
VERTEX
  8
0
 10
0.2379
 20
-0.5000
 30
0.0000
 42
1.0000
  0
SEQEND
  8
0
  0
POLYLINE
  8
0
 66
1
 10
0.0000
 20
0.0000
 30
0.0000
 40
0.0000
 41
0.0000
 70
1
  0
VERTEX
  8
0
 10
-0.4000
 20
-0.2379
 30
0.0000
  0
VERTEX
  8
0
 10
-0.4000
 20
0.2379
 30
0.0000
 42
1.0000
  0
VERTEX
  8
0
 10
-0.5000
 20
0.2379
 30
0.0000
  0
VERTEX
  8
0
 10
-0.5000
 20
-0.2379
 30
0.0000
 42
1.0000
  0
SEQEND
  8
0
  0
ENDBLK
  8
0
  0
BLOCK
  8
0
  2
LONGP100
 70
64
 10
0.0000
 20
0.0000
 30
0.0000
  3
LONGP100
  0
POLYLINE
  8
0
 66
1
 10
0.0000
 20
0.0000
 30
0.0000
 40
0.0000
 41
0.0000
 70
1
  0
VERTEX
  8
0
 10
-0.5000
 20
-0.5000
 30
0.0000
  0
VERTEX
  8
0
 10
0.5000
 20
-0.5000
 30
0.0000
 42
1.0000
  0
VERTEX
  8
0
 10
0.5000
 20
0.5000
 30
0.0000
  0
VERTEX
  8
0
 10
-0.5000
 20
0.5000
 30
0.0000
 42
1.0000
  0
SEQEND
  8
0
  0
ENDBLK
  8
0
  0
ENDSEC
  0
SECTION
  2
ENTITIES
  0
POLYLINE
  8
20
 66
1
 10
0.0000
 20
0.0000
 30
0.0000
 40
0.0000
 41
0.0000
 70
1
  0
VERTEX
  8
20
 10
10.9731
 20
48.0269
 30
0.0000
  0
VERTEX
  8
20
 10
-24.0269
 20
13.0269
 30
0.0000
 42
1.0000
  0
VERTEX
  8
20
 10
-23.9731
 20
12.9731
 30
0.0000
  0
VERTEX
  8
20
 10
11.0269
 20
47.9731
 30
0.0000
 42
1.0000
  0
SEQEND
  8
0
  0
POLYLINE
  8
20
 66
1
 10
0.0000
 20
0.0000
 30
0.0000
 40
0.0000
 41
0.0000
 70
1
  0
VERTEX
  8
20
 10
53.0269
 20
37.0269
 30
0.0000
  0
VERTEX
  8
20
 10
42.0269
 20
48.0269
 30
0.0000
 42
1.0000
  0
VERTEX
  8
20
 10
41.9731
 20
47.9731
 30
0.0000
  0
VERTEX
  8
20
 10
52.9731
 20
36.9731
 30
0.0000
 42
1.0000
  0
SEQEND
  8
0
  0
POLYLINE
  8
20
 66
1
 10
0.0000
 20
0.0000
 30
0.0000
 40
0.0000
 41
0.0000
 70
1
  0
VERTEX
  8
20
 10
42.0000
 20
48.0381
 30
0.0000
  0
VERTEX
  8
20
 10
11.0000
 20
48.0381
 30
0.0000
 42
1.0000
  0
VERTEX
  8
20
 10
11.0000
 20
47.9619
 30
0.0000
  0
VERTEX
  8
20
 10
42.0000
 20
47.9619
 30
0.0000
 42
1.0000
  0
SEQEND
  8
0
  0
POLYLINE
  8
20
 66
1
 10
0.0000
 20
0.0000
 30
0.0000
 40
0.0000
 41
0.0000
 70
1
  0
VERTEX
  8
20
 10
-24.0381
 20
13.0000
 30
0.0000
  0
VERTEX
  8
20
 10
-24.0381
 20
7.0000
 30
0.0000
 42
1.0000
  0
VERTEX
  8
20
 10
-23.9619
 20
7.0000
 30
0.0000
  0
VERTEX
  8
20
 10
-23.9619
 20
13.0000
 30
0.0000
 42
1.0000
  0
SEQEND
  8
0
  0
POLYLINE
  8
20
 66
1
 10
0.0000
 20
0.0000
 30
0.0000
 40
0.0000
 41
0.0000
 70
1
  0
VERTEX
  8
20
 10
-24.0269
 20
6.9731
 30
0.0000
  0
VERTEX
  8
20
 10
-0.0269
 20
-17.0269
 30
0.0000
 42
1.0000
  0
VERTEX
  8
20
 10
0.0269
 20
-16.9731
 30
0.0000
  0
VERTEX
  8
20
 10
-23.9731
 20
7.0269
 30
0.0000
 42
1.0000
  0
SEQEND
  8
0
  0
POLYLINE
  8
20
 66
1
 10
0.0000
 20
0.0000
 30
0.0000
 40
0.0000
 41
0.0000
 70
1
  0
VERTEX
  8
20
 10
36.0269
 20
-17.0269
 30
0.0000
  0
VERTEX
  8
20
 10
53.0269
 20
-0.0269
 30
0.0000
 42
1.0000
  0
VERTEX
  8
20
 10
52.9731
 20
0.0269
 30
0.0000
  0
VERTEX
  8
20
 10
35.9731
 20
-16.9731
 30
0.0000
 42
1.0000
  0
SEQEND
  8
0
  0
POLYLINE
  8
20
 66
1
 10
0.0000
 20
0.0000
 30
0.0000
 40
0.0000
 41
0.0000
 70
1
  0
VERTEX
  8
20
 10
53.0381
 20
0.0000
 30
0.0000
  0
VERTEX
  8
20
 10
53.0381
 20
37.0000
 30
0.0000
 42
1.0000
  0
VERTEX
  8
20
 10
52.9619
 20
37.0000
 30
0.0000
  0
VERTEX
  8
20
 10
52.9619
 20
0.0000
 30
0.0000
 42
1.0000
  0
SEQEND
  8
0
  0
POLYLINE
  8
20
 66
1
 10
0.0000
 20
0.0000
 30
0.0000
 40
0.0000
 41
0.0000
 70
1
  0
VERTEX
  8
20
 10
0.0000
 20
-17.0381
 30
0.0000
  0
VERTEX
  8
20
 10
36.0000
 20
-17.0381
 30
0.0000
 42
1.0000
  0
VERTEX
  8
20
 10
36.0000
 20
-16.9619
 30
0.0000
  0
VERTEX
  8
20
 10
0.0000
 20
-16.9619
 30
0.0000
 42
1.0000
  0
SEQEND
  8
0
  0
INSERT
  8
16
  2
RECT
 10
-15.5000
 20
10.0000
 30
0.0000
 41
11.0000
 42
6.0000
 43
1.0000
 50
0.0000
  0
INSERT
  8
16
  2
RECT
 10
-6.5000
 20
19.0000
 30
0.0000
 41
11.0000
 42
6.0000
 43
1.0000
 50
0.0000
  0
POINT
  8
23
 10
26.0000
 20
28.0000
 30
0.0000
  0
POLYLINE
  8
21
 66
1
 10
0.0000
 20
0.0000
 30
0.0000
 40
0.0000
 41
0.0000
 70
1
  0
VERTEX
  8
21
 10
23.9680
 20
29.1938
 30
0.0000
  0
VERTEX
  8
21
 10
24.3490
 20
29.1938
 30
0.0000
 42
1.0000
  0
VERTEX
  8
21
 10
24.3490
 20
29.3462
 30
0.0000
  0
VERTEX
  8
21
 10
23.9680
 20
29.3462
 30
0.0000
 42
1.0000
  0
SEQEND
  8
0
  0
POLYLINE
  8
21
 66
1
 10
0.0000
 20
0.0000
 30
0.0000
 40
0.0000
 41
0.0000
 70
1
  0
VERTEX
  8
21
 10
24.4252
 20
28.8890
 30
0.0000
  0
VERTEX
  8
21
 10
24.4252
 20
29.2700
 30
0.0000
 42
1.0000
  0
VERTEX
  8
21
 10
24.2728
 20
29.2700
 30
0.0000
  0
VERTEX
  8
21
 10
24.2728
 20
28.8890
 30
0.0000
 42
1.0000
  0
SEQEND
  8
0
  0
POLYLINE
  8
21
 66
1
 10
0.0000
 20
0.0000
 30
0.0000
 40
0.0000
 41
0.0000
 70
1
  0
VERTEX
  8
21
 10
24.3490
 20
29.1938
 30
0.0000
  0
VERTEX
  8
21
 10
24.7300
 20
29.1938
 30
0.0000
 42
1.0000
  0
VERTEX
  8
21
 10
24.7300
 20
29.3462
 30
0.0000
  0
VERTEX
  8
21
 10
24.3490
 20
29.3462
 30
0.0000
 42
1.0000
  0
SEQEND
  8
0
  0
POLYLINE
  8
21
 66
1
 10
0.0000
 20
0.0000
 30
0.0000
 40
0.0000
 41
0.0000
 70
1
  0
VERTEX
  8
21
 10
24.4252
 20
29.2700
 30
0.0000
  0
VERTEX
  8
21
 10
24.4252
 20
29.6510
 30
0.0000
 42
1.0000
  0
VERTEX
  8
21
 10
24.2728
 20
29.6510
 30
0.0000
  0
VERTEX
  8
21
 10
24.2728
 20
29.2700
 30
0.0000
 42
1.0000
  0
SEQEND
  8
0
  0
CIRCLE
  8
21
 10
26.0000
 20
28.0000
 30
0.0000
 40
2.7178
  0
CIRCLE
  8
21
 10
26.0000
 20
28.0000
 30
0.0000
 40
2.8702
  0
INSERT
  8
17
  2
ROUNDP
 10
24.7300
 20
28.0000
 30
0.0000
 41
1.7780
 42
1.7780
 43
1.0000
 50
0.0000
  0
INSERT
  8
29
  2
ROUNDP
 10
24.7300
 20
28.0000
 30
0.0000
 41
1.9812
 42
1.9812
 43
1.0000
 50
0.0000
  0
INSERT
  8
30
  2
ROUNDP
 10
24.7300
 20
28.0000
 30
0.0000
 41
1.9812
 42
1.9812
 43
1.0000
 50
0.0000
  0
INSERT
  8
17
  2
OCTAGONP
 10
27.2700
 20
28.0000
 30
0.0000
 41
1.7780
 42
1.7780
 43
1.0000
 50
0.0000
  0
INSERT
  8
29
  2
OCTAGONP
 10
27.2700
 20
28.0000
 30
0.0000
 41
1.9812
 42
1.9812
 43
1.0000
 50
0.0000
  0
INSERT
  8
30
  2
OCTAGONP
 10
27.2700
 20
28.0000
 30
0.0000
 41
1.9812
 42
1.9812
 43
1.0000
 50
0.0000
  0
POLYLINE
  8
25
 66
1
 10
0.0000
 20
0.0000
 30
0.0000
 40
0.0000
 41
0.0000
 70
1
  0
VERTEX
  8
25
 10
26.2385
 20
23.6510
 30
0.0000
  0
VERTEX
  8
25
 10
25.9845
 20
23.6510
 30
0.0000
 42
1.0000
  0
VERTEX
  8
25
 10
25.9845
 20
23.5240
 30
0.0000
  0
VERTEX
  8
25
 10
26.2385
 20
23.5240
 30
0.0000
 42
1.0000
  0
SEQEND
  8
0
  0
POLYLINE
  8
25
 66
1
 10
0.0000
 20
0.0000
 30
0.0000
 40
0.0000
 41
0.0000
 70
1
  0
VERTEX
  8
25
 10
25.7940
 20
23.8415
 30
0.0000
 42
1.0000
  0
VERTEX
  8
25
 10
25.6670
 20
23.8415
 30
0.0000
 42
0.4142
  0
VERTEX
  8
25
 10
25.9845
 20
23.5240
 30
0.0000
 42
1.0000
  0
VERTEX
  8
25
 10
25.9845
 20
23.6510
 30
0.0000
 42
-0.4142
  0
SEQEND
  8
0
  0
POLYLINE
  8
25
 66
1
 10
0.0000
 20
0.0000
 30
0.0000
 40
0.0000
 41
0.0000
 70
1
  0
VERTEX
  8
25
 10
25.7940
 20
23.8415
 30
0.0000
  0
VERTEX
  8
25
 10
25.7940
 20
24.4765
 30
0.0000
 42
1.0000
  0
VERTEX
  8
25
 10
25.6670
 20
24.4765
 30
0.0000
  0
VERTEX
  8
25
 10
25.6670
 20
23.8415
 30
0.0000
 42
1.0000
  0
SEQEND
  8
0
  0
POLYLINE
  8
25
 66
1
 10
0.0000
 20
0.0000
 30
0.0000
 40
0.0000
 41
0.0000
 70
1
  0
VERTEX
  8
25
 10
25.9845
 20
24.6670
 30
0.0000
 42
1.0000
  0
VERTEX
  8
25
 10
25.9845
 20
24.7940
 30
0.0000
 42
0.4142
  0
VERTEX
  8
25
 10
25.6670
 20
24.4765
 30
0.0000
 42
1.0000
  0
VERTEX
  8
25
 10
25.7940
 20
24.4765
 30
0.0000
 42
-0.4142
  0
SEQEND
  8
0
  0
POLYLINE
  8
25
 66
1
 10
0.0000
 20
0.0000
 30
0.0000
 40
0.0000
 41
0.0000
 70
1
  0
VERTEX
  8
25
 10
25.9845
 20
24.6670
 30
0.0000
  0
VERTEX
  8
25
 10
26.2385
 20
24.6670
 30
0.0000
 42
1.0000
  0
VERTEX
  8
25
 10
26.2385
 20
24.7940
 30
0.0000
  0
VERTEX
  8
25
 10
25.9845
 20
24.7940
 30
0.0000
 42
1.0000
  0
SEQEND
  8
0
  0
POLYLINE
  8
25
 66
1
 10
0.0000
 20
0.0000
 30
0.0000
 40
0.0000
 41
0.0000
 70
1
  0
VERTEX
  8
25
 10
26.6867
 20
23.5240
 30
0.0000
  0
VERTEX
  8
25
 10
27.0042
 20
23.5240
 30
0.0000
 42
1.0000
  0
VERTEX
  8
25
 10
27.0042
 20
23.6510
 30
0.0000
  0
VERTEX
  8
25
 10
26.6867
 20
23.6510
 30
0.0000
 42
1.0000
  0
SEQEND
  8
0
  0
POLYLINE
  8
25
 66
1
 10
0.0000
 20
0.0000
 30
0.0000
 40
0.0000
 41
0.0000
 70
1
  0
VERTEX
  8
25
 10
27.0042
 20
23.6510
 30
0.0000
 42
1.0000
  0
VERTEX
  8
25
 10
27.0042
 20
23.5240
 30
0.0000
 42
1.0000
  0
VERTEX
  8
25
 10
27.0042
 20
24.2860
 30
0.0000
 42
1.0000
  0
VERTEX
  8
25
 10
27.0042
 20
24.1590
 30
0.0000
 42
-1.0000
  0
SEQEND
  8
0
  0
POLYLINE
  8
25
 66
1
 10
0.0000
 20
0.0000
 30
0.0000
 40
0.0000
 41
0.0000
 70
1
  0
VERTEX
  8
25
 10
26.6867
 20
24.6670
 30
0.0000
  0
VERTEX
  8
25
 10
27.0677
 20
24.6670
 30
0.0000
 42
1.0000
  0
VERTEX
  8
25
 10
27.0677
 20
24.7940
 30
0.0000
  0
VERTEX
  8
25
 10
26.6867
 20
24.7940
 30
0.0000
 42
1.0000
  0
SEQEND
  8
0
  0
POLYLINE
  8
25
 66
1
 10
0.0000
 20
0.0000
 30
0.0000
 40
0.0000
 41
0.0000
 70
1
  0
VERTEX
  8
25
 10
27.0677
 20
24.2860
 30
0.0000
 42
1.0000
  0
VERTEX
  8
25
 10
27.0677
 20
24.1590
 30
0.0000
 42
1.0000
  0
VERTEX
  8
25
 10
27.0677
 20
24.7940
 30
0.0000
 42
1.0000
  0
VERTEX
  8
25
 10
27.0677
 20
24.6670
 30
0.0000
 42
-1.0000
  0
SEQEND
  8
0
  0
POLYLINE
  8
25
 66
1
 10
0.0000
 20
0.0000
 30
0.0000
 40
0.0000
 41
0.0000
 70
1
  0
VERTEX
  8
25
 10
27.0677
 20
24.2860
 30
0.0000
  0
VERTEX
  8
25
 10
26.8137
 20
24.2860
 30
0.0000
 42
1.0000
  0
VERTEX
  8
25
 10
26.8137
 20
24.1590
 30
0.0000
  0
VERTEX
  8
25
 10
27.0677
 20
24.1590
 30
0.0000
 42
1.0000
  0
SEQEND
  8
0
  0
POINT
  8
23
 10
26.0000
 20
18.0000
 30
0.0000
  0
POLYLINE
  8
21
 66
1
 10
0.0000
 20
0.0000
 30
0.0000
 40
0.0000
 41
0.0000
 70
1
  0
VERTEX
  8
21
 10
28.0320
 20
16.8062
 30
0.0000
  0
VERTEX
  8
21
 10
27.6510
 20
16.8062
 30
0.0000
 42
1.0000
  0
VERTEX
  8
21
 10
27.6510
 20
16.6538
 30
0.0000
  0
VERTEX
  8
21
 10
28.0320
 20
16.6538
 30
0.0000
 42
1.0000
  0
SEQEND
  8
0
  0
POLYLINE
  8
21
 66
1
 10
0.0000
 20
0.0000
 30
0.0000
 40
0.0000
 41
0.0000
 70
1
  0
VERTEX
  8
21
 10
27.5748
 20
17.1110
 30
0.0000
  0
VERTEX
  8
21
 10
27.5748
 20
16.7300
 30
0.0000
 42
1.0000
  0
VERTEX
  8
21
 10
27.7272
 20
16.7300
 30
0.0000
  0
VERTEX
  8
21
 10
27.7272
 20
17.1110
 30
0.0000
 42
1.0000
  0
SEQEND
  8
0
  0
POLYLINE
  8
21
 66
1
 10
0.0000
 20
0.0000
 30
0.0000
 40
0.0000
 41
0.0000
 70
1
  0
VERTEX
  8
21
 10
27.6510
 20
16.8062
 30
0.0000
  0
VERTEX
  8
21
 10
27.2700
 20
16.8062
 30
0.0000
 42
1.0000
  0
VERTEX
  8
21
 10
27.2700
 20
16.6538
 30
0.0000
  0
VERTEX
  8
21
 10
27.6510
 20
16.6538
 30
0.0000
 42
1.0000
  0
SEQEND
  8
0
  0
POLYLINE
  8
21
 66
1
 10
0.0000
 20
0.0000
 30
0.0000
 40
0.0000
 41
0.0000
 70
1
  0
VERTEX
  8
21
 10
27.5748
 20
16.7300
 30
0.0000
  0
VERTEX
  8
21
 10
27.5748
 20
16.3490
 30
0.0000
 42
1.0000
  0
VERTEX
  8
21
 10
27.7272
 20
16.3490
 30
0.0000
  0
VERTEX
  8
21
 10
27.7272
 20
16.7300
 30
0.0000
 42
1.0000
  0
SEQEND
  8
0
  0
CIRCLE
  8
21
 10
26.0000
 20
18.0000
 30
0.0000
 40
2.7178
  0
CIRCLE
  8
21
 10
26.0000
 20
18.0000
 30
0.0000
 40
2.8702
  0
INSERT
  8
17
  2
ROUNDP
 10
27.2700
 20
18.0000
 30
0.0000
 41
1.7780
 42
1.7780
 43
1.0000
 50
180.0000
  0
INSERT
  8
29
  2
ROUNDP
 10
27.2700
 20
18.0000
 30
0.0000
 41
1.9812
 42
1.9812
 43
1.0000
 50
180.0000
  0
INSERT
  8
30
  2
ROUNDP
 10
27.2700
 20
18.0000
 30
0.0000
 41
1.9812
 42
1.9812
 43
1.0000
 50
180.0000
  0
INSERT
  8
17
  2
OCTAGONP
 10
24.7300
 20
18.0000
 30
0.0000
 41
1.7780
 42
1.7780
 43
1.0000
 50
180.0000
  0
INSERT
  8
29
  2
OCTAGONP
 10
24.7300
 20
18.0000
 30
0.0000
 41
1.9812
 42
1.9812
 43
1.0000
 50
180.0000
  0
INSERT
  8
30
  2
OCTAGONP
 10
24.7300
 20
18.0000
 30
0.0000
 41
1.9812
 42
1.9812
 43
1.0000
 50
180.0000
  0
POLYLINE
  8
25
 66
1
 10
0.0000
 20
0.0000
 30
0.0000
 40
0.0000
 41
0.0000
 70
1
  0
VERTEX
  8
25
 10
30.1863
 20
18.3330
 30
0.0000
  0
VERTEX
  8
25
 10
29.9323
 20
18.3330
 30
0.0000
 42
1.0000
  0
VERTEX
  8
25
 10
29.9323
 20
18.2060
 30
0.0000
  0
VERTEX
  8
25
 10
30.1863
 20
18.2060
 30
0.0000
 42
1.0000
  0
SEQEND
  8
0
  0
POLYLINE
  8
25
 66
1
 10
0.0000
 20
0.0000
 30
0.0000
 40
0.0000
 41
0.0000
 70
1
  0
VERTEX
  8
25
 10
29.7418
 20
18.5235
 30
0.0000
 42
1.0000
  0
VERTEX
  8
25
 10
29.6148
 20
18.5235
 30
0.0000
 42
0.4142
  0
VERTEX
  8
25
 10
29.9323
 20
18.2060
 30
0.0000
 42
1.0000
  0
VERTEX
  8
25
 10
29.9323
 20
18.3330
 30
0.0000
 42
-0.4142
  0
SEQEND
  8
0
  0
POLYLINE
  8
25
 66
1
 10
0.0000
 20
0.0000
 30
0.0000
 40
0.0000
 41
0.0000
 70
1
  0
VERTEX
  8
25
 10
29.7418
 20
18.5235
 30
0.0000
  0
VERTEX
  8
25
 10
29.7418
 20
19.1585
 30
0.0000
 42
1.0000
  0
VERTEX
  8
25
 10
29.6148
 20
19.1585
 30
0.0000
  0
VERTEX
  8
25
 10
29.6148
 20
18.5235
 30
0.0000
 42
1.0000
  0
SEQEND
  8
0
  0
POLYLINE
  8
25
 66
1
 10
0.0000
 20
0.0000
 30
0.0000
 40
0.0000
 41
0.0000
 70
1
  0
VERTEX
  8
25
 10
29.9323
 20
19.3490
 30
0.0000
 42
1.0000
  0
VERTEX
  8
25
 10
29.9323
 20
19.4760
 30
0.0000
 42
0.4142
  0
VERTEX
  8
25
 10
29.6148
 20
19.1585
 30
0.0000
 42
1.0000
  0
VERTEX
  8
25
 10
29.7418
 20
19.1585
 30
0.0000
 42
-0.4142
  0
SEQEND
  8
0
  0
POLYLINE
  8
25
 66
1
 10
0.0000
 20
0.0000
 30
0.0000
 40
0.0000
 41
0.0000
 70
1
  0
VERTEX
  8
25
 10
29.9323
 20
19.3490
 30
0.0000
  0
VERTEX
  8
25
 10
30.1863
 20
19.3490
 30
0.0000
 42
1.0000
  0
VERTEX
  8
25
 10
30.1863
 20
19.4760
 30
0.0000
  0
VERTEX
  8
25
 10
29.9323
 20
19.4760
 30
0.0000
 42
1.0000
  0
SEQEND
  8
0
  0
POLYLINE
  8
25
 66
1
 10
0.0000
 20
0.0000
 30
0.0000
 40
0.0000
 41
0.0000
 70
1
  0
VERTEX
  8
25
 10
30.8274
 20
19.4299
 30
0.0000
  0
VERTEX
  8
25
 10
30.5734
 20
18.5409
 30
0.0000
 42
1.0000
  0
VERTEX
  8
25
 10
30.6956
 20
18.5061
 30
0.0000
  0
VERTEX
  8
25
 10
30.9496
 20
19.3951
 30
0.0000
 42
1.0000
  0
SEQEND
  8
0
  0
POLYLINE
  8
25
 66
1
 10
0.0000
 20
0.0000
 30
0.0000
 40
0.0000
 41
0.0000
 70
1
  0
VERTEX
  8
25
 10
30.6345
 20
18.4600
 30
0.0000
  0
VERTEX
  8
25
 10
31.2695
 20
18.4600
 30
0.0000
 42
1.0000
  0
VERTEX
  8
25
 10
31.2695
 20
18.5870
 30
0.0000
  0
VERTEX
  8
25
 10
30.6345
 20
18.5870
 30
0.0000
 42
1.0000
  0
SEQEND
  8
0
  0
POLYLINE
  8
25
 66
1
 10
0.0000
 20
0.0000
 30
0.0000
 40
0.0000
 41
0.0000
 70
1
  0
VERTEX
  8
25
 10
31.0155
 20
18.7775
 30
0.0000
  0
VERTEX
  8
25
 10
31.0155
 20
18.2695
 30
0.0000
 42
1.0000
  0
VERTEX
  8
25
 10
31.1425
 20
18.2695
 30
0.0000
  0
VERTEX
  8
25
 10
31.1425
 20
18.7775
 30
0.0000
 42
1.0000
  0
SEQEND
  8
0
  0
POINT
  8
23
 10
13.0000
 20
27.0000
 30
0.0000
  0
POLYLINE
  8
21
 66
1
 10
0.0000
 20
0.0000
 30
0.0000
 40
0.0000
 41
0.0000
 70
1
  0
VERTEX
  8
21
 10
8.0336
 20
24.5168
 30
0.0000
 42
1.0000
  0
VERTEX
  8
21
 10
7.8064
 20
24.4032
 30
0.0000
 42
4.2361
  0
VERTEX
  8
21
 10
7.8064
 20
29.5968
 30
0.0000
 42
1.0000
  0
VERTEX
  8
21
 10
8.0336
 20
29.4832
 30
0.0000
 42
-4.2361
  0
SEQEND
  8
0
  0
POLYLINE
  8
21
 66
1
 10
0.0000
 20
0.0000
 30
0.0000
 40
0.0000
 41
0.0000
 70
1
  0
VERTEX
  8
21
 10
13.0000
 20
31.3815
 30
0.0000
 42
1.0000
  0
VERTEX
  8
21
 10
13.0000
 20
31.5085
 30
0.0000
 42
0.4142
  0
VERTEX
  8
21
 10
8.4915
 20
27.0000
 30
0.0000
 42
1.0000
  0
VERTEX
  8
21
 10
8.6185
 20
27.0000
 30
0.0000
 42
-0.4142
  0
SEQEND
  8
0
  0
POLYLINE
  8
21
 66
1
 10
0.0000
 20
0.0000
 30
0.0000
 40
0.0000
 41
0.0000
 70
1
  0
VERTEX
  8
21
 10
13.0000
 20
30.7465
 30
0.0000
 42
1.0000
  0
VERTEX
  8
21
 10
13.0000
 20
30.8735
 30
0.0000
 42
0.4142
  0
VERTEX
  8
21
 10
9.1265
 20
27.0000
 30
0.0000
 42
1.0000
  0
VERTEX
  8
21
 10
9.2535
 20
27.0000
 30
0.0000
 42
-0.4142
  0
SEQEND
  8
0
  0
POLYLINE
  8
21
 66
1
 10
0.0000
 20
0.0000
 30
0.0000
 40
0.0000
 41
0.0000
 70
1
  0
VERTEX
  8
21
 10
13.0000
 20
30.1115
 30
0.0000
 42
1.0000
  0
VERTEX
  8
21
 10
13.0000
 20
30.2385
 30
0.0000
 42
0.4142
  0
VERTEX
  8
21
 10
9.7615
 20
27.0000
 30
0.0000
 42
1.0000
  0
VERTEX
  8
21
 10
9.8885
 20
27.0000
 30
0.0000
 42
-0.4142
  0
SEQEND
  8
0
  0
POLYLINE
  8
21
 66
1
 10
0.0000
 20
0.0000
 30
0.0000
 40
0.0000
 41
0.0000
 70
1
  0
VERTEX
  8
21
 10
13.0000
 20
29.4765
 30
0.0000
 42
1.0000
  0
VERTEX
  8
21
 10
13.0000
 20
29.6035
 30
0.0000
 42
0.4142
  0
VERTEX
  8
21
 10
10.3965
 20
27.0000
 30
0.0000
 42
1.0000
  0
VERTEX
  8
21
 10
10.5235
 20
27.0000
 30
0.0000
 42
-0.4142
  0
SEQEND
  8
0
  0
POLYLINE
  8
21
 66
1
 10
0.0000
 20
0.0000
 30
0.0000
 40
0.0000
 41
0.0000
 70
1
  0
VERTEX
  8
21
 10
13.0000
 20
22.6185
 30
0.0000
 42
1.0000
  0
VERTEX
  8
21
 10
13.0000
 20
22.4915
 30
0.0000
 42
0.4142
  0
VERTEX
  8
21
 10
17.5085
 20
27.0000
 30
0.0000
 42
1.0000
  0
VERTEX
  8
21
 10
17.3815
 20
27.0000
 30
0.0000
 42
-0.4142
  0
SEQEND
  8
0
  0
POLYLINE
  8
21
 66
1
 10
0.0000
 20
0.0000
 30
0.0000
 40
0.0000
 41
0.0000
 70
1
  0
VERTEX
  8
21
 10
13.0000
 20
23.2535
 30
0.0000
 42
1.0000
  0
VERTEX
  8
21
 10
13.0000
 20
23.1265
 30
0.0000
 42
0.4142
  0
VERTEX
  8
21
 10
16.8735
 20
27.0000
 30
0.0000
 42
1.0000
  0
VERTEX
  8
21
 10
16.7465
 20
27.0000
 30
0.0000
 42
-0.4142
  0
SEQEND
  8
0
  0
POLYLINE
  8
21
 66
1
 10
0.0000
 20
0.0000
 30
0.0000
 40
0.0000
 41
0.0000
 70
1
  0
VERTEX
  8
21
 10
13.0000
 20
23.8885
 30
0.0000
 42
1.0000
  0
VERTEX
  8
21
 10
13.0000
 20
23.7615
 30
0.0000
 42
0.4142
  0
VERTEX
  8
21
 10
16.2385
 20
27.0000
 30
0.0000
 42
1.0000
  0
VERTEX
  8
21
 10
16.1115
 20
27.0000
 30
0.0000
 42
-0.4142
  0
SEQEND
  8
0
  0
POLYLINE
  8
21
 66
1
 10
0.0000
 20
0.0000
 30
0.0000
 40
0.0000
 41
0.0000
 70
1
  0
VERTEX
  8
21
 10
13.0000
 20
24.5235
 30
0.0000
 42
1.0000
  0
VERTEX
  8
21
 10
13.0000
 20
24.3965
 30
0.0000
 42
0.4142
  0
VERTEX
  8
21
 10
15.6035
 20
27.0000
 30
0.0000
 42
1.0000
  0
VERTEX
  8
21
 10
15.4765
 20
27.0000
 30
0.0000
 42
-0.4142
  0
SEQEND
  8
0
  0
POLYLINE
  8
21
 66
1
 10
0.0000
 20
0.0000
 30
0.0000
 40
0.0000
 41
0.0000
 70
1
  0
VERTEX
  8
21
 10
8.0470
 20
24.4600
 30
0.0000
  0
VERTEX
  8
21
 10
8.0470
 20
29.5400
 30
0.0000
 42
1.0000
  0
VERTEX
  8
21
 10
7.7930
 20
29.5400
 30
0.0000
  0
VERTEX
  8
21
 10
7.7930
 20
24.4600
 30
0.0000
 42
1.0000
  0
SEQEND
  8
0
  0
CIRCLE
  8
21
 10
13.0000
 20
27.0000
 30
0.0000
 40
5.0165
  0
CIRCLE
  8
21
 10
13.0000
 20
27.0000
 30
0.0000
 40
5.1435
  0
INSERT
  8
17
  2
OCTAGONP
 10
14.2700
 20
27.0000
 30
0.0000
 41
1.6764
 42
1.6764
 43
1.0000
 50
180.0000
  0
INSERT
  8
29
  2
OCTAGONP
 10
14.2700
 20
27.0000
 30
0.0000
 41
1.8796
 42
1.8796
 43
1.0000
 50
180.0000
  0
INSERT
  8
30
  2
OCTAGONP
 10
14.2700
 20
27.0000
 30
0.0000
 41
1.8796
 42
1.8796
 43
1.0000
 50
180.0000
  0
INSERT
  8
17
  2
SQUAREP
 10
11.7300
 20
27.0000
 30
0.0000
 41
1.6764
 42
1.6764
 43
1.0000
 50
180.0000
  0
INSERT
  8
29
  2
SQUAREP
 10
11.7300
 20
27.0000
 30
0.0000
 41
1.8796
 42
1.8796
 43
1.0000
 50
180.0000
  0
INSERT
  8
30
  2
SQUAREP
 10
11.7300
 20
27.0000
 30
0.0000
 41
1.8796
 42
1.8796
 43
1.0000
 50
180.0000
  0
POLYLINE
  8
25
 66
1
 10
0.0000
 20
0.0000
 30
0.0000
 40
0.0000
 41
0.0000
 70
1
  0
VERTEX
  8
25
 10
2.7393
 20
25.6792
 30
0.0000
  0
VERTEX
  8
25
 10
2.7393
 20
24.5108
 30
0.0000
 42
1.0000
  0
VERTEX
  8
25
 10
2.8409
 20
24.5108
 30
0.0000
  0
VERTEX
  8
25
 10
2.8409
 20
25.6792
 30
0.0000
 42
1.0000
  0
SEQEND
  8
0
  0
POLYLINE
  8
25
 66
1
 10
0.0000
 20
0.0000
 30
0.0000
 40
0.0000
 41
0.0000
 70
1
  0
VERTEX
  8
25
 10
2.7901
 20
24.4600
 30
0.0000
  0
VERTEX
  8
25
 10
3.3093
 20
24.4600
 30
0.0000
 42
1.0000
  0
VERTEX
  8
25
 10
3.3093
 20
24.5616
 30
0.0000
  0
VERTEX
  8
25
 10
2.7901
 20
24.5616
 30
0.0000
 42
1.0000
  0
SEQEND
  8
0
  0
POLYLINE
  8
25
 66
1
 10
0.0000
 20
0.0000
 30
0.0000
 40
0.0000
 41
0.0000
 70
1
  0
VERTEX
  8
25
 10
4.2999
 20
24.5616
 30
0.0000
  0
VERTEX
  8
25
 10
3.7807
 20
24.5616
 30
0.0000
 42
1.0000
  0
VERTEX
  8
25
 10
3.7807
 20
24.4600
 30
0.0000
  0
VERTEX
  8
25
 10
4.2999
 20
24.4600
 30
0.0000
 42
1.0000
  0
SEQEND
  8
0
  0
POLYLINE
  8
25
 66
1
 10
0.0000
 20
0.0000
 30
0.0000
 40
0.0000
 41
0.0000
 70
1
  0
VERTEX
  8
25
 10
3.8315
 20
24.5108
 30
0.0000
  0
VERTEX
  8
25
 10
3.8315
 20
25.6792
 30
0.0000
 42
1.0000
  0
VERTEX
  8
25
 10
3.7299
 20
25.6792
 30
0.0000
  0
VERTEX
  8
25
 10
3.7299
 20
24.5108
 30
0.0000
 42
1.0000
  0
SEQEND
  8
0
  0
POLYLINE
  8
25
 66
1
 10
0.0000
 20
0.0000
 30
0.0000
 40
0.0000
 41
0.0000
 70
1
  0
VERTEX
  8
25
 10
3.7807
 20
25.6284
 30
0.0000
  0
VERTEX
  8
25
 10
4.2999
 20
25.6284
 30
0.0000
 42
1.0000
  0
VERTEX
  8
25
 10
4.2999
 20
25.7300
 30
0.0000
  0
VERTEX
  8
25
 10
3.7807
 20
25.7300
 30
0.0000
 42
1.0000
  0
SEQEND
  8
0
  0
POLYLINE
  8
25
 66
1
 10
0.0000
 20
0.0000
 30
0.0000
 40
0.0000
 41
0.0000
 70
1
  0
VERTEX
  8
25
 10
3.7807
 20
25.1091
 30
0.0000
  0
VERTEX
  8
25
 10
4.1701
 20
25.1091
 30
0.0000
 42
1.0000
  0
VERTEX
  8
25
 10
4.1701
 20
25.2107
 30
0.0000
  0
VERTEX
  8
25
 10
3.7807
 20
25.2107
 30
0.0000
 42
1.0000
  0
SEQEND
  8
0
  0
POLYLINE
  8
25
 66
1
 10
0.0000
 20
0.0000
 30
0.0000
 40
0.0000
 41
0.0000
 70
1
  0
VERTEX
  8
25
 10
4.8198
 20
24.5108
 30
0.0000
  0
VERTEX
  8
25
 10
4.8198
 20
25.6792
 30
0.0000
 42
1.0000
  0
VERTEX
  8
25
 10
4.7182
 20
25.6792
 30
0.0000
  0
VERTEX
  8
25
 10
4.7182
 20
24.5108
 30
0.0000
 42
1.0000
  0
SEQEND
  8
0
  0
POLYLINE
  8
25
 66
1
 10
0.0000
 20
0.0000
 30
0.0000
 40
0.0000
 41
0.0000
 70
1
  0
VERTEX
  8
25
 10
4.7690
 20
25.6284
 30
0.0000
  0
VERTEX
  8
25
 10
5.0935
 20
25.6284
 30
0.0000
 42
1.0000
  0
VERTEX
  8
25
 10
5.0935
 20
25.7300
 30
0.0000
  0
VERTEX
  8
25
 10
4.7690
 20
25.7300
 30
0.0000
 42
1.0000
  0
SEQEND
  8
0
  0
POLYLINE
  8
25
 66
1
 10
0.0000
 20
0.0000
 30
0.0000
 40
0.0000
 41
0.0000
 70
1
  0
VERTEX
  8
25
 10
5.3673
 20
25.3546
 30
0.0000
 42
1.0000
  0
VERTEX
  8
25
 10
5.4689
 20
25.3546
 30
0.0000
 42
0.4142
  0
VERTEX
  8
25
 10
5.0935
 20
25.7300
 30
0.0000
 42
1.0000
  0
VERTEX
  8
25
 10
5.0935
 20
25.6284
 30
0.0000
 42
-0.4142
  0
SEQEND
  8
0
  0
POLYLINE
  8
25
 66
1
 10
0.0000
 20
0.0000
 30
0.0000
 40
0.0000
 41
0.0000
 70
1
  0
VERTEX
  8
25
 10
5.3673
 20
25.3546
 30
0.0000
  0
VERTEX
  8
25
 10
5.3673
 20
24.8354
 30
0.0000
 42
1.0000
  0
VERTEX
  8
25
 10
5.4689
 20
24.8354
 30
0.0000
  0
VERTEX
  8
25
 10
5.4689
 20
25.3546
 30
0.0000
 42
1.0000
  0
SEQEND
  8
0
  0
POLYLINE
  8
25
 66
1
 10
0.0000
 20
0.0000
 30
0.0000
 40
0.0000
 41
0.0000
 70
1
  0
VERTEX
  8
25
 10
5.0935
 20
24.5616
 30
0.0000
 42
1.0000
  0
VERTEX
  8
25
 10
5.0935
 20
24.4600
 30
0.0000
 42
0.4142
  0
VERTEX
  8
25
 10
5.4689
 20
24.8354
 30
0.0000
 42
1.0000
  0
VERTEX
  8
25
 10
5.3673
 20
24.8354
 30
0.0000
 42
-0.4142
  0
SEQEND
  8
0
  0
POLYLINE
  8
25
 66
1
 10
0.0000
 20
0.0000
 30
0.0000
 40
0.0000
 41
0.0000
 70
1
  0
VERTEX
  8
25
 10
5.0935
 20
24.5616
 30
0.0000
  0
VERTEX
  8
25
 10
4.7690
 20
24.5616
 30
0.0000
 42
1.0000
  0
VERTEX
  8
25
 10
4.7690
 20
24.4600
 30
0.0000
  0
VERTEX
  8
25
 10
5.0935
 20
24.4600
 30
0.0000
 42
1.0000
  0
SEQEND
  8
0
  0
POLYLINE
  8
25
 66
1
 10
0.0000
 20
0.0000
 30
0.0000
 40
0.0000
 41
0.0000
 70
1
  0
VERTEX
  8
25
 10
6.5484
 20
25.3871
 30
0.0000
 42
1.0000
  0
VERTEX
  8
25
 10
6.6500
 20
25.3871
 30
0.0000
 42
0.4142
  0
VERTEX
  8
25
 10
6.3071
 20
25.7300
 30
0.0000
 42
1.0000
  0
VERTEX
  8
25
 10
6.3071
 20
25.6284
 30
0.0000
 42
-0.4142
  0
SEQEND
  8
0
  0
POLYLINE
  8
25
 66
1
 10
0.0000
 20
0.0000
 30
0.0000
 40
0.0000
 41
0.0000
 70
1
  0
VERTEX
  8
25
 10
6.3071
 20
25.6284
 30
0.0000
 42
1.0000
  0
VERTEX
  8
25
 10
6.3071
 20
25.7300
 30
0.0000
 42
0.3252
  0
VERTEX
  8
25
 10
5.9018
 20
25.4352
 30
0.0000
 42
1.0000
  0
VERTEX
  8
25
 10
5.9984
 20
25.4039
 30
0.0000
 42
-0.3252
  0
SEQEND
  8
0
  0
POLYLINE
  8
25
 66
1
 10
0.0000
 20
0.0000
 30
0.0000
 40
0.0000
 41
0.0000
 70
1
  0
VERTEX
  8
25
 10
6.4668
 20
25.1967
 30
0.0000
 42
1.0000
  0
VERTEX
  8
25
 10
6.5369
 20
25.1231
 30
0.0000
 42
0.2053
  0
VERTEX
  8
25
 10
6.6500
 20
25.3871
 30
0.0000
 42
1.0000
  0
VERTEX
  8
25
 10
6.5484
 20
25.3871
 30
0.0000
 42
-0.2053
  0
SEQEND
  8
0
  0
POLYLINE
  8
25
 66
1
 10
0.0000
 20
0.0000
 30
0.0000
 40
0.0000
 41
0.0000
 70
1
  0
VERTEX
  8
25
 10
6.4631
 20
25.1928
 30
0.0000
  0
VERTEX
  8
25
 10
5.9114
 20
24.5437
 30
0.0000
 42
1.0000
  0
VERTEX
  8
25
 10
5.9888
 20
24.4779
 30
0.0000
  0
VERTEX
  8
25
 10
6.5405
 20
25.1270
 30
0.0000
 42
1.0000
  0
SEQEND
  8
0
  0
POLYLINE
  8
25
 66
1
 10
0.0000
 20
0.0000
 30
0.0000
 40
0.0000
 41
0.0000
 70
1
  0
VERTEX
  8
25
 10
5.9501
 20
24.4600
 30
0.0000
  0
VERTEX
  8
25
 10
6.5992
 20
24.4600
 30
0.0000
 42
1.0000
  0
VERTEX
  8
25
 10
6.5992
 20
24.5616
 30
0.0000
  0
VERTEX
  8
25
 10
5.9501
 20
24.5616
 30
0.0000
 42
1.0000
  0
SEQEND
  8
0
  0
POINT
  8
23
 10
33.2645
 20
35.4825
 30
0.0000
  0
POLYLINE
  8
21
 66
1
 10
0.0000
 20
0.0000
 30
0.0000
 40
0.0000
 41
0.0000
 70
1
  0
VERTEX
  8
21
 10
38.4207
 20
33.8315
 30
0.0000
  0
VERTEX
  8
21
 10
38.4207
 20
37.1335
 30
0.0000
 42
1.0000
  0
VERTEX
  8
21
 10
38.2683
 20
37.1335
 30
0.0000
  0
VERTEX
  8
21
 10
38.2683
 20
33.8315
 30
0.0000
 42
1.0000
  0
SEQEND
  8
0
  0
POLYLINE
  8
21
 66
1
 10
0.0000
 20
0.0000
 30
0.0000
 40
0.0000
 41
0.0000
 70
1
  0
VERTEX
  8
21
 10
38.2683
 20
37.1335
 30
0.0000
 42
1.0000
  0
VERTEX
  8
21
 10
38.4207
 20
37.1335
 30
0.0000
 42
0.4142
  0
VERTEX
  8
21
 10
37.9635
 20
37.5907
 30
0.0000
 42
1.0000
  0
VERTEX
  8
21
 10
37.9635
 20
37.4383
 30
0.0000
 42
-0.4142
  0
SEQEND
  8
0
  0
POLYLINE
  8
21
 66
1
 10
0.0000
 20
0.0000
 30
0.0000
 40
0.0000
 41
0.0000
 70
1
  0
VERTEX
  8
21
 10
28.2607
 20
33.8315
 30
0.0000
 42
1.0000
  0
VERTEX
  8
21
 10
28.1083
 20
33.8315
 30
0.0000
 42
0.4142
  0
VERTEX
  8
21
 10
28.5655
 20
33.3743
 30
0.0000
 42
1.0000
  0
VERTEX
  8
21
 10
28.5655
 20
33.5267
 30
0.0000
 42
-0.4142
  0
SEQEND
  8
0
  0
POLYLINE
  8
21
 66
1
 10
0.0000
 20
0.0000
 30
0.0000
 40
0.0000
 41
0.0000
 70
1
  0
VERTEX
  8
21
 10
37.9635
 20
33.5267
 30
0.0000
 42
1.0000
  0
VERTEX
  8
21
 10
37.9635
 20
33.3743
 30
0.0000
 42
0.4142
  0
VERTEX
  8
21
 10
38.4207
 20
33.8315
 30
0.0000
 42
1.0000
  0
VERTEX
  8
21
 10
38.2683
 20
33.8315
 30
0.0000
 42
-0.4142
  0
SEQEND
  8
0
  0
POLYLINE
  8
21
 66
1
 10
0.0000
 20
0.0000
 30
0.0000
 40
0.0000
 41
0.0000
 70
1
  0
VERTEX
  8
21
 10
28.5655
 20
37.4383
 30
0.0000
 42
1.0000
  0
VERTEX
  8
21
 10
28.5655
 20
37.5907
 30
0.0000
 42
0.4142
  0
VERTEX
  8
21
 10
28.1083
 20
37.1335
 30
0.0000
 42
1.0000
  0
VERTEX
  8
21
 10
28.2607
 20
37.1335
 30
0.0000
 42
-0.4142
  0
SEQEND
  8
0
  0
POLYLINE
  8
21
 66
1
 10
0.0000
 20
0.0000
 30
0.0000
 40
0.0000
 41
0.0000
 70
1
  0
VERTEX
  8
21
 10
37.9635
 20
37.5907
 30
0.0000
  0
VERTEX
  8
21
 10
37.3285
 20
37.5907
 30
0.0000
 42
1.0000
  0
VERTEX
  8
21
 10
37.3285
 20
37.4383
 30
0.0000
  0
VERTEX
  8
21
 10
37.9635
 20
37.4383
 30
0.0000
 42
1.0000
  0
SEQEND
  8
0
  0
POLYLINE
  8
21
 66
1
 10
0.0000
 20
0.0000
 30
0.0000
 40
0.0000
 41
0.0000
 70
1
  0
VERTEX
  8
21
 10
37.2554
 20
37.3336
 30
0.0000
  0
VERTEX
  8
21
 10
37.3824
 20
37.4606
 30
0.0000
 42
1.0000
  0
VERTEX
  8
21
 10
37.2746
 20
37.5684
 30
0.0000
  0
VERTEX
  8
21
 10
37.1476
 20
37.4414
 30
0.0000
 42
1.0000
  0
SEQEND
  8
0
  0
POLYLINE
  8
21
 66
1
 10
0.0000
 20
0.0000
 30
0.0000
 40
0.0000
 41
0.0000
 70
1
  0
VERTEX
  8
21
 10
37.9635
 20
33.5267
 30
0.0000
  0
VERTEX
  8
21
 10
37.3285
 20
33.5267
 30
0.0000
 42
1.0000
  0
VERTEX
  8
21
 10
37.3285
 20
33.3743
 30
0.0000
  0
VERTEX
  8
21
 10
37.9635
 20
33.3743
 30
0.0000
 42
1.0000
  0
SEQEND
  8
0
  0
POLYLINE
  8
21
 66
1
 10
0.0000
 20
0.0000
 30
0.0000
 40
0.0000
 41
0.0000
 70
1
  0
VERTEX
  8
21
 10
37.1476
 20
33.5236
 30
0.0000
  0
VERTEX
  8
21
 10
37.2746
 20
33.3966
 30
0.0000
 42
1.0000
  0
VERTEX
  8
21
 10
37.3824
 20
33.5044
 30
0.0000
  0
VERTEX
  8
21
 10
37.2554
 20
33.6314
 30
0.0000
 42
1.0000
  0
SEQEND
  8
0
  0
POLYLINE
  8
21
 66
1
 10
0.0000
 20
0.0000
 30
0.0000
 40
0.0000
 41
0.0000
 70
1
  0
VERTEX
  8
21
 10
29.3814
 20
37.4414
 30
0.0000
  0
VERTEX
  8
21
 10
29.2544
 20
37.5684
 30
0.0000
 42
1.0000
  0
VERTEX
  8
21
 10
29.1466
 20
37.4606
 30
0.0000
  0
VERTEX
  8
21
 10
29.2736
 20
37.3336
 30
0.0000
 42
1.0000
  0
SEQEND
  8
0
  0
POLYLINE
  8
21
 66
1
 10
0.0000
 20
0.0000
 30
0.0000
 40
0.0000
 41
0.0000
 70
1
  0
VERTEX
  8
21
 10
29.3275
 20
37.3113
 30
0.0000
  0
VERTEX
  8
21
 10
37.2015
 20
37.3113
 30
0.0000
 42
1.0000
  0
VERTEX
  8
21
 10
37.2015
 20
37.4637
 30
0.0000
  0
VERTEX
  8
21
 10
29.3275
 20
37.4637
 30
0.0000
 42
1.0000
  0
SEQEND
  8
0
  0
POLYLINE
  8
21
 66
1
 10
0.0000
 20
0.0000
 30
0.0000
 40
0.0000
 41
0.0000
 70
1
  0
VERTEX
  8
21
 10
29.2736
 20
33.6314
 30
0.0000
  0
VERTEX
  8
21
 10
29.1466
 20
33.5044
 30
0.0000
 42
1.0000
  0
VERTEX
  8
21
 10
29.2544
 20
33.3966
 30
0.0000
  0
VERTEX
  8
21
 10
29.3814
 20
33.5236
 30
0.0000
 42
1.0000
  0
SEQEND
  8
0
  0
POLYLINE
  8
21
 66
1
 10
0.0000
 20
0.0000
 30
0.0000
 40
0.0000
 41
0.0000
 70
1
  0
VERTEX
  8
21
 10
29.3275
 20
33.5013
 30
0.0000
  0
VERTEX
  8
21
 10
37.2015
 20
33.5013
 30
0.0000
 42
1.0000
  0
VERTEX
  8
21
 10
37.2015
 20
33.6537
 30
0.0000
  0
VERTEX
  8
21
 10
29.3275
 20
33.6537
 30
0.0000
 42
1.0000
  0
SEQEND
  8
0
  0
POLYLINE
  8
21
 66
1
 10
0.0000
 20
0.0000
 30
0.0000
 40
0.0000
 41
0.0000
 70
1
  0
VERTEX
  8
21
 10
28.1083
 20
37.1335
 30
0.0000
  0
VERTEX
  8
21
 10
28.1083
 20
33.8315
 30
0.0000
 42
1.0000
  0
VERTEX
  8
21
 10
28.2607
 20
33.8315
 30
0.0000
  0
VERTEX
  8
21
 10
28.2607
 20
37.1335
 30
0.0000
 42
1.0000
  0
SEQEND
  8
0
  0
POLYLINE
  8
21
 66
1
 10
0.0000
 20
0.0000
 30
0.0000
 40
0.0000
 41
0.0000
 70
1
  0
VERTEX
  8
21
 10
28.5655
 20
37.4383
 30
0.0000
  0
VERTEX
  8
21
 10
29.2005
 20
37.4383
 30
0.0000
 42
1.0000
  0
VERTEX
  8
21
 10
29.2005
 20
37.5907
 30
0.0000
  0
VERTEX
  8
21
 10
28.5655
 20
37.5907
 30
0.0000
 42
1.0000
  0
SEQEND
  8
0
  0
POLYLINE
  8
21
 66
1
 10
0.0000
 20
0.0000
 30
0.0000
 40
0.0000
 41
0.0000
 70
1
  0
VERTEX
  8
21
 10
28.5655
 20
33.3743
 30
0.0000
  0
VERTEX
  8
21
 10
29.2005
 20
33.3743
 30
0.0000
 42
1.0000
  0
VERTEX
  8
21
 10
29.2005
 20
33.5267
 30
0.0000
  0
VERTEX
  8
21
 10
28.5655
 20
33.5267
 30
0.0000
 42
1.0000
  0
SEQEND
  8
0
  0
INSERT
  8
21
  2
RECT
 10
28.0448
 20
35.4825
 30
0.0000
 41
0.2794
 42
0.7620
 43
1.0000
 50
0.0000
  0
INSERT
  8
21
  2
RECT
 10
38.4842
 20
35.4825
 30
0.0000
 41
0.2794
 42
0.7620
 43
1.0000
 50
0.0000
  0
INSERT
  8
17
  2
OCTAGONP
 10
26.9145
 20
35.4825
 30
0.0000
 41
1.4224
 42
1.4224
 43
1.0000
 50
0.0000
  0
INSERT
  8
29
  2
OCTAGONP
 10
26.9145
 20
35.4825
 30
0.0000
 41
1.6256
 42
1.6256
 43
1.0000
 50
0.0000
  0
INSERT
  8
30
  2
OCTAGONP
 10
26.9145
 20
35.4825
 30
0.0000
 41
1.6256
 42
1.6256
 43
1.0000
 50
0.0000
  0
INSERT
  8
17
  2
OCTAGONP
 10
39.6145
 20
35.4825
 30
0.0000
 41
1.4224
 42
1.4224
 43
1.0000
 50
0.0000
  0
INSERT
  8
29
  2
OCTAGONP
 10
39.6145
 20
35.4825
 30
0.0000
 41
1.6256
 42
1.6256
 43
1.0000
 50
0.0000
  0
INSERT
  8
30
  2
OCTAGONP
 10
39.6145
 20
35.4825
 30
0.0000
 41
1.6256
 42
1.6256
 43
1.0000
 50
0.0000
  0
POLYLINE
  8
25
 66
1
 10
0.0000
 20
0.0000
 30
0.0000
 40
0.0000
 41
0.0000
 70
1
  0
VERTEX
  8
25
 10
32.0787
 20
36.5366
 30
0.0000
  0
VERTEX
  8
25
 10
32.0787
 20
37.3604
 30
0.0000
 42
1.0000
  0
VERTEX
  8
25
 10
32.0025
 20
37.3604
 30
0.0000
  0
VERTEX
  8
25
 10
32.0025
 20
36.5366
 30
0.0000
 42
1.0000
  0
SEQEND
  8
0
  0
POLYLINE
  8
25
 66
1
 10
0.0000
 20
0.0000
 30
0.0000
 40
0.0000
 41
0.0000
 70
1
  0
VERTEX
  8
25
 10
32.0406
 20
37.3223
 30
0.0000
  0
VERTEX
  8
25
 10
32.2694
 20
37.3223
 30
0.0000
 42
1.0000
  0
VERTEX
  8
25
 10
32.2694
 20
37.3985
 30
0.0000
  0
VERTEX
  8
25
 10
32.0406
 20
37.3985
 30
0.0000
 42
1.0000
  0
SEQEND
  8
0
  0
POLYLINE
  8
25
 66
1
 10
0.0000
 20
0.0000
 30
0.0000
 40
0.0000
 41
0.0000
 70
1
  0
VERTEX
  8
25
 10
32.2694
 20
36.9408
 30
0.0000
 42
1.0000
  0
VERTEX
  8
25
 10
32.2694
 20
36.8646
 30
0.0000
 42
1.0000
  0
VERTEX
  8
25
 10
32.2694
 20
37.3985
 30
0.0000
 42
1.0000
  0
VERTEX
  8
25
 10
32.2694
 20
37.3223
 30
0.0000
 42
-1.0000
  0
SEQEND
  8
0
  0
POLYLINE
  8
25
 66
1
 10
0.0000
 20
0.0000
 30
0.0000
 40
0.0000
 41
0.0000
 70
1
  0
VERTEX
  8
25
 10
32.2694
 20
36.9408
 30
0.0000
  0
VERTEX
  8
25
 10
32.0406
 20
36.9408
 30
0.0000
 42
1.0000
  0
VERTEX
  8
25
 10
32.0406
 20
36.8646
 30
0.0000
  0
VERTEX
  8
25
 10
32.2694
 20
36.8646
 30
0.0000
 42
1.0000
  0
SEQEND
  8
0
  0
POLYLINE
  8
25
 66
1
 10
0.0000
 20
0.0000
 30
0.0000
 40
0.0000
 41
0.0000
 70
1
  0
VERTEX
  8
25
 10
32.5323
 20
36.5536
 30
0.0000
  0
VERTEX
  8
25
 10
32.3493
 20
36.9198
 30
0.0000
 42
1.0000
  0
VERTEX
  8
25
 10
32.2811
 20
36.8857
 30
0.0000
  0
VERTEX
  8
25
 10
32.4642
 20
36.5196
 30
0.0000
 42
1.0000
  0
SEQEND
  8
0
  0
POLYLINE
  8
25
 66
1
 10
0.0000
 20
0.0000
 30
0.0000
 40
0.0000
 41
0.0000
 70
1
  0
VERTEX
  8
25
 10
32.8690
 20
37.1476
 30
0.0000
  0
VERTEX
  8
25
 10
33.0979
 20
37.3306
 30
0.0000
 42
1.0000
  0
VERTEX
  8
25
 10
33.0503
 20
37.3902
 30
0.0000
  0
VERTEX
  8
25
 10
32.8214
 20
37.2071
 30
0.0000
 42
1.0000
  0
SEQEND
  8
0
  0
POLYLINE
  8
25
 66
1
 10
0.0000
 20
0.0000
 30
0.0000
 40
0.0000
 41
0.0000
 70
1
  0
VERTEX
  8
25
 10
33.0360
 20
37.3604
 30
0.0000
  0
VERTEX
  8
25
 10
33.0360
 20
36.5366
 30
0.0000
 42
1.0000
  0
VERTEX
  8
25
 10
33.1122
 20
36.5366
 30
0.0000
  0
VERTEX
  8
25
 10
33.1122
 20
37.3604
 30
0.0000
 42
1.0000
  0
SEQEND
  8
0
  0
POLYLINE
  8
25
 66
1
 10
0.0000
 20
0.0000
 30
0.0000
 40
0.0000
 41
0.0000
 70
1
  0
VERTEX
  8
25
 10
32.8452
 20
36.4985
 30
0.0000
  0
VERTEX
  8
25
 10
33.3029
 20
36.4985
 30
0.0000
 42
1.0000
  0
VERTEX
  8
25
 10
33.3029
 20
36.5747
 30
0.0000
  0
VERTEX
  8
25
 10
32.8452
 20
36.5747
 30
0.0000
 42
1.0000
  0
SEQEND
  8
0
  0
POLYLINE
  8
27
 66
1
 10
0.0000
 20
0.0000
 30
0.0000
 40
0.0000
 41
0.0000
 70
1
  0
VERTEX
  8
27
 10
31.7641
 20
35.4297
 30
0.0000
  0
VERTEX
  8
27
 10
31.5045
 20
34.5209
 30
0.0000
 42
1.0000
  0
VERTEX
  8
27
 10
31.6021
 20
34.4930
 30
0.0000
  0
VERTEX
  8
27
 10
31.8618
 20
35.4017
 30
0.0000
 42
1.0000
  0
SEQEND
  8
0
  0
POLYLINE
  8
27
 66
1
 10
0.0000
 20
0.0000
 30
0.0000
 40
0.0000
 41
0.0000
 70
1
  0
VERTEX
  8
27
 10
31.5533
 20
34.4561
 30
0.0000
  0
VERTEX
  8
27
 10
32.2024
 20
34.4561
 30
0.0000
 42
1.0000
  0
VERTEX
  8
27
 10
32.2024
 20
34.5577
 30
0.0000
  0
VERTEX
  8
27
 10
31.5533
 20
34.5577
 30
0.0000
 42
1.0000
  0
SEQEND
  8
0
  0
POLYLINE
  8
27
 66
1
 10
0.0000
 20
0.0000
 30
0.0000
 40
0.0000
 41
0.0000
 70
1
  0
VERTEX
  8
27
 10
31.9569
 20
34.7666
 30
0.0000
  0
VERTEX
  8
27
 10
31.9569
 20
34.2473
 30
0.0000
 42
1.0000
  0
VERTEX
  8
27
 10
32.0585
 20
34.2473
 30
0.0000
  0
VERTEX
  8
27
 10
32.0585
 20
34.7666
 30
0.0000
 42
1.0000
  0
SEQEND
  8
0
  0
POLYLINE
  8
27
 66
1
 10
0.0000
 20
0.0000
 30
0.0000
 40
0.0000
 41
0.0000
 70
1
  0
VERTEX
  8
27
 10
32.7471
 20
35.2859
 30
0.0000
  0
VERTEX
  8
27
 10
32.7471
 20
35.4157
 30
0.0000
 42
1.0000
  0
VERTEX
  8
27
 10
32.6455
 20
35.4157
 30
0.0000
  0
VERTEX
  8
27
 10
32.6455
 20
35.2859
 30
0.0000
 42
1.0000
  0
SEQEND
  8
0
  0
POLYLINE
  8
27
 66
1
 10
0.0000
 20
0.0000
 30
0.0000
 40
0.0000
 41
0.0000
 70
1
  0
VERTEX
  8
27
 10
32.6963
 20
35.3649
 30
0.0000
  0
VERTEX
  8
27
 10
33.3454
 20
35.3649
 30
0.0000
 42
1.0000
  0
VERTEX
  8
27
 10
33.3454
 20
35.4665
 30
0.0000
  0
VERTEX
  8
27
 10
32.6963
 20
35.4665
 30
0.0000
 42
1.0000
  0
SEQEND
  8
0
  0
POLYLINE
  8
27
 66
1
 10
0.0000
 20
0.0000
 30
0.0000
 40
0.0000
 41
0.0000
 70
1
  0
VERTEX
  8
27
 10
33.2965
 20
35.4293
 30
0.0000
  0
VERTEX
  8
27
 10
32.9719
 20
34.2609
 30
0.0000
 42
1.0000
  0
VERTEX
  8
27
 10
33.0698
 20
34.2337
 30
0.0000
  0
VERTEX
  8
27
 10
33.3944
 20
35.4021
 30
0.0000
 42
1.0000
  0
SEQEND
  8
0
  0
POLYLINE
  8
27
 66
1
 10
0.0000
 20
0.0000
 30
0.0000
 40
0.0000
 41
0.0000
 70
1
  0
VERTEX
  8
27
 10
33.9823
 20
35.2312
 30
0.0000
 42
1.0000
  0
VERTEX
  8
27
 10
33.8910
 20
35.2757
 30
0.0000
 42
0.1139
  0
VERTEX
  8
27
 10
33.7885
 20
34.8315
 30
0.0000
 42
1.0000
  0
VERTEX
  8
27
 10
33.8901
 20
34.8315
 30
0.0000
 42
-0.1139
  0
SEQEND
  8
0
  0
POLYLINE
  8
27
 66
1
 10
0.0000
 20
0.0000
 30
0.0000
 40
0.0000
 41
0.0000
 70
1
  0
VERTEX
  8
27
 10
34.1638
 20
35.3649
 30
0.0000
 42
1.0000
  0
VERTEX
  8
27
 10
34.1638
 20
35.4665
 30
0.0000
 42
0.3205
  0
VERTEX
  8
27
 10
33.8886
 20
35.2699
 30
0.0000
 42
1.0000
  0
VERTEX
  8
27
 10
33.9847
 20
35.2369
 30
0.0000
 42
-0.3205
  0
SEQEND
  8
0
  0
POLYLINE
  8
27
 66
1
 10
0.0000
 20
0.0000
 30
0.0000
 40
0.0000
 41
0.0000
 70
1
  0
VERTEX
  8
27
 10
34.3430
 20
35.2369
 30
0.0000
 42
1.0000
  0
VERTEX
  8
27
 10
34.4391
 20
35.2699
 30
0.0000
 42
0.3205
  0
VERTEX
  8
27
 10
34.1638
 20
35.4665
 30
0.0000
 42
1.0000
  0
VERTEX
  8
27
 10
34.1638
 20
35.3649
 30
0.0000
 42
-0.3205
  0
SEQEND
  8
0
  0
POLYLINE
  8
27
 66
1
 10
0.0000
 20
0.0000
 30
0.0000
 40
0.0000
 41
0.0000
 70
1
  0
VERTEX
  8
27
 10
34.4376
 20
34.8315
 30
0.0000
 42
1.0000
  0
VERTEX
  8
27
 10
34.5392
 20
34.8315
 30
0.0000
 42
0.1139
  0
VERTEX
  8
27
 10
34.4367
 20
35.2757
 30
0.0000
 42
1.0000
  0
VERTEX
  8
27
 10
34.3454
 20
35.2312
 30
0.0000
 42
-0.1139
  0
SEQEND
  8
0
  0
POLYLINE
  8
27
 66
1
 10
0.0000
 20
0.0000
 30
0.0000
 40
0.0000
 41
0.0000
 70
1
  0
VERTEX
  8
27
 10
33.8901
 20
34.8315
 30
0.0000
 42
1.0000
  0
VERTEX
  8
27
 10
33.7885
 20
34.8315
 30
0.0000
 42
0.1139
  0
VERTEX
  8
27
 10
33.8910
 20
34.3873
 30
0.0000
 42
1.0000
  0
VERTEX
  8
27
 10
33.9823
 20
34.4318
 30
0.0000
 42
-0.1139
  0
SEQEND
  8
0
  0
POLYLINE
  8
27
 66
1
 10
0.0000
 20
0.0000
 30
0.0000
 40
0.0000
 41
0.0000
 70
1
  0
VERTEX
  8
27
 10
33.9847
 20
34.4261
 30
0.0000
 42
1.0000
  0
VERTEX
  8
27
 10
33.8886
 20
34.3931
 30
0.0000
 42
0.3205
  0
VERTEX
  8
27
 10
34.1638
 20
34.1965
 30
0.0000
 42
1.0000
  0
VERTEX
  8
27
 10
34.1638
 20
34.2981
 30
0.0000
 42
-0.3205
  0
SEQEND
  8
0
  0
POLYLINE
  8
27
 66
1
 10
0.0000
 20
0.0000
 30
0.0000
 40
0.0000
 41
0.0000
 70
1
  0
VERTEX
  8
27
 10
34.3454
 20
34.4318
 30
0.0000
 42
1.0000
  0
VERTEX
  8
27
 10
34.4367
 20
34.3873
 30
0.0000
 42
0.1139
  0
VERTEX
  8
27
 10
34.5392
 20
34.8315
 30
0.0000
 42
1.0000
  0
VERTEX
  8
27
 10
34.4376
 20
34.8315
 30
0.0000
 42
-0.1139
  0
SEQEND
  8
0
  0
POLYLINE
  8
27
 66
1
 10
0.0000
 20
0.0000
 30
0.0000
 40
0.0000
 41
0.0000
 70
1
  0
VERTEX
  8
27
 10
34.1638
 20
34.2981
 30
0.0000
 42
1.0000
  0
VERTEX
  8
27
 10
34.1638
 20
34.1965
 30
0.0000
 42
0.3205
  0
VERTEX
  8
27
 10
34.4391
 20
34.3931
 30
0.0000
 42
1.0000
  0
VERTEX
  8
27
 10
34.3430
 20
34.4261
 30
0.0000
 42
-0.3205
  0
SEQEND
  8
0
  0
POLYLINE
  8
27
 66
1
 10
0.0000
 20
0.0000
 30
0.0000
 40
0.0000
 41
0.0000
 70
1
  0
VERTEX
  8
27
 10
33.9439
 20
34.4752
 30
0.0000
  0
VERTEX
  8
27
 10
34.4632
 20
35.1243
 30
0.0000
 42
1.0000
  0
VERTEX
  8
27
 10
34.3838
 20
35.1878
 30
0.0000
  0
VERTEX
  8
27
 10
33.8645
 20
34.5387
 30
0.0000
 42
1.0000
  0
SEQEND
  8
0
  0
POINT
  8
23
 10
40.2645
 20
27.4825
 30
0.0000
  0
POLYLINE
  8
21
 66
1
 10
0.0000
 20
0.0000
 30
0.0000
 40
0.0000
 41
0.0000
 70
1
  0
VERTEX
  8
21
 10
45.4207
 20
25.8315
 30
0.0000
  0
VERTEX
  8
21
 10
45.4207
 20
29.1335
 30
0.0000
 42
1.0000
  0
VERTEX
  8
21
 10
45.2683
 20
29.1335
 30
0.0000
  0
VERTEX
  8
21
 10
45.2683
 20
25.8315
 30
0.0000
 42
1.0000
  0
SEQEND
  8
0
  0
POLYLINE
  8
21
 66
1
 10
0.0000
 20
0.0000
 30
0.0000
 40
0.0000
 41
0.0000
 70
1
  0
VERTEX
  8
21
 10
45.2683
 20
29.1335
 30
0.0000
 42
1.0000
  0
VERTEX
  8
21
 10
45.4207
 20
29.1335
 30
0.0000
 42
0.4142
  0
VERTEX
  8
21
 10
44.9635
 20
29.5907
 30
0.0000
 42
1.0000
  0
VERTEX
  8
21
 10
44.9635
 20
29.4383
 30
0.0000
 42
-0.4142
  0
SEQEND
  8
0
  0
POLYLINE
  8
21
 66
1
 10
0.0000
 20
0.0000
 30
0.0000
 40
0.0000
 41
0.0000
 70
1
  0
VERTEX
  8
21
 10
35.2607
 20
25.8315
 30
0.0000
 42
1.0000
  0
VERTEX
  8
21
 10
35.1083
 20
25.8315
 30
0.0000
 42
0.4142
  0
VERTEX
  8
21
 10
35.5655
 20
25.3743
 30
0.0000
 42
1.0000
  0
VERTEX
  8
21
 10
35.5655
 20
25.5267
 30
0.0000
 42
-0.4142
  0
SEQEND
  8
0
  0
POLYLINE
  8
21
 66
1
 10
0.0000
 20
0.0000
 30
0.0000
 40
0.0000
 41
0.0000
 70
1
  0
VERTEX
  8
21
 10
44.9635
 20
25.5267
 30
0.0000
 42
1.0000
  0
VERTEX
  8
21
 10
44.9635
 20
25.3743
 30
0.0000
 42
0.4142
  0
VERTEX
  8
21
 10
45.4207
 20
25.8315
 30
0.0000
 42
1.0000
  0
VERTEX
  8
21
 10
45.2683
 20
25.8315
 30
0.0000
 42
-0.4142
  0
SEQEND
  8
0
  0
POLYLINE
  8
21
 66
1
 10
0.0000
 20
0.0000
 30
0.0000
 40
0.0000
 41
0.0000
 70
1
  0
VERTEX
  8
21
 10
35.5655
 20
29.4383
 30
0.0000
 42
1.0000
  0
VERTEX
  8
21
 10
35.5655
 20
29.5907
 30
0.0000
 42
0.4142
  0
VERTEX
  8
21
 10
35.1083
 20
29.1335
 30
0.0000
 42
1.0000
  0
VERTEX
  8
21
 10
35.2607
 20
29.1335
 30
0.0000
 42
-0.4142
  0
SEQEND
  8
0
  0
POLYLINE
  8
21
 66
1
 10
0.0000
 20
0.0000
 30
0.0000
 40
0.0000
 41
0.0000
 70
1
  0
VERTEX
  8
21
 10
44.9635
 20
29.5907
 30
0.0000
  0
VERTEX
  8
21
 10
44.3285
 20
29.5907
 30
0.0000
 42
1.0000
  0
VERTEX
  8
21
 10
44.3285
 20
29.4383
 30
0.0000
  0
VERTEX
  8
21
 10
44.9635
 20
29.4383
 30
0.0000
 42
1.0000
  0
SEQEND
  8
0
  0
POLYLINE
  8
21
 66
1
 10
0.0000
 20
0.0000
 30
0.0000
 40
0.0000
 41
0.0000
 70
1
  0
VERTEX
  8
21
 10
44.2554
 20
29.3336
 30
0.0000
  0
VERTEX
  8
21
 10
44.3824
 20
29.4606
 30
0.0000
 42
1.0000
  0
VERTEX
  8
21
 10
44.2746
 20
29.5684
 30
0.0000
  0
VERTEX
  8
21
 10
44.1476
 20
29.4414
 30
0.0000
 42
1.0000
  0
SEQEND
  8
0
  0
POLYLINE
  8
21
 66
1
 10
0.0000
 20
0.0000
 30
0.0000
 40
0.0000
 41
0.0000
 70
1
  0
VERTEX
  8
21
 10
44.9635
 20
25.5267
 30
0.0000
  0
VERTEX
  8
21
 10
44.3285
 20
25.5267
 30
0.0000
 42
1.0000
  0
VERTEX
  8
21
 10
44.3285
 20
25.3743
 30
0.0000
  0
VERTEX
  8
21
 10
44.9635
 20
25.3743
 30
0.0000
 42
1.0000
  0
SEQEND
  8
0
  0
POLYLINE
  8
21
 66
1
 10
0.0000
 20
0.0000
 30
0.0000
 40
0.0000
 41
0.0000
 70
1
  0
VERTEX
  8
21
 10
44.1476
 20
25.5236
 30
0.0000
  0
VERTEX
  8
21
 10
44.2746
 20
25.3966
 30
0.0000
 42
1.0000
  0
VERTEX
  8
21
 10
44.3824
 20
25.5044
 30
0.0000
  0
VERTEX
  8
21
 10
44.2554
 20
25.6314
 30
0.0000
 42
1.0000
  0
SEQEND
  8
0
  0
POLYLINE
  8
21
 66
1
 10
0.0000
 20
0.0000
 30
0.0000
 40
0.0000
 41
0.0000
 70
1
  0
VERTEX
  8
21
 10
36.3814
 20
29.4414
 30
0.0000
  0
VERTEX
  8
21
 10
36.2544
 20
29.5684
 30
0.0000
 42
1.0000
  0
VERTEX
  8
21
 10
36.1466
 20
29.4606
 30
0.0000
  0
VERTEX
  8
21
 10
36.2736
 20
29.3336
 30
0.0000
 42
1.0000
  0
SEQEND
  8
0
  0
POLYLINE
  8
21
 66
1
 10
0.0000
 20
0.0000
 30
0.0000
 40
0.0000
 41
0.0000
 70
1
  0
VERTEX
  8
21
 10
36.3275
 20
29.3113
 30
0.0000
  0
VERTEX
  8
21
 10
44.2015
 20
29.3113
 30
0.0000
 42
1.0000
  0
VERTEX
  8
21
 10
44.2015
 20
29.4637
 30
0.0000
  0
VERTEX
  8
21
 10
36.3275
 20
29.4637
 30
0.0000
 42
1.0000
  0
SEQEND
  8
0
  0
POLYLINE
  8
21
 66
1
 10
0.0000
 20
0.0000
 30
0.0000
 40
0.0000
 41
0.0000
 70
1
  0
VERTEX
  8
21
 10
36.2736
 20
25.6314
 30
0.0000
  0
VERTEX
  8
21
 10
36.1466
 20
25.5044
 30
0.0000
 42
1.0000
  0
VERTEX
  8
21
 10
36.2544
 20
25.3966
 30
0.0000
  0
VERTEX
  8
21
 10
36.3814
 20
25.5236
 30
0.0000
 42
1.0000
  0
SEQEND
  8
0
  0
POLYLINE
  8
21
 66
1
 10
0.0000
 20
0.0000
 30
0.0000
 40
0.0000
 41
0.0000
 70
1
  0
VERTEX
  8
21
 10
36.3275
 20
25.5013
 30
0.0000
  0
VERTEX
  8
21
 10
44.2015
 20
25.5013
 30
0.0000
 42
1.0000
  0
VERTEX
  8
21
 10
44.2015
 20
25.6537
 30
0.0000
  0
VERTEX
  8
21
 10
36.3275
 20
25.6537
 30
0.0000
 42
1.0000
  0
SEQEND
  8
0
  0
POLYLINE
  8
21
 66
1
 10
0.0000
 20
0.0000
 30
0.0000
 40
0.0000
 41
0.0000
 70
1
  0
VERTEX
  8
21
 10
35.1083
 20
29.1335
 30
0.0000
  0
VERTEX
  8
21
 10
35.1083
 20
25.8315
 30
0.0000
 42
1.0000
  0
VERTEX
  8
21
 10
35.2607
 20
25.8315
 30
0.0000
  0
VERTEX
  8
21
 10
35.2607
 20
29.1335
 30
0.0000
 42
1.0000
  0
SEQEND
  8
0
  0
POLYLINE
  8
21
 66
1
 10
0.0000
 20
0.0000
 30
0.0000
 40
0.0000
 41
0.0000
 70
1
  0
VERTEX
  8
21
 10
35.5655
 20
29.4383
 30
0.0000
  0
VERTEX
  8
21
 10
36.2005
 20
29.4383
 30
0.0000
 42
1.0000
  0
VERTEX
  8
21
 10
36.2005
 20
29.5907
 30
0.0000
  0
VERTEX
  8
21
 10
35.5655
 20
29.5907
 30
0.0000
 42
1.0000
  0
SEQEND
  8
0
  0
POLYLINE
  8
21
 66
1
 10
0.0000
 20
0.0000
 30
0.0000
 40
0.0000
 41
0.0000
 70
1
  0
VERTEX
  8
21
 10
35.5655
 20
25.3743
 30
0.0000
  0
VERTEX
  8
21
 10
36.2005
 20
25.3743
 30
0.0000
 42
1.0000
  0
VERTEX
  8
21
 10
36.2005
 20
25.5267
 30
0.0000
  0
VERTEX
  8
21
 10
35.5655
 20
25.5267
 30
0.0000
 42
1.0000
  0
SEQEND
  8
0
  0
INSERT
  8
21
  2
RECT
 10
35.0448
 20
27.4825
 30
0.0000
 41
0.2794
 42
0.7620
 43
1.0000
 50
0.0000
  0
INSERT
  8
21
  2
RECT
 10
45.4842
 20
27.4825
 30
0.0000
 41
0.2794
 42
0.7620
 43
1.0000
 50
0.0000
  0
INSERT
  8
17
  2
OCTAGONP
 10
33.9145
 20
27.4825
 30
0.0000
 41
1.4224
 42
1.4224
 43
1.0000
 50
0.0000
  0
INSERT
  8
29
  2
OCTAGONP
 10
33.9145
 20
27.4825
 30
0.0000
 41
1.6256
 42
1.6256
 43
1.0000
 50
0.0000
  0
INSERT
  8
30
  2
OCTAGONP
 10
33.9145
 20
27.4825
 30
0.0000
 41
1.6256
 42
1.6256
 43
1.0000
 50
0.0000
  0
INSERT
  8
17
  2
OCTAGONP
 10
46.6145
 20
27.4825
 30
0.0000
 41
1.4224
 42
1.4224
 43
1.0000
 50
0.0000
  0
INSERT
  8
29
  2
OCTAGONP
 10
46.6145
 20
27.4825
 30
0.0000
 41
1.6256
 42
1.6256
 43
1.0000
 50
0.0000
  0
INSERT
  8
30
  2
OCTAGONP
 10
46.6145
 20
27.4825
 30
0.0000
 41
1.6256
 42
1.6256
 43
1.0000
 50
0.0000
  0
POLYLINE
  8
25
 66
1
 10
0.0000
 20
0.0000
 30
0.0000
 40
0.0000
 41
0.0000
 70
1
  0
VERTEX
  8
25
 10
39.0787
 20
28.5366
 30
0.0000
  0
VERTEX
  8
25
 10
39.0787
 20
29.3604
 30
0.0000
 42
1.0000
  0
VERTEX
  8
25
 10
39.0025
 20
29.3604
 30
0.0000
  0
VERTEX
  8
25
 10
39.0025
 20
28.5366
 30
0.0000
 42
1.0000
  0
SEQEND
  8
0
  0
POLYLINE
  8
25
 66
1
 10
0.0000
 20
0.0000
 30
0.0000
 40
0.0000
 41
0.0000
 70
1
  0
VERTEX
  8
25
 10
39.0406
 20
29.3223
 30
0.0000
  0
VERTEX
  8
25
 10
39.2694
 20
29.3223
 30
0.0000
 42
1.0000
  0
VERTEX
  8
25
 10
39.2694
 20
29.3985
 30
0.0000
  0
VERTEX
  8
25
 10
39.0406
 20
29.3985
 30
0.0000
 42
1.0000
  0
SEQEND
  8
0
  0
POLYLINE
  8
25
 66
1
 10
0.0000
 20
0.0000
 30
0.0000
 40
0.0000
 41
0.0000
 70
1
  0
VERTEX
  8
25
 10
39.2694
 20
28.9408
 30
0.0000
 42
1.0000
  0
VERTEX
  8
25
 10
39.2694
 20
28.8646
 30
0.0000
 42
1.0000
  0
VERTEX
  8
25
 10
39.2694
 20
29.3985
 30
0.0000
 42
1.0000
  0
VERTEX
  8
25
 10
39.2694
 20
29.3223
 30
0.0000
 42
-1.0000
  0
SEQEND
  8
0
  0
POLYLINE
  8
25
 66
1
 10
0.0000
 20
0.0000
 30
0.0000
 40
0.0000
 41
0.0000
 70
1
  0
VERTEX
  8
25
 10
39.2694
 20
28.9408
 30
0.0000
  0
VERTEX
  8
25
 10
39.0406
 20
28.9408
 30
0.0000
 42
1.0000
  0
VERTEX
  8
25
 10
39.0406
 20
28.8646
 30
0.0000
  0
VERTEX
  8
25
 10
39.2694
 20
28.8646
 30
0.0000
 42
1.0000
  0
SEQEND
  8
0
  0
POLYLINE
  8
25
 66
1
 10
0.0000
 20
0.0000
 30
0.0000
 40
0.0000
 41
0.0000
 70
1
  0
VERTEX
  8
25
 10
39.5323
 20
28.5536
 30
0.0000
  0
VERTEX
  8
25
 10
39.3493
 20
28.9198
 30
0.0000
 42
1.0000
  0
VERTEX
  8
25
 10
39.2811
 20
28.8857
 30
0.0000
  0
VERTEX
  8
25
 10
39.4642
 20
28.5196
 30
0.0000
 42
1.0000
  0
SEQEND
  8
0
  0
POLYLINE
  8
25
 66
1
 10
0.0000
 20
0.0000
 30
0.0000
 40
0.0000
 41
0.0000
 70
1
  0
VERTEX
  8
25
 10
40.2648
 20
29.1545
 30
0.0000
 42
1.0000
  0
VERTEX
  8
25
 10
40.3410
 20
29.1545
 30
0.0000
 42
0.4142
  0
VERTEX
  8
25
 10
40.0969
 20
29.3985
 30
0.0000
 42
1.0000
  0
VERTEX
  8
25
 10
40.0969
 20
29.3223
 30
0.0000
 42
-0.4142
  0
SEQEND
  8
0
  0
POLYLINE
  8
25
 66
1
 10
0.0000
 20
0.0000
 30
0.0000
 40
0.0000
 41
0.0000
 70
1
  0
VERTEX
  8
25
 10
40.0969
 20
29.3223
 30
0.0000
 42
1.0000
  0
VERTEX
  8
25
 10
40.0969
 20
29.3985
 30
0.0000
 42
0.3252
  0
VERTEX
  8
25
 10
39.8090
 20
29.1891
 30
0.0000
 42
1.0000
  0
VERTEX
  8
25
 10
39.8815
 20
29.1656
 30
0.0000
 42
-0.3252
  0
SEQEND
  8
0
  0
POLYLINE
  8
25
 66
1
 10
0.0000
 20
0.0000
 30
0.0000
 40
0.0000
 41
0.0000
 70
1
  0
VERTEX
  8
25
 10
40.2080
 20
29.0219
 30
0.0000
 42
1.0000
  0
VERTEX
  8
25
 10
40.2605
 20
28.9667
 30
0.0000
 42
0.2053
  0
VERTEX
  8
25
 10
40.3410
 20
29.1544
 30
0.0000
 42
1.0000
  0
VERTEX
  8
25
 10
40.2648
 20
29.1545
 30
0.0000
 42
-0.2053
  0
SEQEND
  8
0
  0
POLYLINE
  8
25
 66
1
 10
0.0000
 20
0.0000
 30
0.0000
 40
0.0000
 41
0.0000
 70
1
  0
VERTEX
  8
25
 10
40.2052
 20
29.0189
 30
0.0000
  0
VERTEX
  8
25
 10
39.8162
 20
28.5613
 30
0.0000
 42
1.0000
  0
VERTEX
  8
25
 10
39.8743
 20
28.5119
 30
0.0000
  0
VERTEX
  8
25
 10
40.2633
 20
28.9696
 30
0.0000
 42
1.0000
  0
SEQEND
  8
0
  0
POLYLINE
  8
25
 66
1
 10
0.0000
 20
0.0000
 30
0.0000
 40
0.0000
 41
0.0000
 70
1
  0
VERTEX
  8
25
 10
39.8452
 20
28.4985
 30
0.0000
  0
VERTEX
  8
25
 10
40.3029
 20
28.4985
 30
0.0000
 42
1.0000
  0
VERTEX
  8
25
 10
40.3029
 20
28.5747
 30
0.0000
  0
VERTEX
  8
25
 10
39.8452
 20
28.5747
 30
0.0000
 42
1.0000
  0
SEQEND
  8
0
  0
POLYLINE
  8
27
 66
1
 10
0.0000
 20
0.0000
 30
0.0000
 40
0.0000
 41
0.0000
 70
1
  0
VERTEX
  8
27
 10
39.1516
 20
27.1236
 30
0.0000
 42
1.0000
  0
VERTEX
  8
27
 10
39.2532
 20
27.1236
 30
0.0000
 42
0.4142
  0
VERTEX
  8
27
 10
38.9103
 20
27.4665
 30
0.0000
 42
1.0000
  0
VERTEX
  8
27
 10
38.9103
 20
27.3649
 30
0.0000
 42
-0.4142
  0
SEQEND
  8
0
  0
POLYLINE
  8
27
 66
1
 10
0.0000
 20
0.0000
 30
0.0000
 40
0.0000
 41
0.0000
 70
1
  0
VERTEX
  8
27
 10
38.9103
 20
27.3649
 30
0.0000
 42
1.0000
  0
VERTEX
  8
27
 10
38.9103
 20
27.4665
 30
0.0000
 42
0.3252
  0
VERTEX
  8
27
 10
38.5050
 20
27.1717
 30
0.0000
 42
1.0000
  0
VERTEX
  8
27
 10
38.6016
 20
27.1404
 30
0.0000
 42
-0.3252
  0
SEQEND
  8
0
  0
POLYLINE
  8
27
 66
1
 10
0.0000
 20
0.0000
 30
0.0000
 40
0.0000
 41
0.0000
 70
1
  0
VERTEX
  8
27
 10
39.0700
 20
26.9332
 30
0.0000
 42
1.0000
  0
VERTEX
  8
27
 10
39.1401
 20
26.8596
 30
0.0000
 42
0.2053
  0
VERTEX
  8
27
 10
39.2532
 20
27.1236
 30
0.0000
 42
1.0000
  0
VERTEX
  8
27
 10
39.1516
 20
27.1236
 30
0.0000
 42
-0.2053
  0
SEQEND
  8
0
  0
POLYLINE
  8
27
 66
1
 10
0.0000
 20
0.0000
 30
0.0000
 40
0.0000
 41
0.0000
 70
1
  0
VERTEX
  8
27
 10
39.0663
 20
26.9293
 30
0.0000
  0
VERTEX
  8
27
 10
38.5146
 20
26.2802
 30
0.0000
 42
1.0000
  0
VERTEX
  8
27
 10
38.5920
 20
26.2144
 30
0.0000
  0
VERTEX
  8
27
 10
39.1438
 20
26.8635
 30
0.0000
 42
1.0000
  0
SEQEND
  8
0
  0
POLYLINE
  8
27
 66
1
 10
0.0000
 20
0.0000
 30
0.0000
 40
0.0000
 41
0.0000
 70
1
  0
VERTEX
  8
27
 10
38.5533
 20
26.1965
 30
0.0000
  0
VERTEX
  8
27
 10
39.2024
 20
26.1965
 30
0.0000
 42
1.0000
  0
VERTEX
  8
27
 10
39.2024
 20
26.2981
 30
0.0000
  0
VERTEX
  8
27
 10
38.5533
 20
26.2981
 30
0.0000
 42
1.0000
  0
SEQEND
  8
0
  0
POLYLINE
  8
27
 66
1
 10
0.0000
 20
0.0000
 30
0.0000
 40
0.0000
 41
0.0000
 70
1
  0
VERTEX
  8
27
 10
40.2946
 20
27.1236
 30
0.0000
 42
1.0000
  0
VERTEX
  8
27
 10
40.3962
 20
27.1236
 30
0.0000
 42
0.4142
  0
VERTEX
  8
27
 10
40.0533
 20
27.4665
 30
0.0000
 42
1.0000
  0
VERTEX
  8
27
 10
40.0533
 20
27.3649
 30
0.0000
 42
-0.4142
  0
SEQEND
  8
0
  0
POLYLINE
  8
27
 66
1
 10
0.0000
 20
0.0000
 30
0.0000
 40
0.0000
 41
0.0000
 70
1
  0
VERTEX
  8
27
 10
40.0533
 20
27.3649
 30
0.0000
 42
1.0000
  0
VERTEX
  8
27
 10
40.0533
 20
27.4665
 30
0.0000
 42
0.3252
  0
VERTEX
  8
27
 10
39.6480
 20
27.1717
 30
0.0000
 42
1.0000
  0
VERTEX
  8
27
 10
39.7446
 20
27.1404
 30
0.0000
 42
-0.3252
  0
SEQEND
  8
0
  0
POLYLINE
  8
27
 66
1
 10
0.0000
 20
0.0000
 30
0.0000
 40
0.0000
 41
0.0000
 70
1
  0
VERTEX
  8
27
 10
40.2130
 20
26.9332
 30
0.0000
 42
1.0000
  0
VERTEX
  8
27
 10
40.2831
 20
26.8596
 30
0.0000
 42
0.2053
  0
VERTEX
  8
27
 10
40.3962
 20
27.1236
 30
0.0000
 42
1.0000
  0
VERTEX
  8
27
 10
40.2946
 20
27.1236
 30
0.0000
 42
-0.2053
  0
SEQEND
  8
0
  0
POLYLINE
  8
27
 66
1
 10
0.0000
 20
0.0000
 30
0.0000
 40
0.0000
 41
0.0000
 70
1
  0
VERTEX
  8
27
 10
40.2093
 20
26.9293
 30
0.0000
  0
VERTEX
  8
27
 10
39.6576
 20
26.2802
 30
0.0000
 42
1.0000
  0
VERTEX
  8
27
 10
39.7350
 20
26.2144
 30
0.0000
  0
VERTEX
  8
27
 10
40.2867
 20
26.8635
 30
0.0000
 42
1.0000
  0
SEQEND
  8
0
  0
POLYLINE
  8
27
 66
1
 10
0.0000
 20
0.0000
 30
0.0000
 40
0.0000
 41
0.0000
 70
1
  0
VERTEX
  8
27
 10
39.6963
 20
26.1965
 30
0.0000
  0
VERTEX
  8
27
 10
40.3454
 20
26.1965
 30
0.0000
 42
1.0000
  0
VERTEX
  8
27
 10
40.3454
 20
26.2981
 30
0.0000
  0
VERTEX
  8
27
 10
39.6963
 20
26.2981
 30
0.0000
 42
1.0000
  0
SEQEND
  8
0
  0
POLYLINE
  8
27
 66
1
 10
0.0000
 20
0.0000
 30
0.0000
 40
0.0000
 41
0.0000
 70
1
  0
VERTEX
  8
27
 10
40.9823
 20
27.2312
 30
0.0000
 42
1.0000
  0
VERTEX
  8
27
 10
40.8910
 20
27.2757
 30
0.0000
 42
0.1139
  0
VERTEX
  8
27
 10
40.7885
 20
26.8315
 30
0.0000
 42
1.0000
  0
VERTEX
  8
27
 10
40.8901
 20
26.8315
 30
0.0000
 42
-0.1139
  0
SEQEND
  8
0
  0
POLYLINE
  8
27
 66
1
 10
0.0000
 20
0.0000
 30
0.0000
 40
0.0000
 41
0.0000
 70
1
  0
VERTEX
  8
27
 10
41.1638
 20
27.3649
 30
0.0000
 42
1.0000
  0
VERTEX
  8
27
 10
41.1638
 20
27.4665
 30
0.0000
 42
0.3205
  0
VERTEX
  8
27
 10
40.8886
 20
27.2699
 30
0.0000
 42
1.0000
  0
VERTEX
  8
27
 10
40.9847
 20
27.2369
 30
0.0000
 42
-0.3205
  0
SEQEND
  8
0
  0
POLYLINE
  8
27
 66
1
 10
0.0000
 20
0.0000
 30
0.0000
 40
0.0000
 41
0.0000
 70
1
  0
VERTEX
  8
27
 10
41.3430
 20
27.2369
 30
0.0000
 42
1.0000
  0
VERTEX
  8
27
 10
41.4391
 20
27.2699
 30
0.0000
 42
0.3205
  0
VERTEX
  8
27
 10
41.1638
 20
27.4665
 30
0.0000
 42
1.0000
  0
VERTEX
  8
27
 10
41.1638
 20
27.3649
 30
0.0000
 42
-0.3205
  0
SEQEND
  8
0
  0
POLYLINE
  8
27
 66
1
 10
0.0000
 20
0.0000
 30
0.0000
 40
0.0000
 41
0.0000
 70
1
  0
VERTEX
  8
27
 10
41.4376
 20
26.8315
 30
0.0000
 42
1.0000
  0
VERTEX
  8
27
 10
41.5392
 20
26.8315
 30
0.0000
 42
0.1139
  0
VERTEX
  8
27
 10
41.4367
 20
27.2757
 30
0.0000
 42
1.0000
  0
VERTEX
  8
27
 10
41.3454
 20
27.2312
 30
0.0000
 42
-0.1139
  0
SEQEND
  8
0
  0
POLYLINE
  8
27
 66
1
 10
0.0000
 20
0.0000
 30
0.0000
 40
0.0000
 41
0.0000
 70
1
  0
VERTEX
  8
27
 10
40.8901
 20
26.8315
 30
0.0000
 42
1.0000
  0
VERTEX
  8
27
 10
40.7885
 20
26.8315
 30
0.0000
 42
0.1139
  0
VERTEX
  8
27
 10
40.8910
 20
26.3873
 30
0.0000
 42
1.0000
  0
VERTEX
  8
27
 10
40.9823
 20
26.4318
 30
0.0000
 42
-0.1139
  0
SEQEND
  8
0
  0
POLYLINE
  8
27
 66
1
 10
0.0000
 20
0.0000
 30
0.0000
 40
0.0000
 41
0.0000
 70
1
  0
VERTEX
  8
27
 10
40.9847
 20
26.4261
 30
0.0000
 42
1.0000
  0
VERTEX
  8
27
 10
40.8886
 20
26.3931
 30
0.0000
 42
0.3205
  0
VERTEX
  8
27
 10
41.1638
 20
26.1965
 30
0.0000
 42
1.0000
  0
VERTEX
  8
27
 10
41.1638
 20
26.2981
 30
0.0000
 42
-0.3205
  0
SEQEND
  8
0
  0
POLYLINE
  8
27
 66
1
 10
0.0000
 20
0.0000
 30
0.0000
 40
0.0000
 41
0.0000
 70
1
  0
VERTEX
  8
27
 10
41.3454
 20
26.4318
 30
0.0000
 42
1.0000
  0
VERTEX
  8
27
 10
41.4367
 20
26.3873
 30
0.0000
 42
0.1139
  0
VERTEX
  8
27
 10
41.5392
 20
26.8315
 30
0.0000
 42
1.0000
  0
VERTEX
  8
27
 10
41.4376
 20
26.8315
 30
0.0000
 42
-0.1139
  0
SEQEND
  8
0
  0
POLYLINE
  8
27
 66
1
 10
0.0000
 20
0.0000
 30
0.0000
 40
0.0000
 41
0.0000
 70
1
  0
VERTEX
  8
27
 10
41.1638
 20
26.2981
 30
0.0000
 42
1.0000
  0
VERTEX
  8
27
 10
41.1638
 20
26.1965
 30
0.0000
 42
0.3205
  0
VERTEX
  8
27
 10
41.4391
 20
26.3931
 30
0.0000
 42
1.0000
  0
VERTEX
  8
27
 10
41.3430
 20
26.4261
 30
0.0000
 42
-0.3205
  0
SEQEND
  8
0
  0
POLYLINE
  8
27
 66
1
 10
0.0000
 20
0.0000
 30
0.0000
 40
0.0000
 41
0.0000
 70
1
  0
VERTEX
  8
27
 10
40.9439
 20
26.4752
 30
0.0000
  0
VERTEX
  8
27
 10
41.4632
 20
27.1243
 30
0.0000
 42
1.0000
  0
VERTEX
  8
27
 10
41.3838
 20
27.1878
 30
0.0000
  0
VERTEX
  8
27
 10
40.8645
 20
26.5387
 30
0.0000
 42
1.0000
  0
SEQEND
  8
0
  0
POLYLINE
  8
27
 66
1
 10
0.0000
 20
0.0000
 30
0.0000
 40
0.0000
 41
0.0000
 70
1
  0
VERTEX
  8
27
 10
42.0881
 20
26.2473
 30
0.0000
  0
VERTEX
  8
27
 10
42.0881
 20
27.4157
 30
0.0000
 42
1.0000
  0
VERTEX
  8
27
 10
41.9865
 20
27.4157
 30
0.0000
  0
VERTEX
  8
27
 10
41.9865
 20
26.2473
 30
0.0000
 42
1.0000
  0
SEQEND
  8
0
  0
POLYLINE
  8
27
 66
1
 10
0.0000
 20
0.0000
 30
0.0000
 40
0.0000
 41
0.0000
 70
1
  0
VERTEX
  8
27
 10
42.6488
 20
27.4499
 30
0.0000
  0
VERTEX
  8
27
 10
41.9997
 20
26.7358
 30
0.0000
 42
1.0000
  0
VERTEX
  8
27
 10
42.0749
 20
26.6675
 30
0.0000
  0
VERTEX
  8
27
 10
42.7240
 20
27.3815
 30
0.0000
 42
1.0000
  0
SEQEND
  8
0
  0
POLYLINE
  8
27
 66
1
 10
0.0000
 20
0.0000
 30
0.0000
 40
0.0000
 41
0.0000
 70
1
  0
VERTEX
  8
27
 10
42.7310
 20
26.2716
 30
0.0000
  0
VERTEX
  8
27
 10
42.3416
 20
26.9856
 30
0.0000
 42
1.0000
  0
VERTEX
  8
27
 10
42.2524
 20
26.9370
 30
0.0000
  0
VERTEX
  8
27
 10
42.6418
 20
26.2230
 30
0.0000
 42
1.0000
  0
SEQEND
  8
0
  0
POINT
  8
23
 10
17.2645
 20
2.4825
 30
0.0000
  0
POLYLINE
  8
21
 66
1
 10
0.0000
 20
0.0000
 30
0.0000
 40
0.0000
 41
0.0000
 70
1
  0
VERTEX
  8
21
 10
15.6135
 20
-2.6737
 30
0.0000
  0
VERTEX
  8
21
 10
18.9155
 20
-2.6737
 30
0.0000
 42
1.0000
  0
VERTEX
  8
21
 10
18.9155
 20
-2.5213
 30
0.0000
  0
VERTEX
  8
21
 10
15.6135
 20
-2.5213
 30
0.0000
 42
1.0000
  0
SEQEND
  8
0
  0
POLYLINE
  8
21
 66
1
 10
0.0000
 20
0.0000
 30
0.0000
 40
0.0000
 41
0.0000
 70
1
  0
VERTEX
  8
21
 10
18.9155
 20
-2.5213
 30
0.0000
 42
1.0000
  0
VERTEX
  8
21
 10
18.9155
 20
-2.6737
 30
0.0000
 42
0.4142
  0
VERTEX
  8
21
 10
19.3727
 20
-2.2165
 30
0.0000
 42
1.0000
  0
VERTEX
  8
21
 10
19.2203
 20
-2.2165
 30
0.0000
 42
-0.4142
  0
SEQEND
  8
0
  0
POLYLINE
  8
21
 66
1
 10
0.0000
 20
0.0000
 30
0.0000
 40
0.0000
 41
0.0000
 70
1
  0
VERTEX
  8
21
 10
15.6135
 20
7.4863
 30
0.0000
 42
1.0000
  0
VERTEX
  8
21
 10
15.6135
 20
7.6387
 30
0.0000
 42
0.4142
  0
VERTEX
  8
21
 10
15.1563
 20
7.1815
 30
0.0000
 42
1.0000
  0
VERTEX
  8
21
 10
15.3087
 20
7.1815
 30
0.0000
 42
-0.4142
  0
SEQEND
  8
0
  0
POLYLINE
  8
21
 66
1
 10
0.0000
 20
0.0000
 30
0.0000
 40
0.0000
 41
0.0000
 70
1
  0
VERTEX
  8
21
 10
15.3087
 20
-2.2165
 30
0.0000
 42
1.0000
  0
VERTEX
  8
21
 10
15.1563
 20
-2.2165
 30
0.0000
 42
0.4142
  0
VERTEX
  8
21
 10
15.6135
 20
-2.6737
 30
0.0000
 42
1.0000
  0
VERTEX
  8
21
 10
15.6135
 20
-2.5213
 30
0.0000
 42
-0.4142
  0
SEQEND
  8
0
  0
POLYLINE
  8
21
 66
1
 10
0.0000
 20
0.0000
 30
0.0000
 40
0.0000
 41
0.0000
 70
1
  0
VERTEX
  8
21
 10
19.2203
 20
7.1815
 30
0.0000
 42
1.0000
  0
VERTEX
  8
21
 10
19.3727
 20
7.1815
 30
0.0000
 42
0.4142
  0
VERTEX
  8
21
 10
18.9155
 20
7.6387
 30
0.0000
 42
1.0000
  0
VERTEX
  8
21
 10
18.9155
 20
7.4863
 30
0.0000
 42
-0.4142
  0
SEQEND
  8
0
  0
POLYLINE
  8
21
 66
1
 10
0.0000
 20
0.0000
 30
0.0000
 40
0.0000
 41
0.0000
 70
1
  0
VERTEX
  8
21
 10
19.3727
 20
-2.2165
 30
0.0000
  0
VERTEX
  8
21
 10
19.3727
 20
-1.5815
 30
0.0000
 42
1.0000
  0
VERTEX
  8
21
 10
19.2203
 20
-1.5815
 30
0.0000
  0
VERTEX
  8
21
 10
19.2203
 20
-2.2165
 30
0.0000
 42
1.0000
  0
SEQEND
  8
0
  0
POLYLINE
  8
21
 66
1
 10
0.0000
 20
0.0000
 30
0.0000
 40
0.0000
 41
0.0000
 70
1
  0
VERTEX
  8
21
 10
19.1156
 20
-1.5084
 30
0.0000
  0
VERTEX
  8
21
 10
19.2426
 20
-1.6354
 30
0.0000
 42
1.0000
  0
VERTEX
  8
21
 10
19.3504
 20
-1.5276
 30
0.0000
  0
VERTEX
  8
21
 10
19.2234
 20
-1.4006
 30
0.0000
 42
1.0000
  0
SEQEND
  8
0
  0
POLYLINE
  8
21
 66
1
 10
0.0000
 20
0.0000
 30
0.0000
 40
0.0000
 41
0.0000
 70
1
  0
VERTEX
  8
21
 10
15.3087
 20
-2.2165
 30
0.0000
  0
VERTEX
  8
21
 10
15.3087
 20
-1.5815
 30
0.0000
 42
1.0000
  0
VERTEX
  8
21
 10
15.1563
 20
-1.5815
 30
0.0000
  0
VERTEX
  8
21
 10
15.1563
 20
-2.2165
 30
0.0000
 42
1.0000
  0
SEQEND
  8
0
  0
POLYLINE
  8
21
 66
1
 10
0.0000
 20
0.0000
 30
0.0000
 40
0.0000
 41
0.0000
 70
1
  0
VERTEX
  8
21
 10
15.3056
 20
-1.4006
 30
0.0000
  0
VERTEX
  8
21
 10
15.1786
 20
-1.5276
 30
0.0000
 42
1.0000
  0
VERTEX
  8
21
 10
15.2864
 20
-1.6354
 30
0.0000
  0
VERTEX
  8
21
 10
15.4134
 20
-1.5084
 30
0.0000
 42
1.0000
  0
SEQEND
  8
0
  0
POLYLINE
  8
21
 66
1
 10
0.0000
 20
0.0000
 30
0.0000
 40
0.0000
 41
0.0000
 70
1
  0
VERTEX
  8
21
 10
19.2234
 20
6.3656
 30
0.0000
  0
VERTEX
  8
21
 10
19.3504
 20
6.4926
 30
0.0000
 42
1.0000
  0
VERTEX
  8
21
 10
19.2426
 20
6.6004
 30
0.0000
  0
VERTEX
  8
21
 10
19.1156
 20
6.4734
 30
0.0000
 42
1.0000
  0
SEQEND
  8
0
  0
POLYLINE
  8
21
 66
1
 10
0.0000
 20
0.0000
 30
0.0000
 40
0.0000
 41
0.0000
 70
1
  0
VERTEX
  8
21
 10
19.0933
 20
6.4195
 30
0.0000
  0
VERTEX
  8
21
 10
19.0933
 20
-1.4545
 30
0.0000
 42
1.0000
  0
VERTEX
  8
21
 10
19.2457
 20
-1.4545
 30
0.0000
  0
VERTEX
  8
21
 10
19.2457
 20
6.4195
 30
0.0000
 42
1.0000
  0
SEQEND
  8
0
  0
POLYLINE
  8
21
 66
1
 10
0.0000
 20
0.0000
 30
0.0000
 40
0.0000
 41
0.0000
 70
1
  0
VERTEX
  8
21
 10
15.4134
 20
6.4734
 30
0.0000
  0
VERTEX
  8
21
 10
15.2864
 20
6.6004
 30
0.0000
 42
1.0000
  0
VERTEX
  8
21
 10
15.1786
 20
6.4926
 30
0.0000
  0
VERTEX
  8
21
 10
15.3056
 20
6.3656
 30
0.0000
 42
1.0000
  0
SEQEND
  8
0
  0
POLYLINE
  8
21
 66
1
 10
0.0000
 20
0.0000
 30
0.0000
 40
0.0000
 41
0.0000
 70
1
  0
VERTEX
  8
21
 10
15.2833
 20
6.4195
 30
0.0000
  0
VERTEX
  8
21
 10
15.2833
 20
-1.4545
 30
0.0000
 42
1.0000
  0
VERTEX
  8
21
 10
15.4357
 20
-1.4545
 30
0.0000
  0
VERTEX
  8
21
 10
15.4357
 20
6.4195
 30
0.0000
 42
1.0000
  0
SEQEND
  8
0
  0
POLYLINE
  8
21
 66
1
 10
0.0000
 20
0.0000
 30
0.0000
 40
0.0000
 41
0.0000
 70
1
  0
VERTEX
  8
21
 10
18.9155
 20
7.6387
 30
0.0000
  0
VERTEX
  8
21
 10
15.6135
 20
7.6387
 30
0.0000
 42
1.0000
  0
VERTEX
  8
21
 10
15.6135
 20
7.4863
 30
0.0000
  0
VERTEX
  8
21
 10
18.9155
 20
7.4863
 30
0.0000
 42
1.0000
  0
SEQEND
  8
0
  0
POLYLINE
  8
21
 66
1
 10
0.0000
 20
0.0000
 30
0.0000
 40
0.0000
 41
0.0000
 70
1
  0
VERTEX
  8
21
 10
19.2203
 20
7.1815
 30
0.0000
  0
VERTEX
  8
21
 10
19.2203
 20
6.5465
 30
0.0000
 42
1.0000
  0
VERTEX
  8
21
 10
19.3727
 20
6.5465
 30
0.0000
  0
VERTEX
  8
21
 10
19.3727
 20
7.1815
 30
0.0000
 42
1.0000
  0
SEQEND
  8
0
  0
POLYLINE
  8
21
 66
1
 10
0.0000
 20
0.0000
 30
0.0000
 40
0.0000
 41
0.0000
 70
1
  0
VERTEX
  8
21
 10
15.1563
 20
7.1815
 30
0.0000
  0
VERTEX
  8
21
 10
15.1563
 20
6.5465
 30
0.0000
 42
1.0000
  0
VERTEX
  8
21
 10
15.3087
 20
6.5465
 30
0.0000
  0
VERTEX
  8
21
 10
15.3087
 20
7.1815
 30
0.0000
 42
1.0000
  0
SEQEND
  8
0
  0
INSERT
  8
21
  2
RECT
 10
17.2645
 20
7.7022
 30
0.0000
 41
0.2794
 42
0.7620
 43
1.0000
 50
270.0000
  0
INSERT
  8
21
  2
RECT
 10
17.2645
 20
-2.7372
 30
0.0000
 41
0.2794
 42
0.7620
 43
1.0000
 50
270.0000
  0
INSERT
  8
17
  2
OCTAGONP
 10
17.2645
 20
8.8325
 30
0.0000
 41
1.4224
 42
1.4224
 43
1.0000
 50
270.0000
  0
INSERT
  8
29
  2
OCTAGONP
 10
17.2645
 20
8.8325
 30
0.0000
 41
1.6256
 42
1.6256
 43
1.0000
 50
270.0000
  0
INSERT
  8
30
  2
OCTAGONP
 10
17.2645
 20
8.8325
 30
0.0000
 41
1.6256
 42
1.6256
 43
1.0000
 50
270.0000
  0
INSERT
  8
17
  2
OCTAGONP
 10
17.2645
 20
-3.8675
 30
0.0000
 41
1.4224
 42
1.4224
 43
1.0000
 50
270.0000
  0
INSERT
  8
29
  2
OCTAGONP
 10
17.2645
 20
-3.8675
 30
0.0000
 41
1.6256
 42
1.6256
 43
1.0000
 50
270.0000
  0
INSERT
  8
30
  2
OCTAGONP
 10
17.2645
 20
-3.8675
 30
0.0000
 41
1.6256
 42
1.6256
 43
1.0000
 50
270.0000
  0
POLYLINE
  8
25
 66
1
 10
0.0000
 20
0.0000
 30
0.0000
 40
0.0000
 41
0.0000
 70
1
  0
VERTEX
  8
25
 10
19.1424
 20
2.4822
 30
0.0000
  0
VERTEX
  8
25
 10
18.3186
 20
2.4822
 30
0.0000
 42
1.0000
  0
VERTEX
  8
25
 10
18.3186
 20
2.4060
 30
0.0000
  0
VERTEX
  8
25
 10
19.1424
 20
2.4060
 30
0.0000
 42
1.0000
  0
SEQEND
  8
0
  0
POLYLINE
  8
25
 66
1
 10
0.0000
 20
0.0000
 30
0.0000
 40
0.0000
 41
0.0000
 70
1
  0
VERTEX
  8
25
 10
18.3567
 20
2.4441
 30
0.0000
  0
VERTEX
  8
25
 10
18.3567
 20
2.6729
 30
0.0000
 42
1.0000
  0
VERTEX
  8
25
 10
18.2805
 20
2.6729
 30
0.0000
  0
VERTEX
  8
25
 10
18.2805
 20
2.4441
 30
0.0000
 42
1.0000
  0
SEQEND
  8
0
  0
POLYLINE
  8
25
 66
1
 10
0.0000
 20
0.0000
 30
0.0000
 40
0.0000
 41
0.0000
 70
1
  0
VERTEX
  8
25
 10
18.7382
 20
2.6729
 30
0.0000
 42
1.0000
  0
VERTEX
  8
25
 10
18.8144
 20
2.6729
 30
0.0000
 42
1.0000
  0
VERTEX
  8
25
 10
18.2805
 20
2.6729
 30
0.0000
 42
1.0000
  0
VERTEX
  8
25
 10
18.3567
 20
2.6729
 30
0.0000
 42
-1.0000
  0
SEQEND
  8
0
  0
POLYLINE
  8
25
 66
1
 10
0.0000
 20
0.0000
 30
0.0000
 40
0.0000
 41
0.0000
 70
1
  0
VERTEX
  8
25
 10
18.7382
 20
2.6729
 30
0.0000
  0
VERTEX
  8
25
 10
18.7382
 20
2.4441
 30
0.0000
 42
1.0000
  0
VERTEX
  8
25
 10
18.8144
 20
2.4441
 30
0.0000
  0
VERTEX
  8
25
 10
18.8144
 20
2.6729
 30
0.0000
 42
1.0000
  0
SEQEND
  8
0
  0
POLYLINE
  8
25
 66
1
 10
0.0000
 20
0.0000
 30
0.0000
 40
0.0000
 41
0.0000
 70
1
  0
VERTEX
  8
25
 10
19.1254
 20
2.9358
 30
0.0000
  0
VERTEX
  8
25
 10
18.7592
 20
2.7528
 30
0.0000
 42
1.0000
  0
VERTEX
  8
25
 10
18.7933
 20
2.6846
 30
0.0000
  0
VERTEX
  8
25
 10
19.1594
 20
2.8677
 30
0.0000
 42
1.0000
  0
SEQEND
  8
0
  0
POLYLINE
  8
25
 66
1
 10
0.0000
 20
0.0000
 30
0.0000
 40
0.0000
 41
0.0000
 70
1
  0
VERTEX
  8
25
 10
19.1805
 20
3.2487
 30
0.0000
  0
VERTEX
  8
25
 10
19.1805
 20
3.4776
 30
0.0000
 42
1.0000
  0
VERTEX
  8
25
 10
19.1043
 20
3.4776
 30
0.0000
  0
VERTEX
  8
25
 10
19.1043
 20
3.2487
 30
0.0000
 42
1.0000
  0
SEQEND
  8
0
  0
POLYLINE
  8
25
 66
1
 10
0.0000
 20
0.0000
 30
0.0000
 40
0.0000
 41
0.0000
 70
1
  0
VERTEX
  8
25
 10
19.1043
 20
3.4776
 30
0.0000
 42
1.0000
  0
VERTEX
  8
25
 10
19.1805
 20
3.4776
 30
0.0000
 42
1.0000
  0
VERTEX
  8
25
 10
18.6466
 20
3.4776
 30
0.0000
 42
1.0000
  0
VERTEX
  8
25
 10
18.7228
 20
3.4776
 30
0.0000
 42
-1.0000
  0
SEQEND
  8
0
  0
POLYLINE
  8
25
 66
1
 10
0.0000
 20
0.0000
 30
0.0000
 40
0.0000
 41
0.0000
 70
1
  0
VERTEX
  8
25
 10
18.3567
 20
3.2487
 30
0.0000
  0
VERTEX
  8
25
 10
18.3567
 20
3.5233
 30
0.0000
 42
1.0000
  0
VERTEX
  8
25
 10
18.2805
 20
3.5233
 30
0.0000
  0
VERTEX
  8
25
 10
18.2805
 20
3.2487
 30
0.0000
 42
1.0000
  0
SEQEND
  8
0
  0
POLYLINE
  8
25
 66
1
 10
0.0000
 20
0.0000
 30
0.0000
 40
0.0000
 41
0.0000
 70
1
  0
VERTEX
  8
25
 10
18.6466
 20
3.5233
 30
0.0000
 42
1.0000
  0
VERTEX
  8
25
 10
18.7228
 20
3.5233
 30
0.0000
 42
1.0000
  0
VERTEX
  8
25
 10
18.2805
 20
3.5233
 30
0.0000
 42
1.0000
  0
VERTEX
  8
25
 10
18.3567
 20
3.5233
 30
0.0000
 42
-1.0000
  0
SEQEND
  8
0
  0
POLYLINE
  8
25
 66
1
 10
0.0000
 20
0.0000
 30
0.0000
 40
0.0000
 41
0.0000
 70
1
  0
VERTEX
  8
25
 10
18.6466
 20
3.5233
 30
0.0000
  0
VERTEX
  8
25
 10
18.6466
 20
3.3403
 30
0.0000
 42
1.0000
  0
VERTEX
  8
25
 10
18.7228
 20
3.3403
 30
0.0000
  0
VERTEX
  8
25
 10
18.7228
 20
3.5233
 30
0.0000
 42
1.0000
  0
SEQEND
  8
0
  0
POLYLINE
  8
27
 66
1
 10
0.0000
 20
0.0000
 30
0.0000
 40
0.0000
 41
0.0000
 70
1
  0
VERTEX
  8
27
 10
17.3214
 20
-0.3411
 30
0.0000
 42
1.0000
  0
VERTEX
  8
27
 10
17.3214
 20
-0.2395
 30
0.0000
 42
0.4142
  0
VERTEX
  8
27
 10
16.9785
 20
-0.5824
 30
0.0000
 42
1.0000
  0
VERTEX
  8
27
 10
17.0801
 20
-0.5824
 30
0.0000
 42
-0.4142
  0
SEQEND
  8
0
  0
POLYLINE
  8
27
 66
1
 10
0.0000
 20
0.0000
 30
0.0000
 40
0.0000
 41
0.0000
 70
1
  0
VERTEX
  8
27
 10
17.0801
 20
-0.5824
 30
0.0000
 42
1.0000
  0
VERTEX
  8
27
 10
16.9785
 20
-0.5824
 30
0.0000
 42
0.3252
  0
VERTEX
  8
27
 10
17.2733
 20
-0.9878
 30
0.0000
 42
1.0000
  0
VERTEX
  8
27
 10
17.3046
 20
-0.8911
 30
0.0000
 42
-0.3252
  0
SEQEND
  8
0
  0
POLYLINE
  8
27
 66
1
 10
0.0000
 20
0.0000
 30
0.0000
 40
0.0000
 41
0.0000
 70
1
  0
VERTEX
  8
27
 10
17.5118
 20
-0.4227
 30
0.0000
 42
1.0000
  0
VERTEX
  8
27
 10
17.5854
 20
-0.3527
 30
0.0000
 42
0.2053
  0
VERTEX
  8
27
 10
17.3214
 20
-0.2395
 30
0.0000
 42
1.0000
  0
VERTEX
  8
27
 10
17.3214
 20
-0.3411
 30
0.0000
 42
-0.2053
  0
SEQEND
  8
0
  0
POLYLINE
  8
27
 66
1
 10
0.0000
 20
0.0000
 30
0.0000
 40
0.0000
 41
0.0000
 70
1
  0
VERTEX
  8
27
 10
17.5157
 20
-0.4264
 30
0.0000
  0
VERTEX
  8
27
 10
18.1648
 20
-0.9781
 30
0.0000
 42
1.0000
  0
VERTEX
  8
27
 10
18.2306
 20
-0.9007
 30
0.0000
  0
VERTEX
  8
27
 10
17.5815
 20
-0.3490
 30
0.0000
 42
1.0000
  0
SEQEND
  8
0
  0
POLYLINE
  8
27
 66
1
 10
0.0000
 20
0.0000
 30
0.0000
 40
0.0000
 41
0.0000
 70
1
  0
VERTEX
  8
27
 10
18.2485
 20
-0.9394
 30
0.0000
  0
VERTEX
  8
27
 10
18.2485
 20
-0.2903
 30
0.0000
 42
1.0000
  0
VERTEX
  8
27
 10
18.1469
 20
-0.2903
 30
0.0000
  0
VERTEX
  8
27
 10
18.1469
 20
-0.9394
 30
0.0000
 42
1.0000
  0
SEQEND
  8
0
  0
POLYLINE
  8
27
 66
1
 10
0.0000
 20
0.0000
 30
0.0000
 40
0.0000
 41
0.0000
 70
1
  0
VERTEX
  8
27
 10
17.3214
 20
0.8019
 30
0.0000
 42
1.0000
  0
VERTEX
  8
27
 10
17.3214
 20
0.9035
 30
0.0000
 42
0.4142
  0
VERTEX
  8
27
 10
16.9785
 20
0.5606
 30
0.0000
 42
1.0000
  0
VERTEX
  8
27
 10
17.0801
 20
0.5606
 30
0.0000
 42
-0.4142
  0
SEQEND
  8
0
  0
POLYLINE
  8
27
 66
1
 10
0.0000
 20
0.0000
 30
0.0000
 40
0.0000
 41
0.0000
 70
1
  0
VERTEX
  8
27
 10
17.0801
 20
0.5606
 30
0.0000
 42
1.0000
  0
VERTEX
  8
27
 10
16.9785
 20
0.5606
 30
0.0000
 42
0.3252
  0
VERTEX
  8
27
 10
17.2733
 20
0.1552
 30
0.0000
 42
1.0000
  0
VERTEX
  8
27
 10
17.3046
 20
0.2519
 30
0.0000
 42
-0.3252
  0
SEQEND
  8
0
  0
POLYLINE
  8
27
 66
1
 10
0.0000
 20
0.0000
 30
0.0000
 40
0.0000
 41
0.0000
 70
1
  0
VERTEX
  8
27
 10
17.5118
 20
0.7203
 30
0.0000
 42
1.0000
  0
VERTEX
  8
27
 10
17.5854
 20
0.7903
 30
0.0000
 42
0.2053
  0
VERTEX
  8
27
 10
17.3214
 20
0.9035
 30
0.0000
 42
1.0000
  0
VERTEX
  8
27
 10
17.3214
 20
0.8019
 30
0.0000
 42
-0.2053
  0
SEQEND
  8
0
  0
POLYLINE
  8
27
 66
1
 10
0.0000
 20
0.0000
 30
0.0000
 40
0.0000
 41
0.0000
 70
1
  0
VERTEX
  8
27
 10
17.5157
 20
0.7166
 30
0.0000
  0
VERTEX
  8
27
 10
18.1648
 20
0.1649
 30
0.0000
 42
1.0000
  0
VERTEX
  8
27
 10
18.2306
 20
0.2423
 30
0.0000
  0
VERTEX
  8
27
 10
17.5815
 20
0.7940
 30
0.0000
 42
1.0000
  0
SEQEND
  8
0
  0
POLYLINE
  8
27
 66
1
 10
0.0000
 20
0.0000
 30
0.0000
 40
0.0000
 41
0.0000
 70
1
  0
VERTEX
  8
27
 10
18.2485
 20
0.2036
 30
0.0000
  0
VERTEX
  8
27
 10
18.2485
 20
0.8527
 30
0.0000
 42
1.0000
  0
VERTEX
  8
27
 10
18.1469
 20
0.8527
 30
0.0000
  0
VERTEX
  8
27
 10
18.1469
 20
0.2036
 30
0.0000
 42
1.0000
  0
SEQEND
  8
0
  0
POLYLINE
  8
27
 66
1
 10
0.0000
 20
0.0000
 30
0.0000
 40
0.0000
 41
0.0000
 70
1
  0
VERTEX
  8
27
 10
17.2138
 20
1.4896
 30
0.0000
 42
1.0000
  0
VERTEX
  8
27
 10
17.1693
 20
1.3983
 30
0.0000
 42
0.1139
  0
VERTEX
  8
27
 10
17.6135
 20
1.2958
 30
0.0000
 42
1.0000
  0
VERTEX
  8
27
 10
17.6135
 20
1.3974
 30
0.0000
 42
-0.1139
  0
SEQEND
  8
0
  0
POLYLINE
  8
27
 66
1
 10
0.0000
 20
0.0000
 30
0.0000
 40
0.0000
 41
0.0000
 70
1
  0
VERTEX
  8
27
 10
17.0801
 20
1.6711
 30
0.0000
 42
1.0000
  0
VERTEX
  8
27
 10
16.9785
 20
1.6711
 30
0.0000
 42
0.3205
  0
VERTEX
  8
27
 10
17.1751
 20
1.3959
 30
0.0000
 42
1.0000
  0
VERTEX
  8
27
 10
17.2081
 20
1.4920
 30
0.0000
 42
-0.3205
  0
SEQEND
  8
0
  0
POLYLINE
  8
27
 66
1
 10
0.0000
 20
0.0000
 30
0.0000
 40
0.0000
 41
0.0000
 70
1
  0
VERTEX
  8
27
 10
17.2081
 20
1.8502
 30
0.0000
 42
1.0000
  0
VERTEX
  8
27
 10
17.1751
 20
1.9464
 30
0.0000
 42
0.3205
  0
VERTEX
  8
27
 10
16.9785
 20
1.6711
 30
0.0000
 42
1.0000
  0
VERTEX
  8
27
 10
17.0801
 20
1.6711
 30
0.0000
 42
-0.3205
  0
SEQEND
  8
0
  0
POLYLINE
  8
27
 66
1
 10
0.0000
 20
0.0000
 30
0.0000
 40
0.0000
 41
0.0000
 70
1
  0
VERTEX
  8
27
 10
17.6135
 20
1.9449
 30
0.0000
 42
1.0000
  0
VERTEX
  8
27
 10
17.6135
 20
2.0465
 30
0.0000
 42
0.1139
  0
VERTEX
  8
27
 10
17.1693
 20
1.9440
 30
0.0000
 42
1.0000
  0
VERTEX
  8
27
 10
17.2138
 20
1.8526
 30
0.0000
 42
-0.1139
  0
SEQEND
  8
0
  0
POLYLINE
  8
27
 66
1
 10
0.0000
 20
0.0000
 30
0.0000
 40
0.0000
 41
0.0000
 70
1
  0
VERTEX
  8
27
 10
17.6135
 20
1.3974
 30
0.0000
 42
1.0000
  0
VERTEX
  8
27
 10
17.6135
 20
1.2958
 30
0.0000
 42
0.1139
  0
VERTEX
  8
27
 10
18.0577
 20
1.3983
 30
0.0000
 42
1.0000
  0
VERTEX
  8
27
 10
18.0132
 20
1.4896
 30
0.0000
 42
-0.1139
  0
SEQEND
  8
0
  0
POLYLINE
  8
27
 66
1
 10
0.0000
 20
0.0000
 30
0.0000
 40
0.0000
 41
0.0000
 70
1
  0
VERTEX
  8
27
 10
18.0189
 20
1.4920
 30
0.0000
 42
1.0000
  0
VERTEX
  8
27
 10
18.0519
 20
1.3959
 30
0.0000
 42
0.3205
  0
VERTEX
  8
27
 10
18.2485
 20
1.6711
 30
0.0000
 42
1.0000
  0
VERTEX
  8
27
 10
18.1469
 20
1.6711
 30
0.0000
 42
-0.3205
  0
SEQEND
  8
0
  0
POLYLINE
  8
27
 66
1
 10
0.0000
 20
0.0000
 30
0.0000
 40
0.0000
 41
0.0000
 70
1
  0
VERTEX
  8
27
 10
18.0132
 20
1.8526
 30
0.0000
 42
1.0000
  0
VERTEX
  8
27
 10
18.0577
 20
1.9440
 30
0.0000
 42
0.1139
  0
VERTEX
  8
27
 10
17.6135
 20
2.0465
 30
0.0000
 42
1.0000
  0
VERTEX
  8
27
 10
17.6135
 20
1.9449
 30
0.0000
 42
-0.1139
  0
SEQEND
  8
0
  0
POLYLINE
  8
27
 66
1
 10
0.0000
 20
0.0000
 30
0.0000
 40
0.0000
 41
0.0000
 70
1
  0
VERTEX
  8
27
 10
18.1469
 20
1.6711
 30
0.0000
 42
1.0000
  0
VERTEX
  8
27
 10
18.2485
 20
1.6711
 30
0.0000
 42
0.3205
  0
VERTEX
  8
27
 10
18.0519
 20
1.9464
 30
0.0000
 42
1.0000
  0
VERTEX
  8
27
 10
18.0189
 20
1.8502
 30
0.0000
 42
-0.3205
  0
SEQEND
  8
0
  0
POLYLINE
  8
27
 66
1
 10
0.0000
 20
0.0000
 30
0.0000
 40
0.0000
 41
0.0000
 70
1
  0
VERTEX
  8
27
 10
17.9698
 20
1.4511
 30
0.0000
  0
VERTEX
  8
27
 10
17.3207
 20
1.9704
 30
0.0000
 42
1.0000
  0
VERTEX
  8
27
 10
17.2572
 20
1.8911
 30
0.0000
  0
VERTEX
  8
27
 10
17.9063
 20
1.3718
 30
0.0000
 42
1.0000
  0
SEQEND
  8
0
  0
POLYLINE
  8
27
 66
1
 10
0.0000
 20
0.0000
 30
0.0000
 40
0.0000
 41
0.0000
 70
1
  0
VERTEX
  8
27
 10
18.1977
 20
2.5954
 30
0.0000
  0
VERTEX
  8
27
 10
17.0293
 20
2.5954
 30
0.0000
 42
1.0000
  0
VERTEX
  8
27
 10
17.0293
 20
2.4938
 30
0.0000
  0
VERTEX
  8
27
 10
18.1977
 20
2.4938
 30
0.0000
 42
1.0000
  0
SEQEND
  8
0
  0
POLYLINE
  8
27
 66
1
 10
0.0000
 20
0.0000
 30
0.0000
 40
0.0000
 41
0.0000
 70
1
  0
VERTEX
  8
27
 10
16.9951
 20
3.1561
 30
0.0000
  0
VERTEX
  8
27
 10
17.7092
 20
2.5070
 30
0.0000
 42
1.0000
  0
VERTEX
  8
27
 10
17.7775
 20
2.5822
 30
0.0000
  0
VERTEX
  8
27
 10
17.0635
 20
3.2313
 30
0.0000
 42
1.0000
  0
SEQEND
  8
0
  0
POLYLINE
  8
27
 66
1
 10
0.0000
 20
0.0000
 30
0.0000
 40
0.0000
 41
0.0000
 70
1
  0
VERTEX
  8
27
 10
18.1734
 20
3.2383
 30
0.0000
  0
VERTEX
  8
27
 10
17.4594
 20
2.8488
 30
0.0000
 42
1.0000
  0
VERTEX
  8
27
 10
17.5080
 20
2.7596
 30
0.0000
  0
VERTEX
  8
27
 10
18.2220
 20
3.1491
 30
0.0000
 42
1.0000
  0
SEQEND
  8
0
  0
POINT
  8
23
 10
30.2645
 20
2.4825
 30
0.0000
  0
POLYLINE
  8
21
 66
1
 10
0.0000
 20
0.0000
 30
0.0000
 40
0.0000
 41
0.0000
 70
1
  0
VERTEX
  8
21
 10
28.6135
 20
-2.6737
 30
0.0000
  0
VERTEX
  8
21
 10
31.9155
 20
-2.6737
 30
0.0000
 42
1.0000
  0
VERTEX
  8
21
 10
31.9155
 20
-2.5213
 30
0.0000
  0
VERTEX
  8
21
 10
28.6135
 20
-2.5213
 30
0.0000
 42
1.0000
  0
SEQEND
  8
0
  0
POLYLINE
  8
21
 66
1
 10
0.0000
 20
0.0000
 30
0.0000
 40
0.0000
 41
0.0000
 70
1
  0
VERTEX
  8
21
 10
31.9155
 20
-2.5213
 30
0.0000
 42
1.0000
  0
VERTEX
  8
21
 10
31.9155
 20
-2.6737
 30
0.0000
 42
0.4142
  0
VERTEX
  8
21
 10
32.3727
 20
-2.2165
 30
0.0000
 42
1.0000
  0
VERTEX
  8
21
 10
32.2203
 20
-2.2165
 30
0.0000
 42
-0.4142
  0
SEQEND
  8
0
  0
POLYLINE
  8
21
 66
1
 10
0.0000
 20
0.0000
 30
0.0000
 40
0.0000
 41
0.0000
 70
1
  0
VERTEX
  8
21
 10
28.6135
 20
7.4863
 30
0.0000
 42
1.0000
  0
VERTEX
  8
21
 10
28.6135
 20
7.6387
 30
0.0000
 42
0.4142
  0
VERTEX
  8
21
 10
28.1563
 20
7.1815
 30
0.0000
 42
1.0000
  0
VERTEX
  8
21
 10
28.3087
 20
7.1815
 30
0.0000
 42
-0.4142
  0
SEQEND
  8
0
  0
POLYLINE
  8
21
 66
1
 10
0.0000
 20
0.0000
 30
0.0000
 40
0.0000
 41
0.0000
 70
1
  0
VERTEX
  8
21
 10
28.3087
 20
-2.2165
 30
0.0000
 42
1.0000
  0
VERTEX
  8
21
 10
28.1563
 20
-2.2165
 30
0.0000
 42
0.4142
  0
VERTEX
  8
21
 10
28.6135
 20
-2.6737
 30
0.0000
 42
1.0000
  0
VERTEX
  8
21
 10
28.6135
 20
-2.5213
 30
0.0000
 42
-0.4142
  0
SEQEND
  8
0
  0
POLYLINE
  8
21
 66
1
 10
0.0000
 20
0.0000
 30
0.0000
 40
0.0000
 41
0.0000
 70
1
  0
VERTEX
  8
21
 10
32.2203
 20
7.1815
 30
0.0000
 42
1.0000
  0
VERTEX
  8
21
 10
32.3727
 20
7.1815
 30
0.0000
 42
0.4142
  0
VERTEX
  8
21
 10
31.9155
 20
7.6387
 30
0.0000
 42
1.0000
  0
VERTEX
  8
21
 10
31.9155
 20
7.4863
 30
0.0000
 42
-0.4142
  0
SEQEND
  8
0
  0
POLYLINE
  8
21
 66
1
 10
0.0000
 20
0.0000
 30
0.0000
 40
0.0000
 41
0.0000
 70
1
  0
VERTEX
  8
21
 10
32.3727
 20
-2.2165
 30
0.0000
  0
VERTEX
  8
21
 10
32.3727
 20
-1.5815
 30
0.0000
 42
1.0000
  0
VERTEX
  8
21
 10
32.2203
 20
-1.5815
 30
0.0000
  0
VERTEX
  8
21
 10
32.2203
 20
-2.2165
 30
0.0000
 42
1.0000
  0
SEQEND
  8
0
  0
POLYLINE
  8
21
 66
1
 10
0.0000
 20
0.0000
 30
0.0000
 40
0.0000
 41
0.0000
 70
1
  0
VERTEX
  8
21
 10
32.1156
 20
-1.5084
 30
0.0000
  0
VERTEX
  8
21
 10
32.2426
 20
-1.6354
 30
0.0000
 42
1.0000
  0
VERTEX
  8
21
 10
32.3504
 20
-1.5276
 30
0.0000
  0
VERTEX
  8
21
 10
32.2234
 20
-1.4006
 30
0.0000
 42
1.0000
  0
SEQEND
  8
0
  0
POLYLINE
  8
21
 66
1
 10
0.0000
 20
0.0000
 30
0.0000
 40
0.0000
 41
0.0000
 70
1
  0
VERTEX
  8
21
 10
28.3087
 20
-2.2165
 30
0.0000
  0
VERTEX
  8
21
 10
28.3087
 20
-1.5815
 30
0.0000
 42
1.0000
  0
VERTEX
  8
21
 10
28.1563
 20
-1.5815
 30
0.0000
  0
VERTEX
  8
21
 10
28.1563
 20
-2.2165
 30
0.0000
 42
1.0000
  0
SEQEND
  8
0
  0
POLYLINE
  8
21
 66
1
 10
0.0000
 20
0.0000
 30
0.0000
 40
0.0000
 41
0.0000
 70
1
  0
VERTEX
  8
21
 10
28.3056
 20
-1.4006
 30
0.0000
  0
VERTEX
  8
21
 10
28.1786
 20
-1.5276
 30
0.0000
 42
1.0000
  0
VERTEX
  8
21
 10
28.2864
 20
-1.6354
 30
0.0000
  0
VERTEX
  8
21
 10
28.4134
 20
-1.5084
 30
0.0000
 42
1.0000
  0
SEQEND
  8
0
  0
POLYLINE
  8
21
 66
1
 10
0.0000
 20
0.0000
 30
0.0000
 40
0.0000
 41
0.0000
 70
1
  0
VERTEX
  8
21
 10
32.2234
 20
6.3656
 30
0.0000
  0
VERTEX
  8
21
 10
32.3504
 20
6.4926
 30
0.0000
 42
1.0000
  0
VERTEX
  8
21
 10
32.2426
 20
6.6004
 30
0.0000
  0
VERTEX
  8
21
 10
32.1156
 20
6.4734
 30
0.0000
 42
1.0000
  0
SEQEND
  8
0
  0
POLYLINE
  8
21
 66
1
 10
0.0000
 20
0.0000
 30
0.0000
 40
0.0000
 41
0.0000
 70
1
  0
VERTEX
  8
21
 10
32.0933
 20
6.4195
 30
0.0000
  0
VERTEX
  8
21
 10
32.0933
 20
-1.4545
 30
0.0000
 42
1.0000
  0
VERTEX
  8
21
 10
32.2457
 20
-1.4545
 30
0.0000
  0
VERTEX
  8
21
 10
32.2457
 20
6.4195
 30
0.0000
 42
1.0000
  0
SEQEND
  8
0
  0
POLYLINE
  8
21
 66
1
 10
0.0000
 20
0.0000
 30
0.0000
 40
0.0000
 41
0.0000
 70
1
  0
VERTEX
  8
21
 10
28.4134
 20
6.4734
 30
0.0000
  0
VERTEX
  8
21
 10
28.2864
 20
6.6004
 30
0.0000
 42
1.0000
  0
VERTEX
  8
21
 10
28.1786
 20
6.4926
 30
0.0000
  0
VERTEX
  8
21
 10
28.3056
 20
6.3656
 30
0.0000
 42
1.0000
  0
SEQEND
  8
0
  0
POLYLINE
  8
21
 66
1
 10
0.0000
 20
0.0000
 30
0.0000
 40
0.0000
 41
0.0000
 70
1
  0
VERTEX
  8
21
 10
28.2833
 20
6.4195
 30
0.0000
  0
VERTEX
  8
21
 10
28.2833
 20
-1.4545
 30
0.0000
 42
1.0000
  0
VERTEX
  8
21
 10
28.4357
 20
-1.4545
 30
0.0000
  0
VERTEX
  8
21
 10
28.4357
 20
6.4195
 30
0.0000
 42
1.0000
  0
SEQEND
  8
0
  0
POLYLINE
  8
21
 66
1
 10
0.0000
 20
0.0000
 30
0.0000
 40
0.0000
 41
0.0000
 70
1
  0
VERTEX
  8
21
 10
31.9155
 20
7.6387
 30
0.0000
  0
VERTEX
  8
21
 10
28.6135
 20
7.6387
 30
0.0000
 42
1.0000
  0
VERTEX
  8
21
 10
28.6135
 20
7.4863
 30
0.0000
  0
VERTEX
  8
21
 10
31.9155
 20
7.4863
 30
0.0000
 42
1.0000
  0
SEQEND
  8
0
  0
POLYLINE
  8
21
 66
1
 10
0.0000
 20
0.0000
 30
0.0000
 40
0.0000
 41
0.0000
 70
1
  0
VERTEX
  8
21
 10
32.2203
 20
7.1815
 30
0.0000
  0
VERTEX
  8
21
 10
32.2203
 20
6.5465
 30
0.0000
 42
1.0000
  0
VERTEX
  8
21
 10
32.3727
 20
6.5465
 30
0.0000
  0
VERTEX
  8
21
 10
32.3727
 20
7.1815
 30
0.0000
 42
1.0000
  0
SEQEND
  8
0
  0
POLYLINE
  8
21
 66
1
 10
0.0000
 20
0.0000
 30
0.0000
 40
0.0000
 41
0.0000
 70
1
  0
VERTEX
  8
21
 10
28.1563
 20
7.1815
 30
0.0000
  0
VERTEX
  8
21
 10
28.1563
 20
6.5465
 30
0.0000
 42
1.0000
  0
VERTEX
  8
21
 10
28.3087
 20
6.5465
 30
0.0000
  0
VERTEX
  8
21
 10
28.3087
 20
7.1815
 30
0.0000
 42
1.0000
  0
SEQEND
  8
0
  0
INSERT
  8
21
  2
RECT
 10
30.2645
 20
7.7022
 30
0.0000
 41
0.2794
 42
0.7620
 43
1.0000
 50
270.0000
  0
INSERT
  8
21
  2
RECT
 10
30.2645
 20
-2.7372
 30
0.0000
 41
0.2794
 42
0.7620
 43
1.0000
 50
270.0000
  0
INSERT
  8
17
  2
OCTAGONP
 10
30.2645
 20
8.8325
 30
0.0000
 41
1.4224
 42
1.4224
 43
1.0000
 50
270.0000
  0
INSERT
  8
29
  2
OCTAGONP
 10
30.2645
 20
8.8325
 30
0.0000
 41
1.6256
 42
1.6256
 43
1.0000
 50
270.0000
  0
INSERT
  8
30
  2
OCTAGONP
 10
30.2645
 20
8.8325
 30
0.0000
 41
1.6256
 42
1.6256
 43
1.0000
 50
270.0000
  0
INSERT
  8
17
  2
OCTAGONP
 10
30.2645
 20
-3.8675
 30
0.0000
 41
1.4224
 42
1.4224
 43
1.0000
 50
270.0000
  0
INSERT
  8
29
  2
OCTAGONP
 10
30.2645
 20
-3.8675
 30
0.0000
 41
1.6256
 42
1.6256
 43
1.0000
 50
270.0000
  0
INSERT
  8
30
  2
OCTAGONP
 10
30.2645
 20
-3.8675
 30
0.0000
 41
1.6256
 42
1.6256
 43
1.0000
 50
270.0000
  0
POLYLINE
  8
25
 66
1
 10
0.0000
 20
0.0000
 30
0.0000
 40
0.0000
 41
0.0000
 70
1
  0
VERTEX
  8
25
 10
32.1424
 20
2.4822
 30
0.0000
  0
VERTEX
  8
25
 10
31.3186
 20
2.4822
 30
0.0000
 42
1.0000
  0
VERTEX
  8
25
 10
31.3186
 20
2.4060
 30
0.0000
  0
VERTEX
  8
25
 10
32.1424
 20
2.4060
 30
0.0000
 42
1.0000
  0
SEQEND
  8
0
  0
POLYLINE
  8
25
 66
1
 10
0.0000
 20
0.0000
 30
0.0000
 40
0.0000
 41
0.0000
 70
1
  0
VERTEX
  8
25
 10
31.3567
 20
2.4441
 30
0.0000
  0
VERTEX
  8
25
 10
31.3567
 20
2.6729
 30
0.0000
 42
1.0000
  0
VERTEX
  8
25
 10
31.2805
 20
2.6729
 30
0.0000
  0
VERTEX
  8
25
 10
31.2805
 20
2.4441
 30
0.0000
 42
1.0000
  0
SEQEND
  8
0
  0
POLYLINE
  8
25
 66
1
 10
0.0000
 20
0.0000
 30
0.0000
 40
0.0000
 41
0.0000
 70
1
  0
VERTEX
  8
25
 10
31.7382
 20
2.6729
 30
0.0000
 42
1.0000
  0
VERTEX
  8
25
 10
31.8144
 20
2.6729
 30
0.0000
 42
1.0000
  0
VERTEX
  8
25
 10
31.2805
 20
2.6729
 30
0.0000
 42
1.0000
  0
VERTEX
  8
25
 10
31.3567
 20
2.6729
 30
0.0000
 42
-1.0000
  0
SEQEND
  8
0
  0
POLYLINE
  8
25
 66
1
 10
0.0000
 20
0.0000
 30
0.0000
 40
0.0000
 41
0.0000
 70
1
  0
VERTEX
  8
25
 10
31.7382
 20
2.6729
 30
0.0000
  0
VERTEX
  8
25
 10
31.7382
 20
2.4441
 30
0.0000
 42
1.0000
  0
VERTEX
  8
25
 10
31.8144
 20
2.4441
 30
0.0000
  0
VERTEX
  8
25
 10
31.8144
 20
2.6729
 30
0.0000
 42
1.0000
  0
SEQEND
  8
0
  0
POLYLINE
  8
25
 66
1
 10
0.0000
 20
0.0000
 30
0.0000
 40
0.0000
 41
0.0000
 70
1
  0
VERTEX
  8
25
 10
32.1254
 20
2.9358
 30
0.0000
  0
VERTEX
  8
25
 10
31.7592
 20
2.7528
 30
0.0000
 42
1.0000
  0
VERTEX
  8
25
 10
31.7933
 20
2.6846
 30
0.0000
  0
VERTEX
  8
25
 10
32.1594
 20
2.8677
 30
0.0000
 42
1.0000
  0
SEQEND
  8
0
  0
POLYLINE
  8
25
 66
1
 10
0.0000
 20
0.0000
 30
0.0000
 40
0.0000
 41
0.0000
 70
1
  0
VERTEX
  8
25
 10
31.3081
 20
3.3952
 30
0.0000
  0
VERTEX
  8
25
 10
31.9489
 20
3.2121
 30
0.0000
 42
1.0000
  0
VERTEX
  8
25
 10
31.9698
 20
3.2854
 30
0.0000
  0
VERTEX
  8
25
 10
31.3291
 20
3.4684
 30
0.0000
 42
1.0000
  0
SEQEND
  8
0
  0
POLYLINE
  8
25
 66
1
 10
0.0000
 20
0.0000
 30
0.0000
 40
0.0000
 41
0.0000
 70
1
  0
VERTEX
  8
25
 10
31.9974
 20
3.2487
 30
0.0000
  0
VERTEX
  8
25
 10
31.9974
 20
3.7064
 30
0.0000
 42
1.0000
  0
VERTEX
  8
25
 10
31.9212
 20
3.7064
 30
0.0000
  0
VERTEX
  8
25
 10
31.9212
 20
3.2487
 30
0.0000
 42
1.0000
  0
SEQEND
  8
0
  0
POLYLINE
  8
25
 66
1
 10
0.0000
 20
0.0000
 30
0.0000
 40
0.0000
 41
0.0000
 70
1
  0
VERTEX
  8
25
 10
31.7763
 20
3.5310
 30
0.0000
  0
VERTEX
  8
25
 10
32.1424
 20
3.5310
 30
0.0000
 42
1.0000
  0
VERTEX
  8
25
 10
32.1424
 20
3.6072
 30
0.0000
  0
VERTEX
  8
25
 10
31.7763
 20
3.6072
 30
0.0000
 42
1.0000
  0
SEQEND
  8
0
  0
POLYLINE
  8
27
 66
1
 10
0.0000
 20
0.0000
 30
0.0000
 40
0.0000
 41
0.0000
 70
1
  0
VERTEX
  8
27
 10
29.8731
 20
0.8019
 30
0.0000
 42
1.0000
  0
VERTEX
  8
27
 10
29.8731
 20
0.9035
 30
0.0000
 42
1.0000
  0
VERTEX
  8
27
 10
29.8731
 20
0.1528
 30
0.0000
 42
1.0000
  0
VERTEX
  8
27
 10
29.8731
 20
0.2544
 30
0.0000
 42
-1.0000
  0
SEQEND
  8
0
  0
POLYLINE
  8
27
 66
1
 10
0.0000
 20
0.0000
 30
0.0000
 40
0.0000
 41
0.0000
 70
1
  0
VERTEX
  8
27
 10
29.8731
 20
0.2544
 30
0.0000
 42
1.0000
  0
VERTEX
  8
27
 10
29.8731
 20
0.1528
 30
0.0000
 42
1.0000
  0
VERTEX
  8
27
 10
29.8731
 20
0.9035
 30
0.0000
 42
1.0000
  0
VERTEX
  8
27
 10
29.8731
 20
0.8019
 30
0.0000
 42
-1.0000
  0
SEQEND
  8
0
  0
POLYLINE
  8
27
 66
1
 10
0.0000
 20
0.0000
 30
0.0000
 40
0.0000
 41
0.0000
 70
1
  0
VERTEX
  8
27
 10
29.2889
 20
0.7370
 30
0.0000
 42
1.0000
  0
VERTEX
  8
27
 10
29.2889
 20
0.8386
 30
0.0000
 42
1.0000
  0
VERTEX
  8
27
 10
29.2889
 20
0.2177
 30
0.0000
 42
1.0000
  0
VERTEX
  8
27
 10
29.2889
 20
0.3193
 30
0.0000
 42
-1.0000
  0
SEQEND
  8
0
  0
POLYLINE
  8
27
 66
1
 10
0.0000
 20
0.0000
 30
0.0000
 40
0.0000
 41
0.0000
 70
1
  0
VERTEX
  8
27
 10
29.2889
 20
0.3193
 30
0.0000
 42
1.0000
  0
VERTEX
  8
27
 10
29.2889
 20
0.2177
 30
0.0000
 42
1.0000
  0
VERTEX
  8
27
 10
29.2889
 20
0.8386
 30
0.0000
 42
1.0000
  0
VERTEX
  8
27
 10
29.2889
 20
0.7370
 30
0.0000
 42
-1.0000
  0
SEQEND
  8
0
  0
POLYLINE
  8
27
 66
1
 10
0.0000
 20
0.0000
 30
0.0000
 40
0.0000
 41
0.0000
 70
1
  0
VERTEX
  8
27
 10
29.3214
 20
1.9449
 30
0.0000
 42
1.0000
  0
VERTEX
  8
27
 10
29.3214
 20
2.0465
 30
0.0000
 42
0.4142
  0
VERTEX
  8
27
 10
28.9785
 20
1.7036
 30
0.0000
 42
1.0000
  0
VERTEX
  8
27
 10
29.0801
 20
1.7036
 30
0.0000
 42
-0.4142
  0
SEQEND
  8
0
  0
POLYLINE
  8
27
 66
1
 10
0.0000
 20
0.0000
 30
0.0000
 40
0.0000
 41
0.0000
 70
1
  0
VERTEX
  8
27
 10
29.0801
 20
1.7036
 30
0.0000
 42
1.0000
  0
VERTEX
  8
27
 10
28.9785
 20
1.7036
 30
0.0000
 42
0.3252
  0
VERTEX
  8
27
 10
29.2733
 20
1.2982
 30
0.0000
 42
1.0000
  0
VERTEX
  8
27
 10
29.3046
 20
1.3949
 30
0.0000
 42
-0.3252
  0
SEQEND
  8
0
  0
POLYLINE
  8
27
 66
1
 10
0.0000
 20
0.0000
 30
0.0000
 40
0.0000
 41
0.0000
 70
1
  0
VERTEX
  8
27
 10
29.5118
 20
1.8633
 30
0.0000
 42
1.0000
  0
VERTEX
  8
27
 10
29.5854
 20
1.9333
 30
0.0000
 42
0.2053
  0
VERTEX
  8
27
 10
29.3214
 20
2.0465
 30
0.0000
 42
1.0000
  0
VERTEX
  8
27
 10
29.3214
 20
1.9449
 30
0.0000
 42
-0.2053
  0
SEQEND
  8
0
  0
POLYLINE
  8
27
 66
1
 10
0.0000
 20
0.0000
 30
0.0000
 40
0.0000
 41
0.0000
 70
1
  0
VERTEX
  8
27
 10
29.5157
 20
1.8596
 30
0.0000
  0
VERTEX
  8
27
 10
30.1648
 20
1.3079
 30
0.0000
 42
1.0000
  0
VERTEX
  8
27
 10
30.2306
 20
1.3853
 30
0.0000
  0
VERTEX
  8
27
 10
29.5815
 20
1.9370
 30
0.0000
 42
1.0000
  0
SEQEND
  8
0
  0
POLYLINE
  8
27
 66
1
 10
0.0000
 20
0.0000
 30
0.0000
 40
0.0000
 41
0.0000
 70
1
  0
VERTEX
  8
27
 10
30.2485
 20
1.3466
 30
0.0000
  0
VERTEX
  8
27
 10
30.2485
 20
1.9957
 30
0.0000
 42
1.0000
  0
VERTEX
  8
27
 10
30.1469
 20
1.9957
 30
0.0000
  0
VERTEX
  8
27
 10
30.1469
 20
1.3466
 30
0.0000
 42
1.0000
  0
SEQEND
  8
0
  0
POLYLINE
  8
27
 66
1
 10
0.0000
 20
0.0000
 30
0.0000
 40
0.0000
 41
0.0000
 70
1
  0
VERTEX
  8
27
 10
30.1977
 20
2.5954
 30
0.0000
  0
VERTEX
  8
27
 10
29.0293
 20
2.5954
 30
0.0000
 42
1.0000
  0
VERTEX
  8
27
 10
29.0293
 20
2.4938
 30
0.0000
  0
VERTEX
  8
27
 10
30.1977
 20
2.4938
 30
0.0000
 42
1.0000
  0
SEQEND
  8
0
  0
POLYLINE
  8
27
 66
1
 10
0.0000
 20
0.0000
 30
0.0000
 40
0.0000
 41
0.0000
 70
1
  0
VERTEX
  8
27
 10
28.9951
 20
3.1561
 30
0.0000
  0
VERTEX
  8
27
 10
29.7092
 20
2.5070
 30
0.0000
 42
1.0000
  0
VERTEX
  8
27
 10
29.7775
 20
2.5822
 30
0.0000
  0
VERTEX
  8
27
 10
29.0635
 20
3.2313
 30
0.0000
 42
1.0000
  0
SEQEND
  8
0
  0
POLYLINE
  8
27
 66
1
 10
0.0000
 20
0.0000
 30
0.0000
 40
0.0000
 41
0.0000
 70
1
  0
VERTEX
  8
27
 10
30.1734
 20
3.2383
 30
0.0000
  0
VERTEX
  8
27
 10
29.4594
 20
2.8488
 30
0.0000
 42
1.0000
  0
VERTEX
  8
27
 10
29.5080
 20
2.7596
 30
0.0000
  0
VERTEX
  8
27
 10
30.2220
 20
3.1491
 30
0.0000
 42
1.0000
  0
SEQEND
  8
0
  0
POINT
  8
23
 10
9.0000
 20
16.0000
 30
0.0000
  0
POLYLINE
  8
21
 66
1
 10
0.0000
 20
0.0000
 30
0.0000
 40
0.0000
 41
0.0000
 70
1
  0
VERTEX
  8
21
 10
6.9050
 20
13.0155
 30
0.0000
  0
VERTEX
  8
21
 10
11.0950
 20
13.0155
 30
0.0000
 42
1.0000
  0
VERTEX
  8
21
 10
11.0950
 20
13.1425
 30
0.0000
  0
VERTEX
  8
21
 10
6.9050
 20
13.1425
 30
0.0000
 42
1.0000
  0
SEQEND
  8
0
  0
POLYLINE
  8
21
 66
1
 10
0.0000
 20
0.0000
 30
0.0000
 40
0.0000
 41
0.0000
 70
1
  0
VERTEX
  8
21
 10
11.3555
 20
15.8389
 30
0.0000
  0
VERTEX
  8
21
 10
11.4705
 20
15.8929
 30
0.0000
 42
0.6345
  0
VERTEX
  8
21
 10
6.5295
 20
15.8929
 30
0.0000
  0
VERTEX
  8
21
 10
6.6445
 20
15.8389
 30
0.0000
 42
-0.6345
  0
SEQEND
  8
0
  0
POLYLINE
  8
21
 66
1
 10
0.0000
 20
0.0000
 30
0.0000
 40
0.0000
 41
0.0000
 70
1
  0
VERTEX
  8
21
 10
6.6440
 20
13.6211
 30
0.0000
  0
VERTEX
  8
21
 10
6.5290
 20
13.5671
 30
0.0000
 42
0.0570
  0
VERTEX
  8
21
 10
6.8551
 20
13.0397
 30
0.0000
  0
VERTEX
  8
21
 10
6.9549
 20
13.1183
 30
0.0000
 42
-0.0570
  0
SEQEND
  8
0
  0
POLYLINE
  8
21
 66
1
 10
0.0000
 20
0.0000
 30
0.0000
 40
0.0000
 41
0.0000
 70
1
  0
VERTEX
  8
21
 10
7.8640
 20
14.6665
 30
0.0000
  0
VERTEX
  8
21
 10
7.5960
 20
14.6665
 30
0.0000
 42
1.0000
  0
VERTEX
  8
21
 10
7.5960
 20
14.5395
 30
0.0000
  0
VERTEX
  8
21
 10
7.8640
 20
14.5395
 30
0.0000
 42
1.0000
  0
SEQEND
  8
0
  0
POLYLINE
  8
21
 66
1
 10
0.0000
 20
0.0000
 30
0.0000
 40
0.0000
 41
0.0000
 70
1
  0
VERTEX
  8
21
 10
10.4040
 20
14.6665
 30
0.0000
  0
VERTEX
  8
21
 10
10.1360
 20
14.6665
 30
0.0000
 42
1.0000
  0
VERTEX
  8
21
 10
10.1360
 20
14.5395
 30
0.0000
  0
VERTEX
  8
21
 10
10.4040
 20
14.5395
 30
0.0000
 42
1.0000
  0
SEQEND
  8
0
  0
POLYLINE
  8
21
 66
1
 10
0.0000
 20
0.0000
 30
0.0000
 40
0.0000
 41
0.0000
 70
1
  0
VERTEX
  8
21
 10
11.0451
 20
13.1183
 30
0.0000
  0
VERTEX
  8
21
 10
11.1449
 20
13.0397
 30
0.0000
 42
0.0595
  0
VERTEX
  8
21
 10
11.4824
 20
13.5917
 30
0.0000
  0
VERTEX
  8
21
 10
11.3670
 20
13.6447
 30
0.0000
 42
-0.0595
  0
SEQEND
  8
0
  0
INSERT
  8
17
  2
LONGP100
 10
9.0000
 20
14.7300
 30
0.0000
 41
1.3208
 42
1.3208
 43
1.0000
 50
90.0000
  0
INSERT
  8
29
  2
LONGP100
 10
9.0000
 20
14.7300
 30
0.0000
 41
1.5240
 42
1.5240
 43
1.0000
 50
90.0000
  0
INSERT
  8
30
  2
LONGP100
 10
9.0000
 20
14.7300
 30
0.0000
 41
1.5240
 42
1.5240
 43
1.0000
 50
90.0000
  0
INSERT
  8
17
  2
LONGP100
 10
11.5400
 20
14.7300
 30
0.0000
 41
1.3208
 42
1.3208
 43
1.0000
 50
90.0000
  0
INSERT
  8
29
  2
LONGP100
 10
11.5400
 20
14.7300
 30
0.0000
 41
1.5240
 42
1.5240
 43
1.0000
 50
90.0000
  0
INSERT
  8
30
  2
LONGP100
 10
11.5400
 20
14.7300
 30
0.0000
 41
1.5240
 42
1.5240
 43
1.0000
 50
90.0000
  0
INSERT
  8
17
  2
LONGP100
 10
6.4600
 20
14.7300
 30
0.0000
 41
1.3208
 42
1.3208
 43
1.0000
 50
90.0000
  0
INSERT
  8
29
  2
LONGP100
 10
6.4600
 20
14.7300
 30
0.0000
 41
1.5240
 42
1.5240
 43
1.0000
 50
90.0000
  0
INSERT
  8
30
  2
LONGP100
 10
6.4600
 20
14.7300
 30
0.0000
 41
1.5240
 42
1.5240
 43
1.0000
 50
90.0000
  0
POLYLINE
  8
27
 66
1
 10
0.0000
 20
0.0000
 30
0.0000
 40
0.0000
 41
0.0000
 70
1
  0
VERTEX
  8
27
 10
4.0950
 20
19.3488
 30
0.0000
 42
1.0000
  0
VERTEX
  8
27
 10
4.2220
 20
19.3488
 30
0.0000
 42
0.4142
  0
VERTEX
  8
27
 10
3.8728
 20
19.6980
 30
0.0000
 42
1.0000
  0
VERTEX
  8
27
 10
3.8728
 20
19.5710
 30
0.0000
 42
-0.4142
  0
SEQEND
  8
0
  0
POLYLINE
  8
27
 66
1
 10
0.0000
 20
0.0000
 30
0.0000
 40
0.0000
 41
0.0000
 70
1
  0
VERTEX
  8
27
 10
3.8727
 20
19.5710
 30
0.0000
 42
1.0000
  0
VERTEX
  8
27
 10
3.8728
 20
19.6980
 30
0.0000
 42
0.3252
  0
VERTEX
  8
27
 10
3.4631
 20
19.4001
 30
0.0000
 42
1.0000
  0
VERTEX
  8
27
 10
3.5839
 20
19.3609
 30
0.0000
 42
-0.3252
  0
SEQEND
  8
0
  0
POLYLINE
  8
27
 66
1
 10
0.0000
 20
0.0000
 30
0.0000
 40
0.0000
 41
0.0000
 70
1
  0
VERTEX
  8
27
 10
4.0195
 20
19.1725
 30
0.0000
 42
1.0000
  0
VERTEX
  8
27
 10
4.1070
 20
19.0805
 30
0.0000
 42
0.2053
  0
VERTEX
  8
27
 10
4.2220
 20
19.3488
 30
0.0000
 42
1.0000
  0
VERTEX
  8
27
 10
4.0950
 20
19.3487
 30
0.0000
 42
-0.2053
  0
SEQEND
  8
0
  0
POLYLINE
  8
27
 66
1
 10
0.0000
 20
0.0000
 30
0.0000
 40
0.0000
 41
0.0000
 70
1
  0
VERTEX
  8
27
 10
4.0149
 20
19.1676
 30
0.0000
  0
VERTEX
  8
27
 10
3.4751
 20
18.5326
 30
0.0000
 42
1.0000
  0
VERTEX
  8
27
 10
3.5719
 20
18.4504
 30
0.0000
  0
VERTEX
  8
27
 10
4.1116
 20
19.0854
 30
0.0000
 42
1.0000
  0
SEQEND
  8
0
  0
POLYLINE
  8
27
 66
1
 10
0.0000
 20
0.0000
 30
0.0000
 40
0.0000
 41
0.0000
 70
1
  0
VERTEX
  8
27
 10
3.5235
 20
18.4280
 30
0.0000
  0
VERTEX
  8
27
 10
4.1585
 20
18.4280
 30
0.0000
 42
1.0000
  0
VERTEX
  8
27
 10
4.1585
 20
18.5550
 30
0.0000
  0
VERTEX
  8
27
 10
3.5235
 20
18.5550
 30
0.0000
 42
1.0000
  0
SEQEND
  8
0
  0
POLYLINE
  8
27
 66
1
 10
0.0000
 20
0.0000
 30
0.0000
 40
0.0000
 41
0.0000
 70
1
  0
VERTEX
  8
27
 10
4.7681
 20
18.4915
 30
0.0000
  0
VERTEX
  8
27
 10
4.7681
 20
19.6345
 30
0.0000
 42
1.0000
  0
VERTEX
  8
27
 10
4.6411
 20
19.6345
 30
0.0000
  0
VERTEX
  8
27
 10
4.6411
 20
18.4915
 30
0.0000
 42
1.0000
  0
SEQEND
  8
0
  0
POLYLINE
  8
27
 66
1
 10
0.0000
 20
0.0000
 30
0.0000
 40
0.0000
 41
0.0000
 70
1
  0
VERTEX
  8
27
 10
4.6491
 20
19.6037
 30
0.0000
  0
VERTEX
  8
27
 10
5.2841
 20
18.4607
 30
0.0000
 42
1.0000
  0
VERTEX
  8
27
 10
5.3951
 20
18.5223
 30
0.0000
  0
VERTEX
  8
27
 10
4.7601
 20
19.6653
 30
0.0000
 42
1.0000
  0
SEQEND
  8
0
  0
POLYLINE
  8
27
 66
1
 10
0.0000
 20
0.0000
 30
0.0000
 40
0.0000
 41
0.0000
 70
1
  0
VERTEX
  8
27
 10
5.4031
 20
18.4915
 30
0.0000
  0
VERTEX
  8
27
 10
5.4031
 20
19.6345
 30
0.0000
 42
1.0000
  0
VERTEX
  8
27
 10
5.2761
 20
19.6345
 30
0.0000
  0
VERTEX
  8
27
 10
5.2761
 20
18.4915
 30
0.0000
 42
1.0000
  0
SEQEND
  8
0
  0
POLYLINE
  8
27
 66
1
 10
0.0000
 20
0.0000
 30
0.0000
 40
0.0000
 41
0.0000
 70
1
  0
VERTEX
  8
27
 10
6.4572
 20
19.3488
 30
0.0000
 42
1.0000
  0
VERTEX
  8
27
 10
6.5842
 20
19.3488
 30
0.0000
 42
0.4142
  0
VERTEX
  8
27
 10
6.2350
 20
19.6980
 30
0.0000
 42
1.0000
  0
VERTEX
  8
27
 10
6.2350
 20
19.5710
 30
0.0000
 42
-0.4142
  0
SEQEND
  8
0
  0
POLYLINE
  8
27
 66
1
 10
0.0000
 20
0.0000
 30
0.0000
 40
0.0000
 41
0.0000
 70
1
  0
VERTEX
  8
27
 10
6.2349
 20
19.5710
 30
0.0000
 42
1.0000
  0
VERTEX
  8
27
 10
6.2350
 20
19.6980
 30
0.0000
 42
0.3252
  0
VERTEX
  8
27
 10
5.8253
 20
19.4001
 30
0.0000
 42
1.0000
  0
VERTEX
  8
27
 10
5.9461
 20
19.3609
 30
0.0000
 42
-0.3252
  0
SEQEND
  8
0
  0
POLYLINE
  8
27
 66
1
 10
0.0000
 20
0.0000
 30
0.0000
 40
0.0000
 41
0.0000
 70
1
  0
VERTEX
  8
27
 10
6.3817
 20
19.1725
 30
0.0000
 42
1.0000
  0
VERTEX
  8
27
 10
6.4692
 20
19.0805
 30
0.0000
 42
0.2053
  0
VERTEX
  8
27
 10
6.5842
 20
19.3488
 30
0.0000
 42
1.0000
  0
VERTEX
  8
27
 10
6.4572
 20
19.3487
 30
0.0000
 42
-0.2053
  0
SEQEND
  8
0
  0
POLYLINE
  8
27
 66
1
 10
0.0000
 20
0.0000
 30
0.0000
 40
0.0000
 41
0.0000
 70
1
  0
VERTEX
  8
27
 10
6.3771
 20
19.1676
 30
0.0000
  0
VERTEX
  8
27
 10
5.8373
 20
18.5326
 30
0.0000
 42
1.0000
  0
VERTEX
  8
27
 10
5.9341
 20
18.4504
 30
0.0000
  0
VERTEX
  8
27
 10
6.4738
 20
19.0854
 30
0.0000
 42
1.0000
  0
SEQEND
  8
0
  0
POLYLINE
  8
27
 66
1
 10
0.0000
 20
0.0000
 30
0.0000
 40
0.0000
 41
0.0000
 70
1
  0
VERTEX
  8
27
 10
5.8857
 20
18.4280
 30
0.0000
  0
VERTEX
  8
27
 10
6.5207
 20
18.4280
 30
0.0000
 42
1.0000
  0
VERTEX
  8
27
 10
6.5207
 20
18.5550
 30
0.0000
  0
VERTEX
  8
27
 10
5.8857
 20
18.5550
 30
0.0000
 42
1.0000
  0
SEQEND
  8
0
  0
POLYLINE
  8
27
 66
1
 10
0.0000
 20
0.0000
 30
0.0000
 40
0.0000
 41
0.0000
 70
1
  0
VERTEX
  8
27
 10
7.6002
 20
19.3488
 30
0.0000
 42
1.0000
  0
VERTEX
  8
27
 10
7.7272
 20
19.3488
 30
0.0000
 42
0.4142
  0
VERTEX
  8
27
 10
7.3780
 20
19.6980
 30
0.0000
 42
1.0000
  0
VERTEX
  8
27
 10
7.3780
 20
19.5710
 30
0.0000
 42
-0.4142
  0
SEQEND
  8
0
  0
POLYLINE
  8
27
 66
1
 10
0.0000
 20
0.0000
 30
0.0000
 40
0.0000
 41
0.0000
 70
1
  0
VERTEX
  8
27
 10
7.3779
 20
19.5710
 30
0.0000
 42
1.0000
  0
VERTEX
  8
27
 10
7.3780
 20
19.6980
 30
0.0000
 42
0.3252
  0
VERTEX
  8
27
 10
6.9683
 20
19.4001
 30
0.0000
 42
1.0000
  0
VERTEX
  8
27
 10
7.0891
 20
19.3609
 30
0.0000
 42
-0.3252
  0
SEQEND
  8
0
  0
POLYLINE
  8
27
 66
1
 10
0.0000
 20
0.0000
 30
0.0000
 40
0.0000
 41
0.0000
 70
1
  0
VERTEX
  8
27
 10
7.5247
 20
19.1725
 30
0.0000
 42
1.0000
  0
VERTEX
  8
27
 10
7.6122
 20
19.0805
 30
0.0000
 42
0.2053
  0
VERTEX
  8
27
 10
7.7272
 20
19.3488
 30
0.0000
 42
1.0000
  0
VERTEX
  8
27
 10
7.6002
 20
19.3487
 30
0.0000
 42
-0.2053
  0
SEQEND
  8
0
  0
POLYLINE
  8
27
 66
1
 10
0.0000
 20
0.0000
 30
0.0000
 40
0.0000
 41
0.0000
 70
1
  0
VERTEX
  8
27
 10
7.5201
 20
19.1676
 30
0.0000
  0
VERTEX
  8
27
 10
6.9803
 20
18.5326
 30
0.0000
 42
1.0000
  0
VERTEX
  8
27
 10
7.0771
 20
18.4504
 30
0.0000
  0
VERTEX
  8
27
 10
7.6168
 20
19.0854
 30
0.0000
 42
1.0000
  0
SEQEND
  8
0
  0
POLYLINE
  8
27
 66
1
 10
0.0000
 20
0.0000
 30
0.0000
 40
0.0000
 41
0.0000
 70
1
  0
VERTEX
  8
27
 10
7.0287
 20
18.4280
 30
0.0000
  0
VERTEX
  8
27
 10
7.6637
 20
18.4280
 30
0.0000
 42
1.0000
  0
VERTEX
  8
27
 10
7.6637
 20
18.5550
 30
0.0000
  0
VERTEX
  8
27
 10
7.0287
 20
18.5550
 30
0.0000
 42
1.0000
  0
SEQEND
  8
0
  0
POLYLINE
  8
27
 66
1
 10
0.0000
 20
0.0000
 30
0.0000
 40
0.0000
 41
0.0000
 70
1
  0
VERTEX
  8
27
 10
8.7432
 20
19.3488
 30
0.0000
 42
1.0000
  0
VERTEX
  8
27
 10
8.8702
 20
19.3488
 30
0.0000
 42
0.4142
  0
VERTEX
  8
27
 10
8.5210
 20
19.6980
 30
0.0000
 42
1.0000
  0
VERTEX
  8
27
 10
8.5210
 20
19.5710
 30
0.0000
 42
-0.4142
  0
SEQEND
  8
0
  0
POLYLINE
  8
27
 66
1
 10
0.0000
 20
0.0000
 30
0.0000
 40
0.0000
 41
0.0000
 70
1
  0
VERTEX
  8
27
 10
8.5209
 20
19.5710
 30
0.0000
 42
1.0000
  0
VERTEX
  8
27
 10
8.5210
 20
19.6980
 30
0.0000
 42
0.3252
  0
VERTEX
  8
27
 10
8.1113
 20
19.4001
 30
0.0000
 42
1.0000
  0
VERTEX
  8
27
 10
8.2321
 20
19.3609
 30
0.0000
 42
-0.3252
  0
SEQEND
  8
0
  0
POLYLINE
  8
27
 66
1
 10
0.0000
 20
0.0000
 30
0.0000
 40
0.0000
 41
0.0000
 70
1
  0
VERTEX
  8
27
 10
8.6677
 20
19.1725
 30
0.0000
 42
1.0000
  0
VERTEX
  8
27
 10
8.7552
 20
19.0805
 30
0.0000
 42
0.2053
  0
VERTEX
  8
27
 10
8.8702
 20
19.3488
 30
0.0000
 42
1.0000
  0
VERTEX
  8
27
 10
8.7432
 20
19.3487
 30
0.0000
 42
-0.2053
  0
SEQEND
  8
0
  0
POLYLINE
  8
27
 66
1
 10
0.0000
 20
0.0000
 30
0.0000
 40
0.0000
 41
0.0000
 70
1
  0
VERTEX
  8
27
 10
8.6631
 20
19.1676
 30
0.0000
  0
VERTEX
  8
27
 10
8.1233
 20
18.5326
 30
0.0000
 42
1.0000
  0
VERTEX
  8
27
 10
8.2201
 20
18.4504
 30
0.0000
  0
VERTEX
  8
27
 10
8.7598
 20
19.0854
 30
0.0000
 42
1.0000
  0
SEQEND
  8
0
  0
POLYLINE
  8
27
 66
1
 10
0.0000
 20
0.0000
 30
0.0000
 40
0.0000
 41
0.0000
 70
1
  0
VERTEX
  8
27
 10
8.1717
 20
18.4280
 30
0.0000
  0
VERTEX
  8
27
 10
8.8067
 20
18.4280
 30
0.0000
 42
1.0000
  0
VERTEX
  8
27
 10
8.8067
 20
18.5550
 30
0.0000
  0
VERTEX
  8
27
 10
8.1717
 20
18.5550
 30
0.0000
 42
1.0000
  0
SEQEND
  8
0
  0
POLYLINE
  8
27
 66
1
 10
0.0000
 20
0.0000
 30
0.0000
 40
0.0000
 41
0.0000
 70
1
  0
VERTEX
  8
27
 10
9.8862
 20
19.3488
 30
0.0000
 42
1.0000
  0
VERTEX
  8
27
 10
10.0132
 20
19.3488
 30
0.0000
 42
0.4142
  0
VERTEX
  8
27
 10
9.6639
 20
19.6980
 30
0.0000
 42
1.0000
  0
VERTEX
  8
27
 10
9.6639
 20
19.5710
 30
0.0000
 42
-0.4142
  0
SEQEND
  8
0
  0
POLYLINE
  8
27
 66
1
 10
0.0000
 20
0.0000
 30
0.0000
 40
0.0000
 41
0.0000
 70
1
  0
VERTEX
  8
27
 10
9.6639
 20
19.5710
 30
0.0000
 42
1.0000
  0
VERTEX
  8
27
 10
9.6640
 20
19.6980
 30
0.0000
 42
0.3252
  0
VERTEX
  8
27
 10
9.2543
 20
19.4001
 30
0.0000
 42
1.0000
  0
VERTEX
  8
27
 10
9.3751
 20
19.3609
 30
0.0000
 42
-0.3252
  0
SEQEND
  8
0
  0
POLYLINE
  8
27
 66
1
 10
0.0000
 20
0.0000
 30
0.0000
 40
0.0000
 41
0.0000
 70
1
  0
VERTEX
  8
27
 10
9.8107
 20
19.1725
 30
0.0000
 42
1.0000
  0
VERTEX
  8
27
 10
9.8982
 20
19.0805
 30
0.0000
 42
0.2053
  0
VERTEX
  8
27
 10
10.0132
 20
19.3488
 30
0.0000
 42
1.0000
  0
VERTEX
  8
27
 10
9.8862
 20
19.3487
 30
0.0000
 42
-0.2053
  0
SEQEND
  8
0
  0
POLYLINE
  8
27
 66
1
 10
0.0000
 20
0.0000
 30
0.0000
 40
0.0000
 41
0.0000
 70
1
  0
VERTEX
  8
27
 10
9.8061
 20
19.1676
 30
0.0000
  0
VERTEX
  8
27
 10
9.2663
 20
18.5326
 30
0.0000
 42
1.0000
  0
VERTEX
  8
27
 10
9.3631
 20
18.4504
 30
0.0000
  0
VERTEX
  8
27
 10
9.9028
 20
19.0854
 30
0.0000
 42
1.0000
  0
SEQEND
  8
0
  0
POLYLINE
  8
27
 66
1
 10
0.0000
 20
0.0000
 30
0.0000
 40
0.0000
 41
0.0000
 70
1
  0
VERTEX
  8
27
 10
9.3147
 20
18.4280
 30
0.0000
  0
VERTEX
  8
27
 10
9.9497
 20
18.4280
 30
0.0000
 42
1.0000
  0
VERTEX
  8
27
 10
9.9497
 20
18.5550
 30
0.0000
  0
VERTEX
  8
27
 10
9.3147
 20
18.5550
 30
0.0000
 42
1.0000
  0
SEQEND
  8
0
  0
POINT
  8
23
 10
44.0000
 20
14.0000
 30
0.0000
  0
POLYLINE
  8
21
 66
1
 10
0.0000
 20
0.0000
 30
0.0000
 40
0.0000
 41
0.0000
 70
1
  0
VERTEX
  8
21
 10
46.0950
 20
16.9845
 30
0.0000
  0
VERTEX
  8
21
 10
41.9050
 20
16.9845
 30
0.0000
 42
1.0000
  0
VERTEX
  8
21
 10
41.9050
 20
16.8575
 30
0.0000
  0
VERTEX
  8
21
 10
46.0950
 20
16.8575
 30
0.0000
 42
1.0000
  0
SEQEND
  8
0
  0
POLYLINE
  8
21
 66
1
 10
0.0000
 20
0.0000
 30
0.0000
 40
0.0000
 41
0.0000
 70
1
  0
VERTEX
  8
21
 10
41.6445
 20
14.1611
 30
0.0000
  0
VERTEX
  8
21
 10
41.5295
 20
14.1071
 30
0.0000
 42
0.6345
  0
VERTEX
  8
21
 10
46.4705
 20
14.1071
 30
0.0000
  0
VERTEX
  8
21
 10
46.3555
 20
14.1611
 30
0.0000
 42
-0.6345
  0
SEQEND
  8
0
  0
POLYLINE
  8
21
 66
1
 10
0.0000
 20
0.0000
 30
0.0000
 40
0.0000
 41
0.0000
 70
1
  0
VERTEX
  8
21
 10
46.3560
 20
16.3789
 30
0.0000
  0
VERTEX
  8
21
 10
46.4710
 20
16.4329
 30
0.0000
 42
0.0570
  0
VERTEX
  8
21
 10
46.1449
 20
16.9603
 30
0.0000
  0
VERTEX
  8
21
 10
46.0451
 20
16.8817
 30
0.0000
 42
-0.0570
  0
SEQEND
  8
0
  0
POLYLINE
  8
21
 66
1
 10
0.0000
 20
0.0000
 30
0.0000
 40
0.0000
 41
0.0000
 70
1
  0
VERTEX
  8
21
 10
45.1360
 20
15.3335
 30
0.0000
  0
VERTEX
  8
21
 10
45.4040
 20
15.3335
 30
0.0000
 42
1.0000
  0
VERTEX
  8
21
 10
45.4040
 20
15.4605
 30
0.0000
  0
VERTEX
  8
21
 10
45.1360
 20
15.4605
 30
0.0000
 42
1.0000
  0
SEQEND
  8
0
  0
POLYLINE
  8
21
 66
1
 10
0.0000
 20
0.0000
 30
0.0000
 40
0.0000
 41
0.0000
 70
1
  0
VERTEX
  8
21
 10
42.5960
 20
15.3335
 30
0.0000
  0
VERTEX
  8
21
 10
42.8640
 20
15.3335
 30
0.0000
 42
1.0000
  0
VERTEX
  8
21
 10
42.8640
 20
15.4605
 30
0.0000
  0
VERTEX
  8
21
 10
42.5960
 20
15.4605
 30
0.0000
 42
1.0000
  0
SEQEND
  8
0
  0
POLYLINE
  8
21
 66
1
 10
0.0000
 20
0.0000
 30
0.0000
 40
0.0000
 41
0.0000
 70
1
  0
VERTEX
  8
21
 10
41.9549
 20
16.8817
 30
0.0000
  0
VERTEX
  8
21
 10
41.8551
 20
16.9603
 30
0.0000
 42
0.0595
  0
VERTEX
  8
21
 10
41.5176
 20
16.4083
 30
0.0000
  0
VERTEX
  8
21
 10
41.6330
 20
16.3553
 30
0.0000
 42
-0.0595
  0
SEQEND
  8
0
  0
INSERT
  8
17
  2
LONGP100
 10
44.0000
 20
15.2700
 30
0.0000
 41
1.3208
 42
1.3208
 43
1.0000
 50
270.0000
  0
INSERT
  8
29
  2
LONGP100
 10
44.0000
 20
15.2700
 30
0.0000
 41
1.5240
 42
1.5240
 43
1.0000
 50
270.0000
  0
INSERT
  8
30
  2
LONGP100
 10
44.0000
 20
15.2700
 30
0.0000
 41
1.5240
 42
1.5240
 43
1.0000
 50
270.0000
  0
INSERT
  8
17
  2
LONGP100
 10
41.4600
 20
15.2700
 30
0.0000
 41
1.3208
 42
1.3208
 43
1.0000
 50
270.0000
  0
INSERT
  8
29
  2
LONGP100
 10
41.4600
 20
15.2700
 30
0.0000
 41
1.5240
 42
1.5240
 43
1.0000
 50
270.0000
  0
INSERT
  8
30
  2
LONGP100
 10
41.4600
 20
15.2700
 30
0.0000
 41
1.5240
 42
1.5240
 43
1.0000
 50
270.0000
  0
INSERT
  8
17
  2
LONGP100
 10
46.5400
 20
15.2700
 30
0.0000
 41
1.3208
 42
1.3208
 43
1.0000
 50
270.0000
  0
INSERT
  8
29
  2
LONGP100
 10
46.5400
 20
15.2700
 30
0.0000
 41
1.5240
 42
1.5240
 43
1.0000
 50
270.0000
  0
INSERT
  8
30
  2
LONGP100
 10
46.5400
 20
15.2700
 30
0.0000
 41
1.5240
 42
1.5240
 43
1.0000
 50
270.0000
  0
POLYLINE
  8
25
 66
1
 10
0.0000
 20
0.0000
 30
0.0000
 40
0.0000
 41
0.0000
 70
1
  0
VERTEX
  8
25
 10
45.1557
 20
11.0155
 30
0.0000
  0
VERTEX
  8
25
 10
45.1557
 20
12.1585
 30
0.0000
 42
1.0000
  0
VERTEX
  8
25
 10
45.0287
 20
12.1585
 30
0.0000
  0
VERTEX
  8
25
 10
45.0287
 20
11.0155
 30
0.0000
 42
1.0000
  0
SEQEND
  8
0
  0
POLYLINE
  8
25
 66
1
 10
0.0000
 20
0.0000
 30
0.0000
 40
0.0000
 41
0.0000
 70
1
  0
VERTEX
  8
25
 10
44.7747
 20
12.0950
 30
0.0000
  0
VERTEX
  8
25
 10
45.4097
 20
12.0950
 30
0.0000
 42
1.0000
  0
VERTEX
  8
25
 10
45.4097
 20
12.2220
 30
0.0000
  0
VERTEX
  8
25
 10
44.7747
 20
12.2220
 30
0.0000
 42
1.0000
  0
SEQEND
  8
0
  0
POLYLINE
  8
25
 66
1
 10
0.0000
 20
0.0000
 30
0.0000
 40
0.0000
 41
0.0000
 70
1
  0
VERTEX
  8
25
 10
46.4130
 20
11.8727
 30
0.0000
 42
1.0000
  0
VERTEX
  8
25
 10
46.5400
 20
11.8727
 30
0.0000
 42
0.4142
  0
VERTEX
  8
25
 10
46.1908
 20
12.2220
 30
0.0000
 42
1.0000
  0
VERTEX
  8
25
 10
46.1908
 20
12.0950
 30
0.0000
 42
-0.4142
  0
SEQEND
  8
0
  0
POLYLINE
  8
25
 66
1
 10
0.0000
 20
0.0000
 30
0.0000
 40
0.0000
 41
0.0000
 70
1
  0
VERTEX
  8
25
 10
46.1907
 20
12.0950
 30
0.0000
 42
1.0000
  0
VERTEX
  8
25
 10
46.1908
 20
12.2220
 30
0.0000
 42
0.3252
  0
VERTEX
  8
25
 10
45.7811
 20
11.9241
 30
0.0000
 42
1.0000
  0
VERTEX
  8
25
 10
45.9019
 20
11.8849
 30
0.0000
 42
-0.3252
  0
SEQEND
  8
0
  0
POLYLINE
  8
25
 66
1
 10
0.0000
 20
0.0000
 30
0.0000
 40
0.0000
 41
0.0000
 70
1
  0
VERTEX
  8
25
 10
46.3375
 20
11.6965
 30
0.0000
 42
1.0000
  0
VERTEX
  8
25
 10
46.4250
 20
11.6045
 30
0.0000
 42
0.2053
  0
VERTEX
  8
25
 10
46.5400
 20
11.8728
 30
0.0000
 42
1.0000
  0
VERTEX
  8
25
 10
46.4130
 20
11.8727
 30
0.0000
 42
-0.2053
  0
SEQEND
  8
0
  0
POLYLINE
  8
25
 66
1
 10
0.0000
 20
0.0000
 30
0.0000
 40
0.0000
 41
0.0000
 70
1
  0
VERTEX
  8
25
 10
46.3329
 20
11.6916
 30
0.0000
  0
VERTEX
  8
25
 10
45.7931
 20
11.0566
 30
0.0000
 42
1.0000
  0
VERTEX
  8
25
 10
45.8899
 20
10.9744
 30
0.0000
  0
VERTEX
  8
25
 10
46.4296
 20
11.6094
 30
0.0000
 42
1.0000
  0
SEQEND
  8
0
  0
POLYLINE
  8
25
 66
1
 10
0.0000
 20
0.0000
 30
0.0000
 40
0.0000
 41
0.0000
 70
1
  0
VERTEX
  8
25
 10
45.8415
 20
10.9520
 30
0.0000
  0
VERTEX
  8
25
 10
46.4765
 20
10.9520
 30
0.0000
 42
1.0000
  0
VERTEX
  8
25
 10
46.4765
 20
11.0790
 30
0.0000
  0
VERTEX
  8
25
 10
45.8415
 20
11.0790
 30
0.0000
 42
1.0000
  0
SEQEND
  8
0
  0
POLYLINE
  8
27
 66
1
 10
0.0000
 20
0.0000
 30
0.0000
 40
0.0000
 41
0.0000
 70
1
  0
VERTEX
  8
27
 10
37.6218
 20
11.2228
 30
0.0000
 42
1.0000
  0
VERTEX
  8
27
 10
37.7488
 20
11.2228
 30
0.0000
 42
0.4142
  0
VERTEX
  8
27
 10
37.3996
 20
11.5720
 30
0.0000
 42
1.0000
  0
VERTEX
  8
27
 10
37.3996
 20
11.4450
 30
0.0000
 42
-0.4142
  0
SEQEND
  8
0
  0
POLYLINE
  8
27
 66
1
 10
0.0000
 20
0.0000
 30
0.0000
 40
0.0000
 41
0.0000
 70
1
  0
VERTEX
  8
27
 10
37.3995
 20
11.4450
 30
0.0000
 42
1.0000
  0
VERTEX
  8
27
 10
37.3996
 20
11.5720
 30
0.0000
 42
0.3252
  0
VERTEX
  8
27
 10
36.9899
 20
11.2741
 30
0.0000
 42
1.0000
  0
VERTEX
  8
27
 10
37.1107
 20
11.2349
 30
0.0000
 42
-0.3252
  0
SEQEND
  8
0
  0
POLYLINE
  8
27
 66
1
 10
0.0000
 20
0.0000
 30
0.0000
 40
0.0000
 41
0.0000
 70
1
  0
VERTEX
  8
27
 10
37.5463
 20
11.0465
 30
0.0000
 42
1.0000
  0
VERTEX
  8
27
 10
37.6338
 20
10.9545
 30
0.0000
 42
0.2053
  0
VERTEX
  8
27
 10
37.7488
 20
11.2228
 30
0.0000
 42
1.0000
  0
VERTEX
  8
27
 10
37.6218
 20
11.2227
 30
0.0000
 42
-0.2053
  0
SEQEND
  8
0
  0
POLYLINE
  8
27
 66
1
 10
0.0000
 20
0.0000
 30
0.0000
 40
0.0000
 41
0.0000
 70
1
  0
VERTEX
  8
27
 10
37.5417
 20
11.0416
 30
0.0000
  0
VERTEX
  8
27
 10
37.0019
 20
10.4066
 30
0.0000
 42
1.0000
  0
VERTEX
  8
27
 10
37.0987
 20
10.3244
 30
0.0000
  0
VERTEX
  8
27
 10
37.6384
 20
10.9594
 30
0.0000
 42
1.0000
  0
SEQEND
  8
0
  0
POLYLINE
  8
27
 66
1
 10
0.0000
 20
0.0000
 30
0.0000
 40
0.0000
 41
0.0000
 70
1
  0
VERTEX
  8
27
 10
37.0503
 20
10.3020
 30
0.0000
  0
VERTEX
  8
27
 10
37.6853
 20
10.3020
 30
0.0000
 42
1.0000
  0
VERTEX
  8
27
 10
37.6853
 20
10.4290
 30
0.0000
  0
VERTEX
  8
27
 10
37.0503
 20
10.4290
 30
0.0000
 42
1.0000
  0
SEQEND
  8
0
  0
POLYLINE
  8
27
 66
1
 10
0.0000
 20
0.0000
 30
0.0000
 40
0.0000
 41
0.0000
 70
1
  0
VERTEX
  8
27
 10
38.2949
 20
10.3655
 30
0.0000
  0
VERTEX
  8
27
 10
38.2949
 20
11.5085
 30
0.0000
 42
1.0000
  0
VERTEX
  8
27
 10
38.1679
 20
11.5085
 30
0.0000
  0
VERTEX
  8
27
 10
38.1679
 20
10.3655
 30
0.0000
 42
1.0000
  0
SEQEND
  8
0
  0
POLYLINE
  8
27
 66
1
 10
0.0000
 20
0.0000
 30
0.0000
 40
0.0000
 41
0.0000
 70
1
  0
VERTEX
  8
27
 10
38.1759
 20
11.4777
 30
0.0000
  0
VERTEX
  8
27
 10
38.8109
 20
10.3347
 30
0.0000
 42
1.0000
  0
VERTEX
  8
27
 10
38.9219
 20
10.3963
 30
0.0000
  0
VERTEX
  8
27
 10
38.2869
 20
11.5393
 30
0.0000
 42
1.0000
  0
SEQEND
  8
0
  0
POLYLINE
  8
27
 66
1
 10
0.0000
 20
0.0000
 30
0.0000
 40
0.0000
 41
0.0000
 70
1
  0
VERTEX
  8
27
 10
38.9299
 20
10.3655
 30
0.0000
  0
VERTEX
  8
27
 10
38.9299
 20
11.5085
 30
0.0000
 42
1.0000
  0
VERTEX
  8
27
 10
38.8029
 20
11.5085
 30
0.0000
  0
VERTEX
  8
27
 10
38.8029
 20
10.3655
 30
0.0000
 42
1.0000
  0
SEQEND
  8
0
  0
POLYLINE
  8
27
 66
1
 10
0.0000
 20
0.0000
 30
0.0000
 40
0.0000
 41
0.0000
 70
1
  0
VERTEX
  8
27
 10
39.9840
 20
11.2228
 30
0.0000
 42
1.0000
  0
VERTEX
  8
27
 10
40.1110
 20
11.2228
 30
0.0000
 42
0.4142
  0
VERTEX
  8
27
 10
39.7617
 20
11.5720
 30
0.0000
 42
1.0000
  0
VERTEX
  8
27
 10
39.7617
 20
11.4450
 30
0.0000
 42
-0.4142
  0
SEQEND
  8
0
  0
POLYLINE
  8
27
 66
1
 10
0.0000
 20
0.0000
 30
0.0000
 40
0.0000
 41
0.0000
 70
1
  0
VERTEX
  8
27
 10
39.7617
 20
11.4450
 30
0.0000
 42
1.0000
  0
VERTEX
  8
27
 10
39.7618
 20
11.5720
 30
0.0000
 42
0.3252
  0
VERTEX
  8
27
 10
39.3521
 20
11.2741
 30
0.0000
 42
1.0000
  0
VERTEX
  8
27
 10
39.4729
 20
11.2349
 30
0.0000
 42
-0.3252
  0
SEQEND
  8
0
  0
POLYLINE
  8
27
 66
1
 10
0.0000
 20
0.0000
 30
0.0000
 40
0.0000
 41
0.0000
 70
1
  0
VERTEX
  8
27
 10
39.9085
 20
11.0465
 30
0.0000
 42
1.0000
  0
VERTEX
  8
27
 10
39.9960
 20
10.9545
 30
0.0000
 42
0.2053
  0
VERTEX
  8
27
 10
40.1110
 20
11.2228
 30
0.0000
 42
1.0000
  0
VERTEX
  8
27
 10
39.9840
 20
11.2227
 30
0.0000
 42
-0.2053
  0
SEQEND
  8
0
  0
POLYLINE
  8
27
 66
1
 10
0.0000
 20
0.0000
 30
0.0000
 40
0.0000
 41
0.0000
 70
1
  0
VERTEX
  8
27
 10
39.9039
 20
11.0416
 30
0.0000
  0
VERTEX
  8
27
 10
39.3641
 20
10.4066
 30
0.0000
 42
1.0000
  0
VERTEX
  8
27
 10
39.4609
 20
10.3244
 30
0.0000
  0
VERTEX
  8
27
 10
40.0006
 20
10.9594
 30
0.0000
 42
1.0000
  0
SEQEND
  8
0
  0
POLYLINE
  8
27
 66
1
 10
0.0000
 20
0.0000
 30
0.0000
 40
0.0000
 41
0.0000
 70
1
  0
VERTEX
  8
27
 10
39.4125
 20
10.3020
 30
0.0000
  0
VERTEX
  8
27
 10
40.0475
 20
10.3020
 30
0.0000
 42
1.0000
  0
VERTEX
  8
27
 10
40.0475
 20
10.4290
 30
0.0000
  0
VERTEX
  8
27
 10
39.4125
 20
10.4290
 30
0.0000
 42
1.0000
  0
SEQEND
  8
0
  0
POLYLINE
  8
27
 66
1
 10
0.0000
 20
0.0000
 30
0.0000
 40
0.0000
 41
0.0000
 70
1
  0
VERTEX
  8
27
 10
41.1270
 20
11.2228
 30
0.0000
 42
1.0000
  0
VERTEX
  8
27
 10
41.2540
 20
11.2228
 30
0.0000
 42
0.4142
  0
VERTEX
  8
27
 10
40.9047
 20
11.5720
 30
0.0000
 42
1.0000
  0
VERTEX
  8
27
 10
40.9047
 20
11.4450
 30
0.0000
 42
-0.4142
  0
SEQEND
  8
0
  0
POLYLINE
  8
27
 66
1
 10
0.0000
 20
0.0000
 30
0.0000
 40
0.0000
 41
0.0000
 70
1
  0
VERTEX
  8
27
 10
40.9047
 20
11.4450
 30
0.0000
 42
1.0000
  0
VERTEX
  8
27
 10
40.9048
 20
11.5720
 30
0.0000
 42
0.3252
  0
VERTEX
  8
27
 10
40.4951
 20
11.2741
 30
0.0000
 42
1.0000
  0
VERTEX
  8
27
 10
40.6159
 20
11.2349
 30
0.0000
 42
-0.3252
  0
SEQEND
  8
0
  0
POLYLINE
  8
27
 66
1
 10
0.0000
 20
0.0000
 30
0.0000
 40
0.0000
 41
0.0000
 70
1
  0
VERTEX
  8
27
 10
41.0515
 20
11.0465
 30
0.0000
 42
1.0000
  0
VERTEX
  8
27
 10
41.1390
 20
10.9545
 30
0.0000
 42
0.2053
  0
VERTEX
  8
27
 10
41.2540
 20
11.2228
 30
0.0000
 42
1.0000
  0
VERTEX
  8
27
 10
41.1270
 20
11.2227
 30
0.0000
 42
-0.2053
  0
SEQEND
  8
0
  0
POLYLINE
  8
27
 66
1
 10
0.0000
 20
0.0000
 30
0.0000
 40
0.0000
 41
0.0000
 70
1
  0
VERTEX
  8
27
 10
41.0469
 20
11.0416
 30
0.0000
  0
VERTEX
  8
27
 10
40.5071
 20
10.4066
 30
0.0000
 42
1.0000
  0
VERTEX
  8
27
 10
40.6039
 20
10.3244
 30
0.0000
  0
VERTEX
  8
27
 10
41.1436
 20
10.9594
 30
0.0000
 42
1.0000
  0
SEQEND
  8
0
  0
POLYLINE
  8
27
 66
1
 10
0.0000
 20
0.0000
 30
0.0000
 40
0.0000
 41
0.0000
 70
1
  0
VERTEX
  8
27
 10
40.5555
 20
10.3020
 30
0.0000
  0
VERTEX
  8
27
 10
41.1905
 20
10.3020
 30
0.0000
 42
1.0000
  0
VERTEX
  8
27
 10
41.1905
 20
10.4290
 30
0.0000
  0
VERTEX
  8
27
 10
40.5555
 20
10.4290
 30
0.0000
 42
1.0000
  0
SEQEND
  8
0
  0
POLYLINE
  8
27
 66
1
 10
0.0000
 20
0.0000
 30
0.0000
 40
0.0000
 41
0.0000
 70
1
  0
VERTEX
  8
27
 10
42.2700
 20
11.2228
 30
0.0000
 42
1.0000
  0
VERTEX
  8
27
 10
42.3970
 20
11.2228
 30
0.0000
 42
0.4142
  0
VERTEX
  8
27
 10
42.0478
 20
11.5720
 30
0.0000
 42
1.0000
  0
VERTEX
  8
27
 10
42.0478
 20
11.4450
 30
0.0000
 42
-0.4142
  0
SEQEND
  8
0
  0
POLYLINE
  8
27
 66
1
 10
0.0000
 20
0.0000
 30
0.0000
 40
0.0000
 41
0.0000
 70
1
  0
VERTEX
  8
27
 10
42.0477
 20
11.4450
 30
0.0000
 42
1.0000
  0
VERTEX
  8
27
 10
42.0478
 20
11.5720
 30
0.0000
 42
0.3252
  0
VERTEX
  8
27
 10
41.6381
 20
11.2741
 30
0.0000
 42
1.0000
  0
VERTEX
  8
27
 10
41.7589
 20
11.2349
 30
0.0000
 42
-0.3252
  0
SEQEND
  8
0
  0
POLYLINE
  8
27
 66
1
 10
0.0000
 20
0.0000
 30
0.0000
 40
0.0000
 41
0.0000
 70
1
  0
VERTEX
  8
27
 10
42.1945
 20
11.0465
 30
0.0000
 42
1.0000
  0
VERTEX
  8
27
 10
42.2820
 20
10.9545
 30
0.0000
 42
0.2053
  0
VERTEX
  8
27
 10
42.3970
 20
11.2228
 30
0.0000
 42
1.0000
  0
VERTEX
  8
27
 10
42.2700
 20
11.2227
 30
0.0000
 42
-0.2053
  0
SEQEND
  8
0
  0
POLYLINE
  8
27
 66
1
 10
0.0000
 20
0.0000
 30
0.0000
 40
0.0000
 41
0.0000
 70
1
  0
VERTEX
  8
27
 10
42.1899
 20
11.0416
 30
0.0000
  0
VERTEX
  8
27
 10
41.6501
 20
10.4066
 30
0.0000
 42
1.0000
  0
VERTEX
  8
27
 10
41.7469
 20
10.3244
 30
0.0000
  0
VERTEX
  8
27
 10
42.2866
 20
10.9594
 30
0.0000
 42
1.0000
  0
SEQEND
  8
0
  0
POLYLINE
  8
27
 66
1
 10
0.0000
 20
0.0000
 30
0.0000
 40
0.0000
 41
0.0000
 70
1
  0
VERTEX
  8
27
 10
41.6985
 20
10.3020
 30
0.0000
  0
VERTEX
  8
27
 10
42.3335
 20
10.3020
 30
0.0000
 42
1.0000
  0
VERTEX
  8
27
 10
42.3335
 20
10.4290
 30
0.0000
  0
VERTEX
  8
27
 10
41.6985
 20
10.4290
 30
0.0000
 42
1.0000
  0
SEQEND
  8
0
  0
POLYLINE
  8
27
 66
1
 10
0.0000
 20
0.0000
 30
0.0000
 40
0.0000
 41
0.0000
 70
1
  0
VERTEX
  8
27
 10
43.4130
 20
11.2228
 30
0.0000
 42
1.0000
  0
VERTEX
  8
27
 10
43.5400
 20
11.2228
 30
0.0000
 42
0.4142
  0
VERTEX
  8
27
 10
43.1908
 20
11.5720
 30
0.0000
 42
1.0000
  0
VERTEX
  8
27
 10
43.1908
 20
11.4450
 30
0.0000
 42
-0.4142
  0
SEQEND
  8
0
  0
POLYLINE
  8
27
 66
1
 10
0.0000
 20
0.0000
 30
0.0000
 40
0.0000
 41
0.0000
 70
1
  0
VERTEX
  8
27
 10
43.1907
 20
11.4450
 30
0.0000
 42
1.0000
  0
VERTEX
  8
27
 10
43.1908
 20
11.5720
 30
0.0000
 42
0.3252
  0
VERTEX
  8
27
 10
42.7811
 20
11.2741
 30
0.0000
 42
1.0000
  0
VERTEX
  8
27
 10
42.9019
 20
11.2349
 30
0.0000
 42
-0.3252
  0
SEQEND
  8
0
  0
POLYLINE
  8
27
 66
1
 10
0.0000
 20
0.0000
 30
0.0000
 40
0.0000
 41
0.0000
 70
1
  0
VERTEX
  8
27
 10
43.3375
 20
11.0465
 30
0.0000
 42
1.0000
  0
VERTEX
  8
27
 10
43.4250
 20
10.9545
 30
0.0000
 42
0.2053
  0
VERTEX
  8
27
 10
43.5400
 20
11.2228
 30
0.0000
 42
1.0000
  0
VERTEX
  8
27
 10
43.4130
 20
11.2227
 30
0.0000
 42
-0.2053
  0
SEQEND
  8
0
  0
POLYLINE
  8
27
 66
1
 10
0.0000
 20
0.0000
 30
0.0000
 40
0.0000
 41
0.0000
 70
1
  0
VERTEX
  8
27
 10
43.3329
 20
11.0416
 30
0.0000
  0
VERTEX
  8
27
 10
42.7931
 20
10.4066
 30
0.0000
 42
1.0000
  0
VERTEX
  8
27
 10
42.8899
 20
10.3244
 30
0.0000
  0
VERTEX
  8
27
 10
43.4296
 20
10.9594
 30
0.0000
 42
1.0000
  0
SEQEND
  8
0
  0
POLYLINE
  8
27
 66
1
 10
0.0000
 20
0.0000
 30
0.0000
 40
0.0000
 41
0.0000
 70
1
  0
VERTEX
  8
27
 10
42.8415
 20
10.3020
 30
0.0000
  0
VERTEX
  8
27
 10
43.4765
 20
10.3020
 30
0.0000
 42
1.0000
  0
VERTEX
  8
27
 10
43.4765
 20
10.4290
 30
0.0000
  0
VERTEX
  8
27
 10
42.8415
 20
10.4290
 30
0.0000
 42
1.0000
  0
SEQEND
  8
0
  0
POLYLINE
  8
16
 66
1
 10
0.0000
 20
0.0000
 30
0.0000
 40
0.0000
 41
0.0000
 70
1
  0
VERTEX
  8
16
 10
39.6145
 20
33.4825
 30
0.0000
  0
VERTEX
  8
16
 10
44.5175
 20
33.4825
 30
0.0000
 42
1.0000
  0
VERTEX
  8
16
 10
44.5175
 20
37.4825
 30
0.0000
  0
VERTEX
  8
16
 10
39.6145
 20
37.4825
 30
0.0000
 42
1.0000
  0
SEQEND
  8
0
  0
POLYLINE
  8
16
 66
1
 10
0.0000
 20
0.0000
 30
0.0000
 40
0.0000
 41
0.0000
 70
1
  0
VERTEX
  8
16
 10
44.6145
 20
33.3855
 30
0.0000
  0
VERTEX
  8
16
 10
44.6145
 20
27.4825
 30
0.0000
 42
1.0000
  0
VERTEX
  8
16
 10
48.6145
 20
27.4825
 30
0.0000
  0
VERTEX
  8
16
 10
48.6145
 20
33.3855
 30
0.0000
 42
1.0000
  0
SEQEND
  8
0
  0
POLYLINE
  8
16
 66
1
 10
0.0000
 20
0.0000
 30
0.0000
 40
0.0000
 41
0.0000
 70
1
  0
VERTEX
  8
16
 10
43.1033
 20
34.0683
 30
0.0000
  0
VERTEX
  8
16
 10
45.2003
 20
31.9713
 30
0.0000
 42
1.0000
  0
VERTEX
  8
16
 10
48.0287
 20
34.7997
 30
0.0000
  0
VERTEX
  8
16
 10
45.9317
 20
36.8967
 30
0.0000
 42
1.0000
  0
SEQEND
  8
0
  0
POLYLINE
  8
16
 66
1
 10
0.0000
 20
0.0000
 30
0.0000
 40
0.0000
 41
0.0000
 70
1
  0
VERTEX
  8
16
 10
37.5858
 20
39.5858
 30
0.0000
  0
VERTEX
  8
16
 10
43.1033
 20
34.0683
 30
0.0000
 42
1.0000
  0
VERTEX
  8
16
 10
45.9317
 20
36.8967
 30
0.0000
  0
VERTEX
  8
16
 10
40.4142
 20
42.4142
 30
0.0000
 42
1.0000
  0
SEQEND
  8
0
  0
POLYLINE
  8
16
 66
1
 10
0.0000
 20
0.0000
 30
0.0000
 40
0.0000
 41
0.0000
 70
1
  0
VERTEX
  8
16
 10
39.0000
 20
43.0000
 30
0.0000
  0
VERTEX
  8
16
 10
14.0000
 20
43.0000
 30
0.0000
 42
1.0000
  0
VERTEX
  8
16
 10
14.0000
 20
39.0000
 30
0.0000
  0
VERTEX
  8
16
 10
39.0000
 20
39.0000
 30
0.0000
 42
1.0000
  0
SEQEND
  8
0
  0
POLYLINE
  8
16
 66
1
 10
0.0000
 20
0.0000
 30
0.0000
 40
0.0000
 41
0.0000
 70
1
  0
VERTEX
  8
16
 10
13.2280
 20
40.3650
 30
0.0000
  0
VERTEX
  8
16
 10
14.0000
 20
40.3650
 30
0.0000
 42
1.0000
  0
VERTEX
  8
16
 10
14.0000
 20
41.6350
 30
0.0000
  0
VERTEX
  8
16
 10
13.2280
 20
41.6350
 30
0.0000
 42
1.0000
  0
SEQEND
  8
0
  0
POLYLINE
  8
16
 66
1
 10
0.0000
 20
0.0000
 30
0.0000
 40
0.0000
 41
0.0000
 70
1
  0
VERTEX
  8
16
 10
30.2645
 20
-1.8675
 30
0.0000
  0
VERTEX
  8
16
 10
17.2645
 20
-1.8675
 30
0.0000
 42
1.0000
  0
VERTEX
  8
16
 10
17.2645
 20
-5.8675
 30
0.0000
  0
VERTEX
  8
16
 10
30.2645
 20
-5.8675
 30
0.0000
 42
1.0000
  0
SEQEND
  8
0
  0
POLYLINE
  8
16
 66
1
 10
0.0000
 20
0.0000
 30
0.0000
 40
0.0000
 41
0.0000
 70
1
  0
VERTEX
  8
16
 10
4.8675
 20
-5.8675
 30
0.0000
  0
VERTEX
  8
16
 10
17.2645
 20
-5.8675
 30
0.0000
 42
1.0000
  0
VERTEX
  8
16
 10
17.2645
 20
-1.8675
 30
0.0000
  0
VERTEX
  8
16
 10
4.8675
 20
-1.8675
 30
0.0000
 42
1.0000
  0
SEQEND
  8
0
  0
POLYLINE
  8
16
 66
1
 10
0.0000
 20
0.0000
 30
0.0000
 40
0.0000
 41
0.0000
 70
1
  0
VERTEX
  8
16
 10
4.2325
 20
-3.7795
 30
0.0000
  0
VERTEX
  8
16
 10
4.2325
 20
-3.8675
 30
0.0000
 42
1.0000
  0
VERTEX
  8
16
 10
5.5025
 20
-3.8675
 30
0.0000
  0
VERTEX
  8
16
 10
5.5025
 20
-3.7795
 30
0.0000
 42
1.0000
  0
SEQEND
  8
0
  0
POLYLINE
  8
16
 66
1
 10
0.0000
 20
0.0000
 30
0.0000
 40
0.0000
 41
0.0000
 70
1
  0
VERTEX
  8
16
 10
14.0000
 20
43.0000
 30
0.0000
  0
VERTEX
  8
16
 10
13.0000
 20
43.0000
 30
0.0000
 42
1.0000
  0
VERTEX
  8
16
 10
13.0000
 20
39.0000
 30
0.0000
  0
VERTEX
  8
16
 10
14.0000
 20
39.0000
 30
0.0000
 42
1.0000
  0
SEQEND
  8
0
  0
POLYLINE
  8
16
 66
1
 10
0.0000
 20
0.0000
 30
0.0000
 40
0.0000
 41
0.0000
 70
1
  0
VERTEX
  8
16
 10
11.5858
 20
42.4142
 30
0.0000
  0
VERTEX
  8
16
 10
-5.4142
 20
25.4142
 30
0.0000
 42
1.0000
  0
VERTEX
  8
16
 10
-2.5858
 20
22.5858
 30
0.0000
  0
VERTEX
  8
16
 10
14.4142
 20
39.5858
 30
0.0000
 42
1.0000
  0
SEQEND
  8
0
  0
POLYLINE
  8
16
 66
1
 10
0.0000
 20
0.0000
 30
0.0000
 40
0.0000
 41
0.0000
 70
1
  0
VERTEX
  8
16
 10
-6.0000
 20
24.0000
 30
0.0000
  0
VERTEX
  8
16
 10
-6.0000
 20
5.0880
 30
0.0000
 42
1.0000
  0
VERTEX
  8
16
 10
-2.0000
 20
5.0880
 30
0.0000
  0
VERTEX
  8
16
 10
-2.0000
 20
24.0000
 30
0.0000
 42
1.0000
  0
SEQEND
  8
0
  0
POLYLINE
  8
16
 66
1
 10
0.0000
 20
0.0000
 30
0.0000
 40
0.0000
 41
0.0000
 70
1
  0
VERTEX
  8
16
 10
-5.4142
 20
3.6738
 30
0.0000
  0
VERTEX
  8
16
 10
3.4533
 20
-5.1937
 30
0.0000
 42
1.0000
  0
VERTEX
  8
16
 10
6.2817
 20
-2.3653
 30
0.0000
  0
VERTEX
  8
16
 10
-2.5858
 20
6.5022
 30
0.0000
 42
1.0000
  0
SEQEND
  8
0
  0
POLYLINE
  8
16
 66
1
 10
0.0000
 20
0.0000
 30
0.0000
 40
0.0000
 41
0.0000
 70
1
  0
VERTEX
  8
16
 10
45.4150
 20
15.2700
 30
0.0000
  0
VERTEX
  8
16
 10
45.4150
 20
3.0000
 30
0.0000
 42
1.0000
  0
VERTEX
  8
16
 10
47.6650
 20
3.0000
 30
0.0000
  0
VERTEX
  8
16
 10
47.6650
 20
15.2700
 30
0.0000
 42
1.0000
  0
SEQEND
  8
0
  0
POLYLINE
  8
16
 66
1
 10
0.0000
 20
0.0000
 30
0.0000
 40
0.0000
 41
0.0000
 70
1
  0
VERTEX
  8
16
 10
45.0400
 20
3.0000
 30
0.0000
  0
VERTEX
  8
16
 10
45.0400
 20
1.2700
 30
0.0000
 42
1.0000
  0
VERTEX
  8
16
 10
48.0400
 20
1.2700
 30
0.0000
  0
VERTEX
  8
16
 10
48.0400
 20
3.0000
 30
0.0000
 42
1.0000
  0
SEQEND
  8
0
  0
POLYLINE
  8
16
 66
1
 10
0.0000
 20
0.0000
 30
0.0000
 40
0.0000
 41
0.0000
 70
1
  0
VERTEX
  8
16
 10
45.1258
 20
2.6842
 30
0.0000
  0
VERTEX
  8
16
 10
33.8558
 20
-8.5858
 30
0.0000
 42
1.0000
  0
VERTEX
  8
16
 10
36.6842
 20
-11.4142
 30
0.0000
  0
VERTEX
  8
16
 10
47.9542
 20
-0.1442
 30
0.0000
 42
1.0000
  0
SEQEND
  8
0
  0
POLYLINE
  8
16
 66
1
 10
0.0000
 20
0.0000
 30
0.0000
 40
0.0000
 41
0.0000
 70
1
  0
VERTEX
  8
16
 10
35.2700
 20
-8.0000
 30
0.0000
  0
VERTEX
  8
16
 10
1.0000
 20
-8.0000
 30
0.0000
 42
1.0000
  0
VERTEX
  8
16
 10
1.0000
 20
-12.0000
 30
0.0000
  0
VERTEX
  8
16
 10
35.2700
 20
-12.0000
 30
0.0000
 42
1.0000
  0
SEQEND
  8
0
  0
POLYLINE
  8
16
 66
1
 10
0.0000
 20
0.0000
 30
0.0000
 40
0.0000
 41
0.0000
 70
1
  0
VERTEX
  8
16
 10
-14.0000
 20
7.0000
 30
0.0000
  0
VERTEX
  8
16
 10
-14.0000
 20
10.0000
 30
0.0000
 42
1.0000
  0
VERTEX
  8
16
 10
-18.0000
 20
10.0000
 30
0.0000
  0
VERTEX
  8
16
 10
-18.0000
 20
7.0000
 30
0.0000
 42
1.0000
  0
SEQEND
  8
0
  0
POLYLINE
  8
16
 66
1
 10
0.0000
 20
0.0000
 30
0.0000
 40
0.0000
 41
0.0000
 70
1
  0
VERTEX
  8
16
 10
2.4142
 20
-8.5858
 30
0.0000
  0
VERTEX
  8
16
 10
-14.5858
 20
8.4142
 30
0.0000
 42
1.0000
  0
VERTEX
  8
16
 10
-17.4142
 20
5.5858
 30
0.0000
  0
VERTEX
  8
16
 10
-0.4142
 20
-11.4142
 30
0.0000
 42
1.0000
  0
SEQEND
  8
0
  0
POLYLINE
  8
16
 66
1
 10
0.0000
 20
0.0000
 30
0.0000
 40
0.0000
 41
0.0000
 70
1
  0
VERTEX
  8
16
 10
5.6645
 20
15.5255
 30
0.0000
  0
VERTEX
  8
16
 10
2.2045
 20
12.0655
 30
0.0000
 42
1.0000
  0
VERTEX
  8
16
 10
3.7955
 20
10.4745
 30
0.0000
  0
VERTEX
  8
16
 10
7.2555
 20
13.9345
 30
0.0000
 42
1.0000
  0
SEQEND
  8
0
  0
POLYLINE
  8
16
 66
1
 10
0.0000
 20
0.0000
 30
0.0000
 40
0.0000
 41
0.0000
 70
1
  0
VERTEX
  8
16
 10
1.5858
 20
4.5858
 30
0.0000
  0
VERTEX
  8
16
 10
5.5858
 20
0.5858
 30
0.0000
 42
1.0000
  0
VERTEX
  8
16
 10
8.4142
 20
3.4142
 30
0.0000
  0
VERTEX
  8
16
 10
4.4142
 20
7.4142
 30
0.0000
 42
1.0000
  0
SEQEND
  8
0
  0
POLYLINE
  8
16
 66
1
 10
0.0000
 20
0.0000
 30
0.0000
 40
0.0000
 41
0.0000
 70
1
  0
VERTEX
  8
16
 10
7.0000
 20
0.0000
 30
0.0000
  0
VERTEX
  8
16
 10
45.5400
 20
0.0000
 30
0.0000
 42
1.0000
  0
VERTEX
  8
16
 10
45.5400
 20
4.0000
 30
0.0000
  0
VERTEX
  8
16
 10
7.0000
 20
4.0000
 30
0.0000
 42
1.0000
  0
SEQEND
  8
0
  0
POLYLINE
  8
16
 66
1
 10
0.0000
 20
0.0000
 30
0.0000
 40
0.0000
 41
0.0000
 70
1
  0
VERTEX
  8
16
 10
45.9890
 20
1.5510
 30
0.0000
  0
VERTEX
  8
16
 10
46.9890
 20
2.5510
 30
0.0000
 42
1.0000
  0
VERTEX
  8
16
 10
46.0910
 20
3.4490
 30
0.0000
  0
VERTEX
  8
16
 10
45.0910
 20
2.4490
 30
0.0000
 42
1.0000
  0
SEQEND
  8
0
  0
POLYLINE
  8
16
 66
1
 10
0.0000
 20
0.0000
 30
0.0000
 40
0.0000
 41
0.0000
 70
1
  0
VERTEX
  8
16
 10
1.6250
 20
11.2700
 30
0.0000
  0
VERTEX
  8
16
 10
1.6250
 20
6.0000
 30
0.0000
 42
1.0000
  0
VERTEX
  8
16
 10
4.3750
 20
6.0000
 30
0.0000
  0
VERTEX
  8
16
 10
4.3750
 20
11.2700
 30
0.0000
 42
1.0000
  0
SEQEND
  8
0
  0
POLYLINE
  8
16
 66
1
 10
0.0000
 20
0.0000
 30
0.0000
 40
0.0000
 41
0.0000
 70
1
  0
VERTEX
  8
16
 10
27.2700
 20
26.8750
 30
0.0000
  0
VERTEX
  8
16
 10
33.3970
 20
26.8750
 30
0.0000
 42
1.0000
  0
VERTEX
  8
16
 10
33.3970
 20
29.1250
 30
0.0000
  0
VERTEX
  8
16
 10
27.2700
 20
29.1250
 30
0.0000
 42
1.0000
  0
SEQEND
  8
0
  0
POLYLINE
  8
16
 66
1
 10
0.0000
 20
0.0000
 30
0.0000
 40
0.0000
 41
0.0000
 70
1
  0
VERTEX
  8
16
 10
32.3363
 20
26.9393
 30
0.0000
  0
VERTEX
  8
16
 10
32.8538
 20
26.4218
 30
0.0000
 42
1.0000
  0
VERTEX
  8
16
 10
34.9752
 20
28.5432
 30
0.0000
  0
VERTEX
  8
16
 10
34.4577
 20
29.0607
 30
0.0000
 42
1.0000
  0
SEQEND
  8
0
  0
POLYLINE
  8
16
 66
1
 10
0.0000
 20
0.0000
 30
0.0000
 40
0.0000
 41
0.0000
 70
1
  0
VERTEX
  8
16
 10
33.4655
 20
27.0335
 30
0.0000
  0
VERTEX
  8
16
 10
33.5510
 20
26.9480
 30
0.0000
 42
1.0000
  0
VERTEX
  8
16
 10
34.4490
 20
27.8460
 30
0.0000
  0
VERTEX
  8
16
 10
34.3635
 20
27.9315
 30
0.0000
 42
1.0000
  0
SEQEND
  8
0
  0
POLYLINE
  8
16
 66
1
 10
0.0000
 20
0.0000
 30
0.0000
 40
0.0000
 41
0.0000
 70
1
  0
VERTEX
  8
16
 10
32.0000
 20
27.3970
 30
0.0000
  0
VERTEX
  8
16
 10
32.0000
 20
23.0000
 30
0.0000
 42
1.0000
  0
VERTEX
  8
16
 10
36.0000
 20
23.0000
 30
0.0000
  0
VERTEX
  8
16
 10
36.0000
 20
27.3970
 30
0.0000
 42
1.0000
  0
SEQEND
  8
0
  0
POLYLINE
  8
16
 66
1
 10
0.0000
 20
0.0000
 30
0.0000
 40
0.0000
 41
0.0000
 70
1
  0
VERTEX
  8
16
 10
32.5858
 20
21.5858
 30
0.0000
  0
VERTEX
  8
16
 10
35.5858
 20
18.5858
 30
0.0000
 42
1.0000
  0
VERTEX
  8
16
 10
38.4142
 20
21.4142
 30
0.0000
  0
VERTEX
  8
16
 10
35.4142
 20
24.4142
 30
0.0000
 42
1.0000
  0
SEQEND
  8
0
  0
POLYLINE
  8
16
 66
1
 10
0.0000
 20
0.0000
 30
0.0000
 40
0.0000
 41
0.0000
 70
1
  0
VERTEX
  8
16
 10
37.0000
 20
18.0000
 30
0.0000
  0
VERTEX
  8
16
 10
42.0000
 20
18.0000
 30
0.0000
 42
1.0000
  0
VERTEX
  8
16
 10
42.0000
 20
22.0000
 30
0.0000
  0
VERTEX
  8
16
 10
37.0000
 20
22.0000
 30
0.0000
 42
1.0000
  0
SEQEND
  8
0
  0
POLYLINE
  8
16
 66
1
 10
0.0000
 20
0.0000
 30
0.0000
 40
0.0000
 41
0.0000
 70
1
  0
VERTEX
  8
16
 10
45.4142
 20
19.4142
 30
0.0000
  0
VERTEX
  8
16
 10
43.4142
 20
21.4142
 30
0.0000
 42
1.0000
  0
VERTEX
  8
16
 10
40.5858
 20
18.5858
 30
0.0000
  0
VERTEX
  8
16
 10
42.5858
 20
16.5858
 30
0.0000
 42
1.0000
  0
SEQEND
  8
0
  0
POLYLINE
  8
16
 66
1
 10
0.0000
 20
0.0000
 30
0.0000
 40
0.0000
 41
0.0000
 70
1
  0
VERTEX
  8
16
 10
45.1250
 20
15.2700
 30
0.0000
  0
VERTEX
  8
16
 10
45.1250
 20
18.0000
 30
0.0000
 42
1.0000
  0
VERTEX
  8
16
 10
42.8750
 20
18.0000
 30
0.0000
  0
VERTEX
  8
16
 10
42.8750
 20
15.2700
 30
0.0000
 42
1.0000
  0
SEQEND
  8
0
  0
POLYLINE
  8
16
 66
1
 10
0.0000
 20
0.0000
 30
0.0000
 40
0.0000
 41
0.0000
 70
1
  0
VERTEX
  8
16
 10
11.5400
 20
13.6050
 30
0.0000
  0
VERTEX
  8
16
 10
14.0000
 20
13.6050
 30
0.0000
 42
1.0000
  0
VERTEX
  8
16
 10
14.0000
 20
15.8550
 30
0.0000
  0
VERTEX
  8
16
 10
11.5400
 20
15.8550
 30
0.0000
 42
1.0000
  0
SEQEND
  8
0
  0
POLYLINE
  8
16
 66
1
 10
0.0000
 20
0.0000
 30
0.0000
 40
0.0000
 41
0.0000
 70
1
  0
VERTEX
  8
16
 10
14.8748
 20
14.0226
 30
0.0000
  0
VERTEX
  8
16
 10
25.6048
 20
27.2926
 30
0.0000
 42
1.0000
  0
VERTEX
  8
16
 10
23.8552
 20
28.7074
 30
0.0000
  0
VERTEX
  8
16
 10
13.1252
 20
15.4374
 30
0.0000
 42
1.0000
  0
SEQEND
  8
0
  0
POLYLINE
  8
16
 66
1
 10
0.0000
 20
0.0000
 30
0.0000
 40
0.0000
 41
0.0000
 70
1
  0
VERTEX
  8
16
 10
10.6050
 20
27.0000
 30
0.0000
  0
VERTEX
  8
16
 10
10.6050
 20
14.9200
 30
0.0000
 42
1.0000
  0
VERTEX
  8
16
 10
12.8550
 20
14.9200
 30
0.0000
  0
VERTEX
  8
16
 10
12.8550
 20
27.0000
 30
0.0000
 42
1.0000
  0
SEQEND
  8
0
  0
POLYLINE
  8
16
 66
1
 10
0.0000
 20
0.0000
 30
0.0000
 40
0.0000
 41
0.0000
 70
1
  0
VERTEX
  8
16
 10
10.9345
 20
15.7155
 30
0.0000
  0
VERTEX
  8
16
 10
10.7445
 20
15.5255
 30
0.0000
 42
1.0000
  0
VERTEX
  8
16
 10
12.3355
 20
13.9345
 30
0.0000
  0
VERTEX
  8
16
 10
12.5255
 20
14.1245
 30
0.0000
 42
1.0000
  0
SEQEND
  8
0
  0
POLYLINE
  8
16
 66
1
 10
0.0000
 20
0.0000
 30
0.0000
 40
0.0000
 41
0.0000
 70
1
  0
VERTEX
  8
16
 10
26.9145
 20
37.4825
 30
0.0000
  0
VERTEX
  8
16
 10
22.7525
 20
37.4825
 30
0.0000
 42
1.0000
  0
VERTEX
  8
16
 10
22.7525
 20
33.4825
 30
0.0000
  0
VERTEX
  8
16
 10
26.9145
 20
33.4825
 30
0.0000
 42
1.0000
  0
SEQEND
  8
0
  0
POLYLINE
  8
16
 66
1
 10
0.0000
 20
0.0000
 30
0.0000
 40
0.0000
 41
0.0000
 70
1
  0
VERTEX
  8
16
 10
21.9570
 20
36.2780
 30
0.0000
  0
VERTEX
  8
16
 10
13.4745
 20
27.7955
 30
0.0000
 42
1.0000
  0
VERTEX
  8
16
 10
15.0655
 20
26.2045
 30
0.0000
  0
VERTEX
  8
16
 10
23.5480
 20
34.6870
 30
0.0000
 42
1.0000
  0
SEQEND
  8
0
  0
POLYLINE
  8
16
 66
1
 10
0.0000
 20
0.0000
 30
0.0000
 40
0.0000
 41
0.0000
 70
1
  0
VERTEX
  8
16
 10
7.8750
 20
14.7300
 30
0.0000
  0
VERTEX
  8
16
 10
7.8750
 20
10.0000
 30
0.0000
 42
1.0000
  0
VERTEX
  8
16
 10
10.1250
 20
10.0000
 30
0.0000
  0
VERTEX
  8
16
 10
10.1250
 20
14.7300
 30
0.0000
 42
1.0000
  0
SEQEND
  8
0
  0
POLYLINE
  8
16
 66
1
 10
0.0000
 20
0.0000
 30
0.0000
 40
0.0000
 41
0.0000
 70
1
  0
VERTEX
  8
16
 10
7.5858
 20
8.5858
 30
0.0000
  0
VERTEX
  8
16
 10
8.7533
 20
7.4183
 30
0.0000
 42
1.0000
  0
VERTEX
  8
16
 10
11.5817
 20
10.2467
 30
0.0000
  0
VERTEX
  8
16
 10
10.4142
 20
11.4142
 30
0.0000
 42
1.0000
  0
SEQEND
  8
0
  0
POLYLINE
  8
16
 66
1
 10
0.0000
 20
0.0000
 30
0.0000
 40
0.0000
 41
0.0000
 70
1
  0
VERTEX
  8
16
 10
10.1675
 20
6.8325
 30
0.0000
  0
VERTEX
  8
16
 10
17.2645
 20
6.8325
 30
0.0000
 42
1.0000
  0
VERTEX
  8
16
 10
17.2645
 20
10.8325
 30
0.0000
  0
VERTEX
  8
16
 10
10.1675
 20
10.8325
 30
0.0000
 42
1.0000
  0
SEQEND
  8
0
  0
POLYLINE
  8
16
 66
1
 10
0.0000
 20
0.0000
 30
0.0000
 40
0.0000
 41
0.0000
 70
1
  0
VERTEX
  8
16
 10
23.6050
 20
18.0000
 30
0.0000
  0
VERTEX
  8
16
 10
23.6050
 20
10.7300
 30
0.0000
 42
1.0000
  0
VERTEX
  8
16
 10
25.8550
 20
10.7300
 30
0.0000
  0
VERTEX
  8
16
 10
25.8550
 20
18.0000
 30
0.0000
 42
1.0000
  0
SEQEND
  8
0
  0
POLYLINE
  8
16
 66
1
 10
0.0000
 20
0.0000
 30
0.0000
 40
0.0000
 41
0.0000
 70
1
  0
VERTEX
  8
16
 10
22.8325
 20
10.8325
 30
0.0000
  0
VERTEX
  8
16
 10
17.2645
 20
10.8325
 30
0.0000
 42
1.0000
  0
VERTEX
  8
16
 10
17.2645
 20
6.8325
 30
0.0000
  0
VERTEX
  8
16
 10
22.8325
 20
6.8325
 30
0.0000
 42
1.0000
  0
SEQEND
  8
0
  0
POLYLINE
  8
16
 66
1
 10
0.0000
 20
0.0000
 30
0.0000
 40
0.0000
 41
0.0000
 70
1
  0
VERTEX
  8
16
 10
23.3158
 20
12.1442
 30
0.0000
  0
VERTEX
  8
16
 10
21.4183
 20
10.2467
 30
0.0000
 42
1.0000
  0
VERTEX
  8
16
 10
24.2467
 20
7.4183
 30
0.0000
  0
VERTEX
  8
16
 10
26.1442
 20
9.3158
 30
0.0000
 42
1.0000
  0
SEQEND
  8
0
  0
POLYLINE
  8
16
 66
1
 10
0.0000
 20
0.0000
 30
0.0000
 40
0.0000
 41
0.0000
 70
1
  0
VERTEX
  8
16
 10
31.6787
 20
7.4183
 30
0.0000
  0
VERTEX
  8
16
 10
34.6302
 20
10.3698
 30
0.0000
 42
1.0000
  0
VERTEX
  8
16
 10
31.8018
 20
13.1982
 30
0.0000
  0
VERTEX
  8
16
 10
28.8503
 20
10.2467
 30
0.0000
 42
1.0000
  0
SEQEND
  8
0
  0
POLYLINE
  8
16
 66
1
 10
0.0000
 20
0.0000
 30
0.0000
 40
0.0000
 41
0.0000
 70
1
  0
VERTEX
  8
16
 10
34.6302
 20
10.3698
 30
0.0000
  0
VERTEX
  8
16
 10
38.1162
 20
13.8558
 30
0.0000
 42
1.0000
  0
VERTEX
  8
16
 10
35.2878
 20
16.6842
 30
0.0000
  0
VERTEX
  8
16
 10
31.8018
 20
13.1982
 30
0.0000
 42
1.0000
  0
SEQEND
  8
0
  0
POLYLINE
  8
16
 66
1
 10
0.0000
 20
0.0000
 30
0.0000
 40
0.0000
 41
0.0000
 70
1
  0
VERTEX
  8
16
 10
36.7020
 20
14.1450
 30
0.0000
  0
VERTEX
  8
16
 10
41.4600
 20
14.1450
 30
0.0000
 42
1.0000
  0
VERTEX
  8
16
 10
41.4600
 20
16.3950
 30
0.0000
  0
VERTEX
  8
16
 10
36.7020
 20
16.3950
 30
0.0000
 42
1.0000
  0
SEQEND
  8
0
  0
POLYLINE
  8
16
 66
1
 10
0.0000
 20
0.0000
 30
0.0000
 40
0.0000
 41
0.0000
 70
1
  0
VERTEX
  8
16
 10
26.4745
 20
17.2045
 30
0.0000
  0
VERTEX
  8
16
 10
32.4205
 20
11.2585
 30
0.0000
 42
1.0000
  0
VERTEX
  8
16
 10
34.0115
 20
12.8495
 30
0.0000
  0
VERTEX
  8
16
 10
28.0655
 20
18.7955
 30
0.0000
 42
1.0000
  0
SEQEND
  8
0
  0
POLYLINE
  8
16
 66
1
 10
0.0000
 20
0.0000
 30
0.0000
 40
0.0000
 41
0.0000
 70
1
  0
VERTEX
  8
16
 10
32.5810
 20
12.0540
 30
0.0000
  0
VERTEX
  8
16
 10
32.5810
 20
11.7840
 30
0.0000
 42
1.0000
  0
VERTEX
  8
16
 10
33.8510
 20
11.7840
 30
0.0000
  0
VERTEX
  8
16
 10
33.8510
 20
12.0540
 30
0.0000
 42
1.0000
  0
SEQEND
  8
0
  0
ENDSEC
  0
EOF
